<svg xmlns="http://www.w3.org/2000/svg" xmlns:xlink="http://www.w3.org/1999/xlink" contentStyleType="text/css" data-diagram-type="DESCRIPTION" height="344.8px" preserveAspectRatio="none" style="width:1782px;height:344px;background:#FFFFFF;" version="1.1" viewBox="0 0 1782 344" width="1782.4px" zoomAndPan="magnify"><title>Merge folyamat - bet&#246;lt&#233;s &#233;s egyes&#237;t&#233;s l&#233;p&#233;sei</title><defs/><g><g class="title" data-source-line="22"><text fill="#000000" font-family="sans-serif" font-size="11.2" font-weight="bold" lengthAdjust="spacing" textLength="295.9305" x="737.7344" y="18.3961">Merge folyamat - bet&#246;lt&#233;s &#233;s egyes&#237;t&#233;s l&#233;p&#233;sei</text></g><!--cluster A--><g class="cluster" data-entity="A" data-source-line="27" data-uid="ent0002" id="cluster_A"><path d="M6.8,34.6375 L99.032,34.6375 A3,3 0 0 1 101.032,36.6375 L106.632,65.5125 L633.2,65.5125 A2,2 0 0 1 635.2,67.5125 L635.2,224.4295 A2,2 0 0 1 633.2,226.4295 L6.8,226.4295 A2,2 0 0 1 4.8,224.4295 L4.8,36.6375 A2,2 0 0 1 6.8,34.6375" fill="none" style="stroke:#000000;stroke-width:1.2;"/><line style="stroke:#000000;stroke-width:1.2;" x1="4.8" x2="106.632" y1="65.5125" y2="65.5125"/><text fill="#000000" font-family="sans-serif" font-size="11.2" font-weight="bold" lengthAdjust="spacing" textLength="53.1836" x="27.1242" y="46.6336">Forr&#225;s A</text><text fill="#000000" font-family="sans-serif" font-size="11.2" font-weight="bold" lengthAdjust="spacing" textLength="91.432" x="8" y="59.6711">(Steam CSV-k)</text></g><!--cluster C--><g class="cluster" data-entity="C" data-source-line="49" data-uid="ent0014" id="cluster_C"><path d="M1098.8,34.6375 L1217.7797,34.6375 A3,3 0 0 1 1219.7797,36.6375 L1225.3797,65.5125 L1572.4,65.5125 A2,2 0 0 1 1574.4,67.5125 L1574.4,224.4295 A2,2 0 0 1 1572.4,226.4295 L1098.8,226.4295 A2,2 0 0 1 1096.8,224.4295 L1096.8,36.6375 A2,2 0 0 1 1098.8,34.6375" fill="none" style="stroke:#000000;stroke-width:1.2;"/><line style="stroke:#000000;stroke-width:1.2;" x1="1096.8" x2="1225.3797" y1="65.5125" y2="65.5125"/><text fill="#000000" font-family="sans-serif" font-size="11.2" font-weight="bold" lengthAdjust="spacing" textLength="52.7352" x="1132.7223" y="46.6336">Forr&#225;s C</text><text fill="#000000" font-family="sans-serif" font-size="11.2" font-weight="bold" lengthAdjust="spacing" textLength="118.1797" x="1100" y="59.6711">(2024-2025 CSV-k)</text></g><!--entity steam.csv--><g class="entity" data-entity="steam.csv" data-source-line="28" data-uid="ent0003" id="entity_steam.csv"><rect fill="#F1F1F1" height="37.0375" rx="2" ry="2" style="stroke:#181818;stroke-width:0.4;" width="89.0719" x="61.864" y="81.8375"/><rect fill="#F1F1F1" height="8" style="stroke:#181818;stroke-width:0.4;" width="12" x="134.9359" y="85.8375"/><rect fill="#F1F1F1" height="1.6" style="stroke:#181818;stroke-width:0.4;" width="3.2" x="133.3359" y="87.4375"/><rect fill="#F1F1F1" height="1.6" style="stroke:#181818;stroke-width:0.4;" width="3.2" x="133.3359" y="90.6375"/><text fill="#000000" font-family="sans-serif" font-size="11.2" lengthAdjust="spacing" textLength="57.0719" x="73.864" y="108.2336">steam.csv</text></g><!--entity steam_description_data.csv--><g class="entity" data-entity="steam_description_data.csv" data-source-line="29" data-uid="ent0004" id="entity_steam_description_data.csv"><rect fill="#F1F1F1" height="37.0375" rx="2" ry="2" style="stroke:#181818;stroke-width:0.4;" width="187.7719" x="178.912" y="81.8375"/><rect fill="#F1F1F1" height="8" style="stroke:#181818;stroke-width:0.4;" width="12" x="350.6839" y="85.8375"/><rect fill="#F1F1F1" height="1.6" style="stroke:#181818;stroke-width:0.4;" width="3.2" x="349.0839" y="87.4375"/><rect fill="#F1F1F1" height="1.6" style="stroke:#181818;stroke-width:0.4;" width="3.2" x="349.0839" y="90.6375"/><text fill="#000000" font-family="sans-serif" font-size="11.2" lengthAdjust="spacing" textLength="155.7719" x="190.912" y="108.2336">steam_description_data.csv</text></g><!--entity steam_media_data.csv--><g class="entity" data-entity="steam_media_data.csv" data-source-line="30" data-uid="ent0005" id="entity_steam_media_data.csv"><rect fill="#F1F1F1" height="37.0375" rx="2" ry="2" style="stroke:#181818;stroke-width:0.4;" width="160.3844" x="395.008" y="81.8375"/><rect fill="#F1F1F1" height="8" style="stroke:#181818;stroke-width:0.4;" width="12" x="539.3924" y="85.8375"/><rect fill="#F1F1F1" height="1.6" style="stroke:#181818;stroke-width:0.4;" width="3.2" x="537.7924" y="87.4375"/><rect fill="#F1F1F1" height="1.6" style="stroke:#181818;stroke-width:0.4;" width="3.2" x="537.7924" y="90.6375"/><text fill="#000000" font-family="sans-serif" font-size="11.2" lengthAdjust="spacing" textLength="128.3844" x="407.008" y="108.2336">steam_media_data.csv</text></g><!--entity steam_support_info.csv--><g class="entity" data-entity="steam_support_info.csv" data-source-line="31" data-uid="ent0006" id="entity_steam_support_info.csv"><rect fill="#F1F1F1" height="37.0375" rx="2" ry="2" style="stroke:#181818;stroke-width:0.4;" width="164.2781" x="24.264" y="170.1895"/><rect fill="#F1F1F1" height="8" style="stroke:#181818;stroke-width:0.4;" width="12" x="172.5421" y="174.1895"/><rect fill="#F1F1F1" height="1.6" style="stroke:#181818;stroke-width:0.4;" width="3.2" x="170.9421" y="175.7895"/><rect fill="#F1F1F1" height="1.6" style="stroke:#181818;stroke-width:0.4;" width="3.2" x="170.9421" y="178.9895"/><text fill="#000000" font-family="sans-serif" font-size="11.2" lengthAdjust="spacing" textLength="132.2781" x="36.264" y="196.5856">steam_support_info.csv</text></g><!--entity steamspy_tag_data.csv--><g class="entity" data-entity="steamspy_tag_data.csv" data-source-line="32" data-uid="ent0007" id="entity_steamspy_tag_data.csv"><rect fill="#F1F1F1" height="37.0375" rx="2" ry="2" style="stroke:#181818;stroke-width:0.4;" width="163.4359" x="216.68" y="170.1895"/><rect fill="#F1F1F1" height="8" style="stroke:#181818;stroke-width:0.4;" width="12" x="364.1159" y="174.1895"/><rect fill="#F1F1F1" height="1.6" style="stroke:#181818;stroke-width:0.4;" width="3.2" x="362.5159" y="175.7895"/><rect fill="#F1F1F1" height="1.6" style="stroke:#181818;stroke-width:0.4;" width="3.2" x="362.5159" y="178.9895"/><text fill="#000000" font-family="sans-serif" font-size="11.2" lengthAdjust="spacing" textLength="131.4359" x="228.68" y="196.5856">steamspy_tag_data.csv</text></g><!--entity steam_requirements_data.csv--><g class="entity" data-entity="steam_requirements_data.csv" data-source-line="33" data-uid="ent0008" id="entity_steam_requirements_data.csv"><rect fill="#F1F1F1" height="37.0375" rx="2" ry="2" style="stroke:#181818;stroke-width:0.4;" width="200.9352" x="408.336" y="170.1895"/><rect fill="#F1F1F1" height="8" style="stroke:#181818;stroke-width:0.4;" width="12" x="593.2712" y="174.1895"/><rect fill="#F1F1F1" height="1.6" style="stroke:#181818;stroke-width:0.4;" width="3.2" x="591.6712" y="175.7895"/><rect fill="#F1F1F1" height="1.6" style="stroke:#181818;stroke-width:0.4;" width="3.2" x="591.6712" y="178.9895"/><text fill="#000000" font-family="sans-serif" font-size="11.2" lengthAdjust="spacing" textLength="168.9352" x="420.336" y="196.5856">steam_requirements_data.csv</text></g><!--entity games_march2025_cleaned.csv--><g class="entity" data-entity="games_march2025_cleaned.csv" data-source-line="50" data-uid="ent0015" id="entity_games_march2025_cleaned.csv"><rect fill="#F1F1F1" height="37.0375" rx="2" ry="2" style="stroke:#181818;stroke-width:0.4;" width="211.2492" x="1115.976" y="81.8375"/><rect fill="#F1F1F1" height="8" style="stroke:#181818;stroke-width:0.4;" width="12" x="1311.2252" y="85.8375"/><rect fill="#F1F1F1" height="1.6" style="stroke:#181818;stroke-width:0.4;" width="3.2" x="1309.6252" y="87.4375"/><rect fill="#F1F1F1" height="1.6" style="stroke:#181818;stroke-width:0.4;" width="3.2" x="1309.6252" y="90.6375"/><text fill="#000000" font-family="sans-serif" font-size="11.2" lengthAdjust="spacing" textLength="179.2492" x="1127.976" y="108.2336">games_march2025_cleaned.csv</text></g><!--entity games_march2025_full.csv--><g class="entity" data-entity="games_march2025_full.csv" data-source-line="51" data-uid="ent0016" id="entity_games_march2025_full.csv"><rect fill="#F1F1F1" height="37.0375" rx="2" ry="2" style="stroke:#181818;stroke-width:0.4;" width="184.3922" x="1355" y="81.8375"/><rect fill="#F1F1F1" height="8" style="stroke:#181818;stroke-width:0.4;" width="12" x="1523.3922" y="85.8375"/><rect fill="#F1F1F1" height="1.6" style="stroke:#181818;stroke-width:0.4;" width="3.2" x="1521.7922" y="87.4375"/><rect fill="#F1F1F1" height="1.6" style="stroke:#181818;stroke-width:0.4;" width="3.2" x="1521.7922" y="90.6375"/><text fill="#000000" font-family="sans-serif" font-size="11.2" lengthAdjust="spacing" textLength="152.3922" x="1367" y="108.2336">games_march2025_full.csv</text></g><!--entity games_may2024_cleaned.csv--><g class="entity" data-entity="games_may2024_cleaned.csv" data-source-line="52" data-uid="ent0017" id="entity_games_may2024_cleaned.csv"><rect fill="#F1F1F1" height="37.0375" rx="2" ry="2" style="stroke:#181818;stroke-width:0.4;" width="200.0164" x="1121.592" y="170.1895"/><rect fill="#F1F1F1" height="8" style="stroke:#181818;stroke-width:0.4;" width="12" x="1305.6084" y="174.1895"/><rect fill="#F1F1F1" height="1.6" style="stroke:#181818;stroke-width:0.4;" width="3.2" x="1304.0084" y="175.7895"/><rect fill="#F1F1F1" height="1.6" style="stroke:#181818;stroke-width:0.4;" width="3.2" x="1304.0084" y="178.9895"/><text fill="#000000" font-family="sans-serif" font-size="11.2" lengthAdjust="spacing" textLength="168.0164" x="1133.592" y="196.5856">games_may2024_cleaned.csv</text></g><!--entity games_may2024_full.csv--><g class="entity" data-entity="games_may2024_full.csv" data-source-line="53" data-uid="ent0018" id="entity_games_may2024_full.csv"><rect fill="#F1F1F1" height="37.0375" rx="2" ry="2" style="stroke:#181818;stroke-width:0.4;" width="173.1594" x="1349.424" y="170.1895"/><rect fill="#F1F1F1" height="8" style="stroke:#181818;stroke-width:0.4;" width="12" x="1506.5834" y="174.1895"/><rect fill="#F1F1F1" height="1.6" style="stroke:#181818;stroke-width:0.4;" width="3.2" x="1504.9834" y="175.7895"/><rect fill="#F1F1F1" height="1.6" style="stroke:#181818;stroke-width:0.4;" width="3.2" x="1504.9834" y="178.9895"/><text fill="#000000" font-family="sans-serif" font-size="11.2" lengthAdjust="spacing" textLength="141.1594" x="1361.424" y="196.5856">games_may2024_full.csv</text></g><!--entity A_merged--><g class="entity" data-entity="A_merged" data-source-line="36" data-uid="ent0009" id="entity_A_merged"><rect fill="#FCE4D6" height="42.075" rx="2" ry="2" style="stroke:#C00000;stroke-width:0.4;" width="185.1047" x="654.648" y="167.6695"/><text fill="#C00000" font-family="sans-serif" font-size="11.2" lengthAdjust="spacing" textLength="78.9578" x="662.648" y="186.0656">A_merged.csv</text><text fill="#C00000" font-family="sans-serif" font-size="11.2" lengthAdjust="spacing" textLength="169.1047" x="662.648" y="199.1031">(bels&#337; merge - load_source_a)</text></g><!--entity B_json--><g class="entity" data-entity="B_json" data-source-line="42" data-uid="ent0011" id="entity_B_json"><polygon fill="#FFFFFF" points="924.768,89.8375,932.768,81.8375,1020.8344,81.8375,1020.8344,110.875,1012.8344,118.875,924.768,118.875,924.768,89.8375" style="stroke:#4472C4;stroke-width:0.4;"/><line style="stroke:#4472C4;stroke-width:0.4;" x1="1012.8344" x2="1020.8344" y1="89.8375" y2="81.8375"/><line style="stroke:#4472C4;stroke-width:0.4;" x1="924.768" x2="1012.8344" y1="89.8375" y2="89.8375"/><line style="stroke:#4472C4;stroke-width:0.4;" x1="1012.8344" x2="1012.8344" y1="89.8375" y2="118.875"/><text fill="#000000" font-family="sans-serif" font-size="11.2" lengthAdjust="spacing" textLength="64.0664" x="936.768" y="108.2336">games.json</text></g><!--entity B_full--><g class="entity" data-entity="B_full" data-source-line="43" data-uid="ent0012" id="entity_B_full"><rect fill="#FCE4D6" height="42.075" rx="2" ry="2" style="stroke:#C00000;stroke-width:0.4;" width="210.3102" x="867.648" y="167.6695"/><text fill="#C00000" font-family="sans-serif" font-size="11.2" lengthAdjust="spacing" textLength="52.7297" x="875.648" y="186.0656">B_full.csv</text><text fill="#C00000" font-family="sans-serif" font-size="11.2" lengthAdjust="spacing" textLength="194.3102" x="875.648" y="199.1031">(JSON feldolgoz&#225;s - load_source_b)</text></g><!--entity C_combined--><g class="entity" data-entity="C_combined" data-source-line="56" data-uid="ent0019" id="entity_C_combined"><rect fill="#FCE4D6" height="42.075" rx="2" ry="2" style="stroke:#C00000;stroke-width:0.4;" width="184.3992" x="1593.4" y="167.6695"/><text fill="#C00000" font-family="sans-serif" font-size="11.2" lengthAdjust="spacing" textLength="90.8414" x="1601.4" y="186.0656">C_combined.csv</text><text fill="#C00000" font-family="sans-serif" font-size="11.2" lengthAdjust="spacing" textLength="168.3992" x="1601.4" y="199.1031">(bels&#337; merge - load_source_c)</text></g><!--entity D--><g class="entity" data-entity="D" data-source-line="62" data-uid="ent0021" id="entity_D"><rect fill="#FCE4D6" height="55.1125" rx="2" ry="2" style="stroke:#C00000;stroke-width:0.4;" width="150.4219" x="897.592" y="283.8855"/><text fill="#C00000" font-family="sans-serif" font-size="11.2" lengthAdjust="spacing" textLength="8.6242" x="905.592" y="302.2816">D</text><text fill="#C00000" font-family="sans-serif" font-size="11.2" lengthAdjust="spacing" textLength="119.5305" x="905.592" y="315.3191">(merged_master.csv)</text><text fill="#C00000" font-family="sans-serif" font-size="11.2" lengthAdjust="spacing" textLength="134.4219" x="905.592" y="328.3566">Egys&#233;ges rel&#225;ci&#243;s s&#233;ma</text></g><g class="entity" data-entity="GMN22" data-source-line="65" data-uid="ent0023" id="entity_GMN22"><path d="M1075.76,283.2295 L1075.76,308.2375 L1048.216,311.4375 L1075.76,314.6375 L1075.76,339.6545 A0,0 0 0 0 1075.76,339.6545 L1185.0428,339.6545 A0,0 0 0 0 1185.0428,339.6545 L1185.0428,291.2295 L1177.0428,283.2295 L1075.76,283.2295 A0,0 0 0 0 1075.76,283.2295" fill="#FEFFDD" style="stroke:#181818;stroke-width:0.4;"/><path d="M1177.0428,283.2295 L1177.0428,291.2295 L1185.0428,291.2295 L1177.0428,283.2295" fill="#FEFFDD" style="stroke:#181818;stroke-width:0.4;"/><text fill="#000000" font-family="sans-serif" font-size="10.4" lengthAdjust="spacing" textLength="83.1086" x="1080.56" y="296.883">Forr&#225;s-priorit&#225;s:</text><text fill="#000000" font-family="sans-serif" font-size="10.4" lengthAdjust="spacing" textLength="77.9645" x="1083.8659" y="308.9893">C &#8594; els&#337;dleges</text><text fill="#000000" font-family="sans-serif" font-size="10.4" lengthAdjust="spacing" textLength="84.9926" x="1083.8659" y="321.0955">B &#8594; m&#225;sodlagos</text><text fill="#000000" font-family="sans-serif" font-size="10.4" lengthAdjust="spacing" textLength="89.177" x="1083.8659" y="333.2018">A &#8594; hi&#225;nykit&#246;lt&#233;s</text></g><!--link A to A_merged--><g class="link" data-entity-1="A" data-entity-2="A_merged" data-source-line="37" data-uid="lnk10" id="link_A_A_merged"><path d="M635.2045,105.8463 C636.4042,106.7257 637.7526,107.714 639.2323,108.7985 C645.151,113.1365 653.171,119.0135 662.184,125.6175 C680.21,138.8255 698.3356,152.1052 715.4396,164.6332" fill="none" id="A-to-A_merged" style="stroke:#C00000;stroke-width:1.6;"/><polygon fill="#C00000" points="719.312,167.4695,715.3944,160.6334,716.085,165.1059,711.6126,165.7966,719.312,167.4695" style="stroke:#C00000;stroke-width:1.6;"/></g><!--link B_json to B_full--><g class="link" data-entity-1="B_json" data-entity-2="B_full" data-source-line="44" data-uid="lnk13" id="link_B_json_B_full"><path d="M972.8,119.1255 C972.8,133.2215 972.8,148.0455 972.8,162.7255" fill="none" id="B_json-to-B_full" style="stroke:#C00000;stroke-width:1.6;"/><polygon fill="#C00000" points="972.8,167.5255,976,160.3255,972.8,163.5255,969.6,160.3255,972.8,167.5255" style="stroke:#C00000;stroke-width:1.6;"/></g><!--link C to C_combined--><g class="link" data-entity-1="C" data-entity-2="C_combined" data-source-line="57" data-uid="lnk20" id="link_C_C_combined"><path d="M1574.5874,106.0124 C1574.6631,106.0682 1574.7393,106.1245 1574.816,106.1811 C1574.9696,106.2944 1575.1254,106.4094 1575.2834,106.526 C1575.5995,106.7593 1575.9246,106.9992 1576.2584,107.2455 C1576.9259,107.738 1577.6281,108.2563 1578.363,108.7985 C1584.242,113.1365 1592.208,119.0135 1601.16,125.6175 C1619.064,138.8255 1637.0492,152.0922 1654.0332,164.6202" fill="none" id="C-to-C_combined" style="stroke:#C00000;stroke-width:1.6;"/><polygon fill="#C00000" points="1657.896,167.4695,1654.0014,160.6203,1654.677,165.095,1650.2022,165.7707,1657.896,167.4695" style="stroke:#C00000;stroke-width:1.6;"/></g><!--link C_combined to D--><g class="link" data-entity-1="C_combined" data-entity-2="D" data-source-line="72" data-uid="lnk25" id="link_C_combined_D"><path d="M1639.544,210.1255 C1614.208,220.5655 1581.928,232.4455 1552,239.2295 C1338.584,287.5975 1276.304,240.9415 1061.6,283.2295 C1057.248,284.0855 1057.4649,283.9469 1053.0089,285.0269" fill="none" id="C_combined-to-D" style="stroke:#C00000;stroke-width:1.6;"/><polygon fill="#C00000" points="1048.344,286.1575,1056.0952,287.5715,1052.2314,285.2153,1054.5876,281.3516,1048.344,286.1575" style="stroke:#C00000;stroke-width:1.6;"/><text fill="#C00000" font-family="sans-serif" font-size="10.4" lengthAdjust="spacing" textLength="40.9348" x="1516" y="256.083">1. l&#233;p&#233;s</text></g><!--link B_full to D--><g class="link" data-entity-1="B_full" data-entity-2="D" data-source-line="73" data-uid="lnk26" id="link_B_full_D"><path d="M972.8,210.0615 C972.8,230.3095 972.8,256.5575 972.8,278.8055" fill="none" id="B_full-to-D" style="stroke:#C00000;stroke-width:1.6;"/><polygon fill="#C00000" points="972.8,283.6055,976,276.4055,972.8,279.6055,969.6,276.4055,972.8,283.6055" style="stroke:#C00000;stroke-width:1.6;"/><text fill="#C00000" font-family="sans-serif" font-size="10.4" lengthAdjust="spacing" textLength="40.9348" x="973.6" y="256.083">2. l&#233;p&#233;s</text></g><!--link A_merged to D--><g class="link" data-entity-1="A_merged" data-entity-2="D" data-source-line="74" data-uid="lnk27" id="link_A_merged_D"><path d="M785.472,210.0615 C823.12,230.2775 876.5953,258.9823 918.0033,281.2223" fill="none" id="A_merged-to-D" style="stroke:#C00000;stroke-width:1.6;"/><polygon fill="#C00000" points="922.232,283.4935,917.4031,277.2676,918.7081,281.6008,914.3749,282.9058,922.232,283.4935" style="stroke:#C00000;stroke-width:1.6;"/><text fill="#C00000" font-family="sans-serif" font-size="10.4" lengthAdjust="spacing" textLength="40.9348" x="874.4" y="256.083">3. l&#233;p&#233;s</text></g><!--SRC=[bLJDRjD04BxxALRX09LmL4BuKIMG4gSv8067e7AWbRNsJfmbwrspkw5o4LVkvGrwx84J4YTkLb-49s5sxJHEcf9YAOdtcvblVlRB29XQOXNHF9jPmhY6r78b0wiA1oVAMfMtS9DI0MI_-pm8p9pBWcgQauIcyqohXMIH4agJqnctqBAxO2ep3FmI47o66_xtnj5XV_IqjYdDG3TujEyUZu-LjElerrO6gTXjvEzzCJUe-_rdlQY_GJqK6Bn6JBLMfmtpNOfowBiPJ-SIZ24zv0eijzZvQz0PaAaI9Ssf9I59m5Q_XAqk3N4Vo4emrGz_5jLbWR_0W-0-UN7xWzO1KcfTNHXaHBua8T7ag4q6EoYm8XmAwOmRci6nV32nWAqZKJZVwn2AO3E13yPPkgdvVD8wnmnCgddX118pQkaDXnmOfzjDPb4KIjkOowdQD9gYZ2tDjWTg-BH0MUOWhMbvuC1NSkiCC3NEdJaRDfQ0C5Vdn6CuCA4eYurQw1HYsdJQ10G34eOlLyUT5p5iNSIhoTitEmAyO3iPpS5qFnebVV9Xx5xRzG_ZwKA8fdf7IwOWc1APEgjJjLj8zXeM5nFKPBwB1jdPGxHDJF-fdmWBxUtt-Y5-FMbhA5fgo3STvrIdC-SJfmAehA_ePBl7SWORvjBb-KTuRLy5hqiZYbEL9rpUHHnfqy9rI13vmRQ0dSCzgYwpQ_uTtgqoHrXPhK7i29MlNRLxn_8mAmqoWi7jAggBb5S_3K4afxxKKO0Iiz3iTJL5e5vO_fR2GdEbkSNN0u_ZxVpvzftu2J01I5l3Gm_dwAUOe9bgu867PxowaEMSB_TO098HbzKDOrpzphAhSy_raCnneu6MvTLvGh40YvaqUiEP2rjDaOHCdKeSx8WSa4VTvI8CQW6lMNihw_9FkcP_V6t_2m00]--></g></svg>