<svg xmlns="http://www.w3.org/2000/svg" xmlns:xlink="http://www.w3.org/1999/xlink" contentStyleType="text/css" data-diagram-type="DESCRIPTION" height="709.6px" preserveAspectRatio="none" style="width:1328px;height:709px;background:#FFFFFF;" version="1.1" viewBox="0 0 1328 709" width="1328px" zoomAndPan="magnify"><?plantuml 1.2026.3beta4?><defs/><g><g class="title" data-source-line="32"><text fill="#000000" font-family="sans-serif" font-size="14.4" font-weight="700" lengthAdjust="spacing" textLength="380.482" x="470.959" y="21.3664">Merge folyamat - bet&#246;lt&#233;s &#233;s egyes&#237;t&#233;s l&#233;p&#233;sei</text></g><!--cluster A--><g class="cluster" data-qualified-name="A" data-source-line="34" id="ent0002"><path d="M6.8,79.0825 L112.0938,79.0825 A3,3 0 0 1 114.0938,81.0825 L119.6938,113.6825 L273.2,113.6825 A2,2 0 0 1 275.2,115.6825 L275.2,695.9785 A2,2 0 0 1 273.2,697.9785 L6.8,697.9785 A2,2 0 0 1 4.8,695.9785 L4.8,81.0825 A2,2 0 0 1 6.8,79.0825" fill="none" style="stroke:#000000;stroke-width:1.2;"/><line style="stroke:#000000;stroke-width:1.2;" x1="4.8" x2="119.6938" y1="113.6825" y2="113.6825"/><text fill="#000000" font-family="sans-serif" font-size="12.8" font-weight="700" lengthAdjust="spacing" textLength="60.7813" x="29.8563" y="92.5638">Forr&#225;s A</text><text fill="#000000" font-family="sans-serif" font-size="12.8" font-weight="700" lengthAdjust="spacing" textLength="104.4938" x="8" y="107.4638">(Steam CSV-k)</text></g><!--cluster B--><g class="cluster" data-qualified-name="B" data-source-line="45" id="ent0016"><path d="M581.2,94.2825 L642.6313,94.2825 A3,3 0 0 1 644.6313,96.2825 L650.2313,113.9825 L736.4,113.9825 A2,2 0 0 1 738.4,115.9825 L738.4,186.3785 A2,2 0 0 1 736.4,188.3785 L581.2,188.3785 A2,2 0 0 1 579.2,186.3785 L579.2,96.2825 A2,2 0 0 1 581.2,94.2825" fill="none" style="stroke:#000000;stroke-width:1.2;"/><line style="stroke:#000000;stroke-width:1.2;" x1="579.2" x2="650.2313" y1="113.9825" y2="113.9825"/><text fill="#000000" font-family="sans-serif" font-size="12.8" font-weight="700" lengthAdjust="spacing" textLength="60.6313" x="582.4" y="107.7638">Forr&#225;s B</text></g><!--cluster C--><g class="cluster" data-qualified-name="C" data-source-line="51" id="ent0020"><path d="M1027.6,79.0825 L1163.4625,79.0825 A3,3 0 0 1 1165.4625,81.0825 L1171.0625,113.6825 L1314,113.6825 A2,2 0 0 1 1316,115.6825 L1316,506.1785 A2,2 0 0 1 1314,508.1785 L1027.6,508.1785 A2,2 0 0 1 1025.6,506.1785 L1025.6,81.0825 A2,2 0 0 1 1027.6,79.0825" fill="none" style="stroke:#000000;stroke-width:1.2;"/><line style="stroke:#000000;stroke-width:1.2;" x1="1025.6" x2="1171.0625" y1="113.6825" y2="113.6825"/><text fill="#000000" font-family="sans-serif" font-size="12.8" font-weight="700" lengthAdjust="spacing" textLength="60.2688" x="1066.1969" y="92.5638">Forr&#225;s C</text><text fill="#000000" font-family="sans-serif" font-size="12.8" font-weight="700" lengthAdjust="spacing" textLength="135.0625" x="1028.8" y="107.4638">(2024-2025 CSV-k)</text></g><!--entity steam.csv--><g class="entity" data-qualified-name="A.steam.csv" data-source-line="35" id="ent0003"><rect fill="#F1F1F1" height="38.9" rx="2" ry="2" style="stroke:#181818;stroke-width:0.4;" width="97.225" x="88.184" y="130.2825"/><rect fill="#F1F1F1" height="8" style="stroke:#181818;stroke-width:0.4;" width="12" x="169.409" y="134.2825"/><rect fill="#F1F1F1" height="1.6" style="stroke:#181818;stroke-width:0.4;" width="3.2" x="167.809" y="135.8825"/><rect fill="#F1F1F1" height="1.6" style="stroke:#181818;stroke-width:0.4;" width="3.2" x="167.809" y="139.0825"/><text fill="#000000" font-family="sans-serif" font-size="12.8" lengthAdjust="spacing" textLength="65.225" x="100.184" y="158.1638">steam.csv</text></g><!--entity steam_description_data.csv--><g class="entity" data-qualified-name="A.steam_description_data.csv" data-source-line="35" id="ent0004"><rect fill="#F1F1F1" height="38.9" rx="2" ry="2" style="stroke:#181818;stroke-width:0.4;" width="210.025" x="31.784" y="235.8265"/><rect fill="#F1F1F1" height="8" style="stroke:#181818;stroke-width:0.4;" width="12" x="225.809" y="239.8265"/><rect fill="#F1F1F1" height="1.6" style="stroke:#181818;stroke-width:0.4;" width="3.2" x="224.209" y="241.4265"/><rect fill="#F1F1F1" height="1.6" style="stroke:#181818;stroke-width:0.4;" width="3.2" x="224.209" y="244.6265"/><text fill="#000000" font-family="sans-serif" font-size="12.8" lengthAdjust="spacing" textLength="178.025" x="43.784" y="263.7078">steam_description_data.csv</text></g><!--entity steam_media_data.csv--><g class="entity" data-qualified-name="A.steam_media_data.csv" data-source-line="36" id="ent0006"><rect fill="#F1F1F1" height="38.9" rx="2" ry="2" style="stroke:#181818;stroke-width:0.4;" width="178.725" x="47.44" y="351.4825"/><rect fill="#F1F1F1" height="8" style="stroke:#181818;stroke-width:0.4;" width="12" x="210.165" y="355.4825"/><rect fill="#F1F1F1" height="1.6" style="stroke:#181818;stroke-width:0.4;" width="3.2" x="208.565" y="357.0825"/><rect fill="#F1F1F1" height="1.6" style="stroke:#181818;stroke-width:0.4;" width="3.2" x="208.565" y="360.2825"/><text fill="#000000" font-family="sans-serif" font-size="12.8" lengthAdjust="spacing" textLength="146.725" x="59.44" y="379.3638">steam_media_data.csv</text></g><!--entity steam_support_info.csv--><g class="entity" data-qualified-name="A.steam_support_info.csv" data-source-line="37" id="ent0008"><rect fill="#F1F1F1" height="38.9" rx="2" ry="2" style="stroke:#181818;stroke-width:0.4;" width="183.175" x="45.216" y="450.0825"/><rect fill="#F1F1F1" height="8" style="stroke:#181818;stroke-width:0.4;" width="12" x="212.391" y="454.0825"/><rect fill="#F1F1F1" height="1.6" style="stroke:#181818;stroke-width:0.4;" width="3.2" x="210.791" y="455.6825"/><rect fill="#F1F1F1" height="1.6" style="stroke:#181818;stroke-width:0.4;" width="3.2" x="210.791" y="458.8825"/><text fill="#000000" font-family="sans-serif" font-size="12.8" lengthAdjust="spacing" textLength="151.175" x="57.216" y="477.9638">steam_support_info.csv</text></g><!--entity steamspy_tag_data.csv--><g class="entity" data-qualified-name="A.steamspy_tag_data.csv" data-source-line="38" id="ent0010"><rect fill="#F1F1F1" height="38.9" rx="2" ry="2" style="stroke:#181818;stroke-width:0.4;" width="182.2125" x="45.696" y="552.1785"/><rect fill="#F1F1F1" height="8" style="stroke:#181818;stroke-width:0.4;" width="12" x="211.9085" y="556.1785"/><rect fill="#F1F1F1" height="1.6" style="stroke:#181818;stroke-width:0.4;" width="3.2" x="210.3085" y="557.7785"/><rect fill="#F1F1F1" height="1.6" style="stroke:#181818;stroke-width:0.4;" width="3.2" x="210.3085" y="560.9785"/><text fill="#000000" font-family="sans-serif" font-size="12.8" lengthAdjust="spacing" textLength="150.2125" x="57.696" y="580.0598">steamspy_tag_data.csv</text></g><!--entity steam_requirements_data.csv--><g class="entity" data-qualified-name="A.steam_requirements_data.csv" data-source-line="39" id="ent0012"><rect fill="#F1F1F1" height="38.9" rx="2" ry="2" style="stroke:#181818;stroke-width:0.4;" width="225.0688" x="24.264" y="639.8825"/><rect fill="#F1F1F1" height="8" style="stroke:#181818;stroke-width:0.4;" width="12" x="233.3328" y="643.8825"/><rect fill="#F1F1F1" height="1.6" style="stroke:#181818;stroke-width:0.4;" width="3.2" x="231.7328" y="645.4825"/><rect fill="#F1F1F1" height="1.6" style="stroke:#181818;stroke-width:0.4;" width="3.2" x="231.7328" y="648.6825"/><text fill="#000000" font-family="sans-serif" font-size="12.8" lengthAdjust="spacing" textLength="193.0688" x="36.264" y="667.7638">steam_requirements_data.csv</text></g><!--entity B_json--><g class="entity" data-qualified-name="B.B_json" data-source-line="46" id="ent0017"><polygon fill="#FFFFFF" points="598.592,138.2825,606.592,130.2825,703.8108,130.2825,703.8108,161.1825,695.8108,169.1825,598.592,169.1825,598.592,138.2825" style="stroke:#4472C4;stroke-width:0.4;"/><line style="stroke:#4472C4;stroke-width:0.4;" x1="695.8108" x2="703.8108" y1="138.2825" y2="130.2825"/><line style="stroke:#4472C4;stroke-width:0.4;" x1="598.592" x2="695.8108" y1="138.2825" y2="138.2825"/><line style="stroke:#4472C4;stroke-width:0.4;" x1="695.8108" x2="695.8108" y1="138.2825" y2="169.1825"/><text fill="#000000" font-family="sans-serif" font-size="12.8" lengthAdjust="spacing" textLength="73.2188" x="610.592" y="158.1638">games.json</text></g><!--entity games_march2025_cleaned.csv--><g class="entity" data-qualified-name="C.games_march2025_cleaned.csv" data-source-line="52" id="ent0021"><rect fill="#F1F1F1" height="38.9" rx="2" ry="2" style="stroke:#181818;stroke-width:0.4;" width="236.8563" x="1059.968" y="130.2825"/><rect fill="#F1F1F1" height="8" style="stroke:#181818;stroke-width:0.4;" width="12" x="1280.8243" y="134.2825"/><rect fill="#F1F1F1" height="1.6" style="stroke:#181818;stroke-width:0.4;" width="3.2" x="1279.2243" y="135.8825"/><rect fill="#F1F1F1" height="1.6" style="stroke:#181818;stroke-width:0.4;" width="3.2" x="1279.2243" y="139.0825"/><text fill="#000000" font-family="sans-serif" font-size="12.8" lengthAdjust="spacing" textLength="204.8563" x="1071.968" y="158.1638">games_march2025_cleaned.csv</text></g><!--entity games_march2025_full.csv--><g class="entity" data-qualified-name="C.games_march2025_full.csv" data-source-line="52" id="ent0022"><rect fill="#F1F1F1" height="38.9" rx="2" ry="2" style="stroke:#181818;stroke-width:0.4;" width="206.1625" x="1075.32" y="235.8265"/><rect fill="#F1F1F1" height="8" style="stroke:#181818;stroke-width:0.4;" width="12" x="1265.4825" y="239.8265"/><rect fill="#F1F1F1" height="1.6" style="stroke:#181818;stroke-width:0.4;" width="3.2" x="1263.8825" y="241.4265"/><rect fill="#F1F1F1" height="1.6" style="stroke:#181818;stroke-width:0.4;" width="3.2" x="1263.8825" y="244.6265"/><text fill="#000000" font-family="sans-serif" font-size="12.8" lengthAdjust="spacing" textLength="174.1625" x="1087.32" y="263.7078">games_march2025_full.csv</text></g><!--entity games_may2024_cleaned.csv--><g class="entity" data-qualified-name="C.games_may2024_cleaned.csv" data-source-line="53" id="ent0024"><rect fill="#F1F1F1" height="38.9" rx="2" ry="2" style="stroke:#181818;stroke-width:0.4;" width="224.0188" x="1066.392" y="351.4825"/><rect fill="#F1F1F1" height="8" style="stroke:#181818;stroke-width:0.4;" width="12" x="1274.4108" y="355.4825"/><rect fill="#F1F1F1" height="1.6" style="stroke:#181818;stroke-width:0.4;" width="3.2" x="1272.8108" y="357.0825"/><rect fill="#F1F1F1" height="1.6" style="stroke:#181818;stroke-width:0.4;" width="3.2" x="1272.8108" y="360.2825"/><text fill="#000000" font-family="sans-serif" font-size="12.8" lengthAdjust="spacing" textLength="192.0188" x="1078.392" y="379.3638">games_may2024_cleaned.csv</text></g><!--entity games_may2024_full.csv--><g class="entity" data-qualified-name="C.games_may2024_full.csv" data-source-line="54" id="ent0026"><rect fill="#F1F1F1" height="38.9" rx="2" ry="2" style="stroke:#181818;stroke-width:0.4;" width="193.325" x="1081.736" y="450.0825"/><rect fill="#F1F1F1" height="8" style="stroke:#181818;stroke-width:0.4;" width="12" x="1259.061" y="454.0825"/><rect fill="#F1F1F1" height="1.6" style="stroke:#181818;stroke-width:0.4;" width="3.2" x="1257.461" y="455.6825"/><rect fill="#F1F1F1" height="1.6" style="stroke:#181818;stroke-width:0.4;" width="3.2" x="1257.461" y="458.8825"/><text fill="#000000" font-family="sans-serif" font-size="12.8" lengthAdjust="spacing" textLength="161.325" x="1093.736" y="477.9638">games_may2024_full.csv</text></g><!--entity A_merged--><g class="entity" data-qualified-name="A_merged" data-source-line="42" id="ent0014"><rect fill="#FCE4D6" height="45.8" rx="2" ry="2" style="stroke:#C00000;stroke-width:0.4;" width="209.2625" x="294.568" y="232.3785"/><text fill="#C00000" font-family="sans-serif" font-size="12.8" lengthAdjust="spacing" textLength="90.2375" x="302.568" y="252.2598">A_merged.csv</text><text fill="#C00000" font-family="sans-serif" font-size="12.8" lengthAdjust="spacing" textLength="193.2625" x="302.568" y="267.1598">(bels&#337; merge - load_source_a)</text></g><!--entity B_full--><g class="entity" data-qualified-name="B_full" data-source-line="48" id="ent0018"><rect fill="#FCE4D6" height="45.8" rx="2" ry="2" style="stroke:#C00000;stroke-width:0.4;" width="238.0688" x="532.168" y="232.3785"/><text fill="#C00000" font-family="sans-serif" font-size="12.8" lengthAdjust="spacing" textLength="60.2625" x="540.168" y="252.2598">B_full.csv</text><text fill="#C00000" font-family="sans-serif" font-size="12.8" lengthAdjust="spacing" textLength="222.0688" x="540.168" y="267.1598">(JSON feldolgoz&#225;s - load_source_b)</text></g><!--entity C_combined--><g class="entity" data-qualified-name="C_combined" data-source-line="57" id="ent0028"><rect fill="#FCE4D6" height="45.8" rx="2" ry="2" style="stroke:#C00000;stroke-width:0.4;" width="208.4563" x="798.168" y="232.3785"/><text fill="#C00000" font-family="sans-serif" font-size="12.8" lengthAdjust="spacing" textLength="103.8188" x="806.168" y="252.2598">C_combined.csv</text><text fill="#C00000" font-family="sans-serif" font-size="12.8" lengthAdjust="spacing" textLength="192.4563" x="806.168" y="267.1598">(bels&#337; merge - load_source_c)</text></g><!--entity D--><g class="entity" data-qualified-name="D" data-source-line="63" id="ent0032"><rect fill="#FCE4D6" height="60.7" rx="2" ry="2" style="stroke:#C00000;stroke-width:0.4;" width="169.625" x="566.384" y="340.5785"/><text fill="#C00000" font-family="sans-serif" font-size="12.8" lengthAdjust="spacing" textLength="9.8563" x="574.384" y="360.4598">D</text><text fill="#C00000" font-family="sans-serif" font-size="12.8" lengthAdjust="spacing" textLength="136.6063" x="574.384" y="375.3598">(merged_master.csv)</text><text fill="#C00000" font-family="sans-serif" font-size="12.8" lengthAdjust="spacing" textLength="153.625" x="574.384" y="390.2598">Egys&#233;ges rel&#225;ci&#243;s s&#233;ma</text></g><g class="entity" data-qualified-name="GMN33" data-source-line="66" id="ent0034"><path d="M764.2,340.8505 L764.2,367.7305 L736.128,370.9305 L764.2,374.1305 L764.2,401.0005 A0,0 0 0 0 764.2,401.0005 L880.5969,401.0005 A0,0 0 0 0 880.5969,401.0005 L880.5969,348.8505 L872.5969,340.8505 L764.2,340.8505 A0,0 0 0 0 764.2,340.8505" fill="#FEFFDD" style="stroke:#181818;stroke-width:0.4;"/><path d="M872.5969,340.8505 L872.5969,348.8505 L880.5969,348.8505 L872.5969,340.8505" fill="#FEFFDD" style="stroke:#181818;stroke-width:0.4;"/><text fill="#000000" font-family="sans-serif" font-size="11.2" lengthAdjust="spacing" textLength="89.5016" x="769" y="355.2466">Forr&#225;s-priorit&#225;s:</text><text fill="#000000" font-family="sans-serif" font-size="11.2" lengthAdjust="spacing" textLength="83.9617" x="772.5602" y="368.2841">C &#8594; els&#337;dleges</text><text fill="#000000" font-family="sans-serif" font-size="11.2" lengthAdjust="spacing" textLength="91.5305" x="772.5602" y="381.3216">B &#8594; m&#225;sodlagos</text><text fill="#000000" font-family="sans-serif" font-size="11.2" lengthAdjust="spacing" textLength="96.0367" x="772.5602" y="394.3591">A &#8594; hi&#225;nykit&#246;lt&#233;s</text></g><!--link steam.csv to steam_description_data.csv--><!--link steam_description_data.csv to steam_media_data.csv--><!--link steam_media_data.csv to steam_support_info.csv--><!--link steam_support_info.csv to steamspy_tag_data.csv--><!--link steamspy_tag_data.csv to steam_requirements_data.csv--><!--link A to A_merged--><g class="link" data-entity-1="ent0002" data-entity-2="ent0014" data-link-type="dependency" data-source-line="43" id="lnk15"><path d="M275.375,155.7688 C275.4569,155.8341 275.5395,155.8999 275.6227,155.9663 C275.7892,156.099 275.9584,156.2339 276.1303,156.3709 C277.5051,157.467 279.0499,158.6985 280.7443,160.0491 C287.5215,165.4518 296.691,172.761 306.946,180.9355 C327.456,197.2845 348.5548,214.1023 367.2948,229.0423" fill="none" id="A-to-A_merged" style="stroke:#C00000;stroke-width:1.6;"/><polygon fill="#C00000" points="371.048,232.0345,367.4129,225.0441,367.9203,229.541,363.4233,230.0484,371.048,232.0345" style="stroke:#C00000;stroke-width:1.6;"/></g><!--link B_json to B_full--><g class="link" data-entity-1="ent0017" data-entity-2="ent0018" data-link-type="dependency" data-source-line="49" id="lnk19"><path d="M651.2,169.3545 C651.2,187.0185 651.2,208.6665 651.2,227.3785" fill="none" id="B_json-to-B_full" style="stroke:#C00000;stroke-width:1.6;"/><polygon fill="#C00000" points="651.2,232.1785,654.4,224.9785,651.2,228.1785,648,224.9785,651.2,232.1785" style="stroke:#C00000;stroke-width:1.6;"/></g><!--link games_march2025_cleaned.csv to games_march2025_full.csv--><!--link games_march2025_full.csv to games_may2024_cleaned.csv--><!--link games_may2024_cleaned.csv to games_may2024_full.csv--><!--link C to C_combined--><g class="link" data-entity-1="ent0020" data-entity-2="ent0028" data-link-type="dependency" data-source-line="58" id="lnk29"><path d="M1025.4648,155.7688 C1025.3834,155.8341 1025.3013,155.8999 1025.2185,155.9663 C1025.0531,156.099 1024.8849,156.2339 1024.7141,156.3709 C1023.3477,157.467 1021.8125,158.6985 1020.1286,160.0491 C1013.3933,165.4518 1004.2805,172.761 994.089,180.9355 C973.706,197.2845 952.7522,214.091 934.1282,229.031" fill="none" id="C-to-C_combined" style="stroke:#C00000;stroke-width:1.6;"/><polygon fill="#C00000" points="930.384,232.0345,938.0026,230.0253,933.5041,229.5316,933.9979,225.0331,930.384,232.0345" style="stroke:#C00000;stroke-width:1.6;"/></g><!--link A to B--><!--link B to C--><!--link C_combined to D--><g class="link" data-entity-1="ent0028" data-entity-2="ent0032" data-link-type="dependency" data-source-line="72" id="lnk36"><path d="M853.072,278.4745 C814.208,296.1225 764.0345,318.8979 721.4345,338.2419" fill="none" id="C_combined-to-D" style="stroke:#C00000;stroke-width:1.6;"/><polygon fill="#C00000" points="717.064,340.2265,724.9428,340.1633,720.7061,338.5727,722.2967,334.3359,717.064,340.2265" style="stroke:#C00000;stroke-width:1.6;"/><text fill="#C00000" font-family="sans-serif" font-size="11.2" lengthAdjust="spacing" textLength="44.0836" x="800" y="313.3746">1. l&#233;p&#233;s</text></g><!--link B_full to D--><g class="link" data-entity-1="ent0018" data-entity-2="ent0032" data-link-type="dependency" data-source-line="73" id="lnk37"><path d="M651.2,278.3385 C651.2,296.0345 651.2,316.1545 651.2,335.5705" fill="none" id="B_full-to-D" style="stroke:#C00000;stroke-width:1.6;"/><polygon fill="#C00000" points="651.2,340.3705,654.4,333.1705,651.2,336.3705,648,333.1705,651.2,340.3705" style="stroke:#C00000;stroke-width:1.6;"/><text fill="#C00000" font-family="sans-serif" font-size="11.2" lengthAdjust="spacing" textLength="44.0836" x="652" y="313.3746">2. l&#233;p&#233;s</text></g><!--link A_merged to D--><g class="link" data-entity-1="ent0014" data-entity-2="ent0032" data-link-type="dependency" data-source-line="74" id="lnk38"><path d="M448.688,278.4745 C487.672,296.1225 538.0192,318.9028 580.7472,338.2468" fill="none" id="A_merged-to-D" style="stroke:#C00000;stroke-width:1.6;"/><polygon fill="#C00000" points="585.12,340.2265,579.8806,334.3419,581.476,338.5768,577.2411,340.1722,585.12,340.2265" style="stroke:#C00000;stroke-width:1.6;"/><text fill="#C00000" font-family="sans-serif" font-size="11.2" lengthAdjust="spacing" textLength="44.0836" x="532.8" y="313.3746">3. l&#233;p&#233;s</text></g><?plantuml-src ZLN1RjCm6BxxAQnoOOTKMobZsc5Iasu79E1G18TjYjpuRshgsC5scJh4bJkymOuxS4BY1I9UX2V1TjmrQLfOfRR9z_t-_i_-VziSPWORYHNBvmPJfY0pJ0faPEdWgJH65WrSPuG3FkoV8AGNJ9H44Kl3Z2ovkP32JDWjuAFZ1ccOuR2XJXgKaAR139kIKv8jSYMNWYQIIuLlvin0WtT-YCYjbyy8sq-y5V_a8ZaVZezhJYeAAk39eVjutANUZQvdyQLbbkvBzjwRwwGQ3byCak5MgfZRmVzCD9FSQeHK-uA8Kl8cn3nsPc_dB5i8q1eFjhI7LXlvGk5Ne79m7bQa80P7U0gc-iLDTQ-n-qA-0btzyE-ykY_jFp24WkdUXLIgkjDuT2MUJWnOfydaNRGuw65YmM3uKZkcd-bFrpYwd3DAGLnJUIEYGAKKTAPOwLekfSGG7ziOkpjWZrW1b97TCblK7W6zB4kfJCh4J7OaEkHk4LskKaFodJOwt1uV2ZukxKuiG1ZT4BArsso7tiXEofQGEiuMOGfS__w6FMQhoIMXgPPBbK5AGbN203J2KNIsUUtKDFRXSIYYtm-zd1IW-n-q53MPkaVhg64eJcTBpeETbvCth_4CE9KybxTEjUrfUX1qt1XKotbR0UcOIgpeu70mZEpFysQp9UjcynRJWgXixcBIZ0CHzVfq5texU6tzUhVM0xrNQENCjNAsbRhyVwGsZjfrJz9C5bCc7bFvB2pHmn2K-4Lk0AuRrZxyvH3X6CKTB6bv6DkqTVTOkxPdbRDoS2NEyvMkxdFGzjpcrLt6gfyQMwGWtiSO8NSLX4j8pYnGdq--n56fc5JCsCTJZzlI_ldw7VlfKGvMjePZ3nSsJb9ESXdWaOVdhBeJgmLR7sO81FKN44ARMUF8B_aP7kDJVDHV7t2eRhuMEzYmwntJufyzy7y1?></g></svg>