<?plantuml 1.2026.2beta3?><svg xmlns="http://www.w3.org/2000/svg" xmlns:xlink="http://www.w3.org/1999/xlink" contentStyleType="text/css" data-diagram-type="CLASS" height="463px" preserveAspectRatio="none" style="width:1237px;height:463px;background:#FFFFFF;" version="1.1" viewBox="0 0 1237 463" width="1237px" zoomAndPan="magnify"><title>Videogame Data Merge - r&#233;szletes OOP oszt&#225;lydiagram</title><defs/><g><g class="title" data-source-line="1"><text fill="#000000" font-family="sans-serif" font-size="14" font-weight="bold" lengthAdjust="spacing" textLength="437.582" x="392.7439" y="22.9951">Videogame Data Merge - r&#233;szletes OOP oszt&#225;lydiagram</text></g><!--class MergePipeline--><g class="entity" data-qualified-name="MergePipeline" data-source-line="5" id="ent0002"><rect fill="#F1F1F1" height="113.1875" rx="2.5" ry="2.5" style="stroke:#181818;stroke-width:0.5;" width="210.6045" x="435.59" y="44.2969"/><ellipse cx="487.1193" cy="60.2969" fill="#ADD1B2" rx="11" ry="11" style="stroke:#181818;stroke-width:1;"/><path d="M490.088,65.9375 Q489.5099,66.2344 488.8693,66.375 Q488.2287,66.5313 487.5255,66.5313 Q485.0255,66.5313 483.6974,64.8906 Q482.3849,63.2344 482.3849,60.1094 Q482.3849,56.9844 483.6974,55.3281 Q485.0255,53.6719 487.5255,53.6719 Q488.2287,53.6719 488.8693,53.8281 Q489.5255,53.9844 490.088,54.2813 L490.088,57 Q489.463,56.4219 488.8693,56.1563 Q488.2755,55.875 487.6505,55.875 Q486.3068,55.875 485.6193,56.9531 Q484.9318,58.0156 484.9318,60.1094 Q484.9318,62.2031 485.6193,63.2813 Q486.3068,64.3438 487.6505,64.3438 Q488.2755,64.3438 488.8693,64.0781 Q489.463,63.7969 490.088,63.2188 L490.088,65.9375 Z " fill="#000000"/><text fill="#000000" font-family="sans-serif" font-size="14" lengthAdjust="spacing" textLength="99.0459" x="507.6193" y="65.1436">MergePipeline</text><line style="stroke:#181818;stroke-width:0.5;" x1="436.59" x2="645.1945" y1="76.2969" y2="76.2969"/><text fill="#000000" font-family="sans-serif" font-size="14" lengthAdjust="spacing" textLength="198.6045" x="441.59" y="93.292">-sources : list&lt;DataSource&gt;</text><text fill="#000000" font-family="sans-serif" font-size="14" lengthAdjust="spacing" textLength="171.377" x="441.59" y="109.5889">-merger : MergerService</text><text fill="#000000" font-family="sans-serif" font-size="14" lengthAdjust="spacing" textLength="98.0137" x="441.59" y="125.8857">-io : IOService</text><line style="stroke:#181818;stroke-width:0.5;" x1="436.59" x2="645.1945" y1="133.1875" y2="133.1875"/><text fill="#000000" font-family="sans-serif" font-size="14" lengthAdjust="spacing" textLength="89.4004" x="441.59" y="150.1826">+run() : void</text></g><!--class DataSource--><g class="entity" data-qualified-name="DataSource" data-source-line="13" id="ent0003"><rect fill="#F1F1F1" height="64.2969" rx="2.5" ry="2.5" style="stroke:#181818;stroke-width:0.5;" width="215.793" x="7" y="242.6369"/><ellipse cx="69.7368" cy="258.6369" fill="#B4A7E5" rx="11" ry="11" style="stroke:#181818;stroke-width:1;"/><path d="M65.6587,254.4025 L65.6587,252.2463 L73.0493,252.2463 L73.0493,254.4025 L70.5806,254.4025 L70.5806,262.4806 L73.0493,262.4806 L73.0493,264.6369 L65.6587,264.6369 L65.6587,262.4806 L68.1274,262.4806 L68.1274,254.4025 L65.6587,254.4025 Z " fill="#000000"/><text fill="#000000" font-family="sans-serif" font-size="14" font-style="italic" lengthAdjust="spacing" textLength="81.8193" x="90.2368" y="263.4836">DataSource</text><line style="stroke:#181818;stroke-width:0.5;" x1="8" x2="221.793" y1="274.6369" y2="274.6369"/><line style="stroke:#181818;stroke-width:0.5;" x1="8" x2="221.793" y1="282.6369" y2="282.6369"/><text fill="#000000" font-family="sans-serif" font-size="14" lengthAdjust="spacing" textLength="203.793" x="13" y="299.632">+load(path: str) : DataFrame</text></g><!--class SourceA--><g class="entity" data-qualified-name="SourceA" data-source-line="17" id="ent0004"><rect fill="#F1F1F1" height="80.5938" rx="2.5" ry="2.5" style="stroke:#181818;stroke-width:0.5;" width="215.793" x="7" y="376.0869"/><ellipse cx="81.6621" cy="392.0869" fill="#ADD1B2" rx="11" ry="11" style="stroke:#181818;stroke-width:1;"/><path d="M84.6309,397.7275 Q84.0527,398.0244 83.4121,398.165 Q82.7715,398.3212 82.0684,398.3212 Q79.5684,398.3212 78.2402,396.6806 Q76.9277,395.0244 76.9277,391.8994 Q76.9277,388.7744 78.2402,387.1181 Q79.5684,385.4619 82.0684,385.4619 Q82.7715,385.4619 83.4121,385.6181 Q84.0684,385.7744 84.6309,386.0712 L84.6309,388.79 Q84.0059,388.2119 83.4121,387.9462 Q82.8184,387.665 82.1934,387.665 Q80.8496,387.665 80.1621,388.7431 Q79.4746,389.8056 79.4746,391.8994 Q79.4746,393.9931 80.1621,395.0712 Q80.8496,396.1337 82.1934,396.1337 Q82.8184,396.1337 83.4121,395.8681 Q84.0059,395.5869 84.6309,395.0087 L84.6309,397.7275 Z " fill="#000000"/><text fill="#000000" font-family="sans-serif" font-size="14" lengthAdjust="spacing" textLength="57.9688" x="102.1621" y="396.9336">SourceA</text><line style="stroke:#181818;stroke-width:0.5;" x1="8" x2="221.793" y1="408.0869" y2="408.0869"/><text fill="#000000" font-family="sans-serif" font-size="14" lengthAdjust="spacing" textLength="69.0361" x="13" y="425.082">-path : str</text><line style="stroke:#181818;stroke-width:0.5;" x1="8" x2="221.793" y1="432.3837" y2="432.3837"/><text fill="#000000" font-family="sans-serif" font-size="14" lengthAdjust="spacing" textLength="203.793" x="13" y="449.3789">+load(path: str) : DataFrame</text></g><!--class MergerService--><g class="entity" data-qualified-name="MergerService" data-source-line="22" id="ent0005"><rect fill="#F1F1F1" height="80.5938" rx="2.5" ry="2.5" style="stroke:#181818;stroke-width:0.5;" width="566.8594" x="257.47" y="234.4869"/><ellipse cx="485.927" cy="250.4869" fill="#ADD1B2" rx="11" ry="11" style="stroke:#181818;stroke-width:1;"/><path d="M488.8958,256.1275 Q488.3177,256.4244 487.677,256.565 Q487.0364,256.7213 486.3333,256.7213 Q483.8333,256.7213 482.5052,255.0806 Q481.1927,253.4244 481.1927,250.2994 Q481.1927,247.1744 482.5052,245.5181 Q483.8333,243.8619 486.3333,243.8619 Q487.0364,243.8619 487.677,244.0181 Q488.3333,244.1744 488.8958,244.4713 L488.8958,247.19 Q488.2708,246.6119 487.677,246.3463 Q487.0833,246.065 486.4583,246.065 Q485.1145,246.065 484.427,247.1431 Q483.7395,248.2056 483.7395,250.2994 Q483.7395,252.3931 484.427,253.4713 Q485.1145,254.5338 486.4583,254.5338 Q487.0833,254.5338 487.677,254.2681 Q488.2708,253.9869 488.8958,253.4088 L488.8958,256.1275 Z " fill="#000000"/><text fill="#000000" font-family="sans-serif" font-size="14" lengthAdjust="spacing" textLength="101.4453" x="506.427" y="255.3336">MergerService</text><line style="stroke:#181818;stroke-width:0.5;" x1="258.47" x2="823.3294" y1="266.4869" y2="266.4869"/><line style="stroke:#181818;stroke-width:0.5;" x1="258.47" x2="823.3294" y1="274.4869" y2="274.4869"/><text fill="#000000" font-family="sans-serif" font-size="14" lengthAdjust="spacing" textLength="525.6016" x="263.47" y="291.482">+merge_sources(a: DataFrame, b: DataFrame, c: DataFrame) : DataFrame</text><text fill="#000000" font-family="sans-serif" font-size="14" lengthAdjust="spacing" textLength="554.8594" x="263.47" y="307.7789">+merge_and_finalize(a: DataFrame, b: DataFrame, c: DataFrame) : DataFrame</text></g><!--class IOService--><g class="entity" data-qualified-name="IOService" data-source-line="27" id="ent0006"><rect fill="#F1F1F1" height="64.2969" rx="2.5" ry="2.5" style="stroke:#181818;stroke-width:0.5;" width="370.3398" x="859.73" y="242.6369"/><ellipse cx="1007.2051" cy="258.6369" fill="#ADD1B2" rx="11" ry="11" style="stroke:#181818;stroke-width:1;"/><path d="M1010.1738,264.2775 Q1009.5957,264.5744 1008.9551,264.715 Q1008.3145,264.8713 1007.6113,264.8713 Q1005.1113,264.8713 1003.7832,263.2306 Q1002.4707,261.5744 1002.4707,258.4494 Q1002.4707,255.3244 1003.7832,253.6681 Q1005.1113,252.0119 1007.6113,252.0119 Q1008.3145,252.0119 1008.9551,252.1681 Q1009.6113,252.3244 1010.1738,252.6213 L1010.1738,255.34 Q1009.5488,254.7619 1008.9551,254.4963 Q1008.3613,254.215 1007.7363,254.215 Q1006.3926,254.215 1005.7051,255.2931 Q1005.0176,256.3556 1005.0176,258.4494 Q1005.0176,260.5431 1005.7051,261.6213 Q1006.3926,262.6838 1007.7363,262.6838 Q1008.3613,262.6838 1008.9551,262.4181 Q1009.5488,262.1369 1010.1738,261.5588 L1010.1738,264.2775 Z " fill="#000000"/><text fill="#000000" font-family="sans-serif" font-size="14" lengthAdjust="spacing" textLength="66.8896" x="1027.7051" y="263.4836">IOService</text><line style="stroke:#181818;stroke-width:0.5;" x1="860.73" x2="1229.0698" y1="274.6369" y2="274.6369"/><line style="stroke:#181818;stroke-width:0.5;" x1="860.73" x2="1229.0698" y1="282.6369" y2="282.6369"/><text fill="#000000" font-family="sans-serif" font-size="14" lengthAdjust="spacing" textLength="358.3398" x="865.73" y="299.632">+save_merged(df: DataFrame, output_dir: str) : str</text></g><!--reverse link DataSource to SourceA--><g class="link" data-entity-1="ent0003" data-entity-2="ent0004" data-link-type="extension" data-source-line="31" id="lnk7"><path codeLine="31" d="M114.9,325.1169 C114.9,345.3669 114.9,353.9169 114.9,375.6469" fill="none" id="DataSource-backto-SourceA" style="stroke:#181818;stroke-width:1;stroke-dasharray:7,7;"/><polygon fill="none" points="114.9,307.1169,108.9,325.1169,120.9,325.1169,114.9,307.1169" style="stroke:#181818;stroke-width:1;"/></g><!--link MergePipeline to DataSource--><g class="link" data-entity-1="ent0002" data-entity-2="ent0003" data-link-type="dependency" data-source-line="32" id="lnk8"><path codeLine="32" d="M435.32,144.4969 C360.29,174.7669 266.7343,212.5222 198.7143,239.9622" fill="none" id="MergePipeline-to-DataSource" style="stroke:#181818;stroke-width:1;"/><polygon fill="#181818" points="193.15,242.2069,202.9929,242.5494,197.7869,240.3363,200,235.1303,193.15,242.2069" style="stroke:#181818;stroke-width:1;"/><text fill="#000000" font-family="sans-serif" font-size="13" lengthAdjust="spacing" textLength="29.7832" x="328.9" y="200.5538">uses</text><text fill="#000000" font-family="sans-serif" font-size="13" lengthAdjust="spacing" textLength="23.0356" x="182.8783" y="231.6465">1..*</text></g><!--link MergePipeline to MergerService--><g class="link" data-entity-1="ent0002" data-entity-2="ent0005" data-link-type="dependency" data-source-line="33" id="lnk9"><path codeLine="33" d="M540.9,157.7069 C540.9,182.6069 540.9,205.3669 540.9,228.0369" fill="none" id="MergePipeline-to-MergerService" style="stroke:#181818;stroke-width:1;"/><polygon fill="#181818" points="540.9,234.0369,544.9,225.0369,540.9,229.0369,536.9,225.0369,540.9,234.0369" style="stroke:#181818;stroke-width:1;"/></g><!--link MergePipeline to IOService--><g class="link" data-entity-1="ent0002" data-entity-2="ent0006" data-link-type="dependency" data-source-line="34" id="lnk10"><path codeLine="34" d="M646.55,137.9269 C737.04,168.7969 860.3812,210.8601 946.8212,240.3401" fill="none" id="MergePipeline-to-IOService" style="stroke:#181818;stroke-width:1;"/><polygon fill="#181818" points="952.5,242.2769,945.2729,235.5859,947.7676,240.6629,942.6906,243.1576,952.5,242.2769" style="stroke:#181818;stroke-width:1;"/></g><?plantuml-src dL5DIyD04BtlhnXwYjO4lPPIA8ZGWxHGy1gcsMaTt6R3xgPWrH_ZqT_HF-P-s91W3-9jTzwyDs_UE7QAu8abwHtk2UxH8JoIsH7aO4vVzgZ8aONbSWNQ7jtfKxrAnft1lH3sXUi6_HCgXTREdJEyQHqjAbsl-KXmAqH4akAA6r9S4xm9WDpgrbHUUGAAhPk6mUjOcWLq7mZ6Wv5frcGEN550MFlgOdck-DBOj7LsvQi7pL9y2C6r8xF5AgsJLEFGiT8eimRTymIiCu4JEXxy2XI8oMmYp9FDq0on-y_yWUKqDwvJ_goSOOzs0vl1h-hzXlgT3DQot7ADoaVyJwtEQnTaycdnG6MS8ZEv7OZfrZMjAoMRRlSGYbVgXJnzBufpVc9uz3oVmUYkAAv7_QjCeBLaBxGEx_uRxun_0m00?></g></svg>