<svg xmlns="http://www.w3.org/2000/svg" xmlns:xlink="http://www.w3.org/1999/xlink" contentStyleType="text/css" data-diagram-type="CLASS" height="771px" preserveAspectRatio="none" style="width:944px;height:771px;background:#FFFFFF;" version="1.1" viewBox="0 0 944 771" width="944px" zoomAndPan="magnify"><?plantuml 1.2026.3beta4?><defs/><g><g class="title" data-source-line="1"><text fill="#000000" font-family="sans-serif" font-size="14" font-weight="700" lengthAdjust="spacing" textLength="411.4209" x="263.1496" y="22.9951">Videogame Data Merge - implement&#225;ci&#243;s &#225;ttekint&#233;s</text></g><!--cluster merge--><g class="cluster" data-qualified-name="merge" data-source-line="24" id="ent0002"><rect fill="#FFF2CC" height="713.41" rx="2.5" ry="2.5" style="stroke:#BF9000;stroke-width:1.5;" width="919" x="7" y="44.2969"/><text fill="#000000" font-family="sans-serif" font-size="12" font-weight="700" lengthAdjust="spacing" textLength="43.2891" x="444.8555" y="57.4355">merge</text></g><!--cluster sources--><g class="cluster" data-qualified-name="merge.sources" data-source-line="34" id="ent0005"><rect fill="#FFF2CC" height="163.84" rx="2.5" ry="2.5" style="stroke:#BF9000;stroke-width:1.5;" width="725" x="127" y="192.2069"/><text fill="#000000" font-family="sans-serif" font-size="12" font-weight="700" lengthAdjust="spacing" textLength="52.2422" x="463.3789" y="205.3455">sources</text></g><!--cluster utils--><g class="cluster" data-qualified-name="merge.utils" data-source-line="56" id="ent0010"><rect fill="#FFF2CC" height="353.66" rx="2.5" ry="2.5" style="stroke:#BF9000;stroke-width:1.5;" width="776" x="126" y="380.0469"/><text fill="#000000" font-family="sans-serif" font-size="12" font-weight="700" lengthAdjust="spacing" textLength="29.6484" x="499.1758" y="393.1855">utils</text></g><!--class Main--><g class="entity" data-qualified-name="merge.Main" data-source-line="26" id="ent0003"><rect fill="#F8F8F8" height="87.9063" rx="2.5" ry="2.5" style="stroke:#4472C4;stroke-width:0.5;" width="131.3027" x="543.35" y="76.2969"/><ellipse cx="572.7537" cy="91.2969" fill="#ADD1B2" rx="10" ry="10" style="stroke:#181818;stroke-width:1;"/><path d="M574.5818,95.5469 Q574.1756,95.75 573.7225,95.8594 Q573.2693,95.9688 572.785,95.9688 Q571.0037,95.9688 570.0662,94.8125 Q569.1443,93.6406 569.1443,91.4375 Q569.1443,89.2188 570.0662,88.0625 Q571.0037,86.8906 572.785,86.8906 Q573.2693,86.8906 573.7225,87 Q574.1912,87.0938 574.5818,87.3125 L574.5818,89.2344 Q574.1443,88.8281 573.7225,88.6406 Q573.3006,88.4375 572.8631,88.4375 Q571.91,88.4375 571.4256,89.2031 Q570.9412,89.9531 570.9412,91.4375 Q570.9412,92.9063 571.4256,93.6563 Q571.91,94.4063 572.8631,94.4063 Q573.3006,94.4063 573.7225,94.2188 Q574.1443,94.0313 574.5818,93.625 L574.5818,95.5469 Z " fill="#000000"/><text fill="#000000" font-family="sans-serif" font-size="12" lengthAdjust="spacing" textLength="67.0723" x="589.1768" y="95.4512">main.ipynb</text><line style="stroke:#4472C4;stroke-width:0.5;" x1="544.35" x2="673.6527" y1="106.2969" y2="106.2969"/><text fill="#000000" font-family="sans-serif" font-size="12" lengthAdjust="spacing" textLength="111.5449" x="549.35" y="121.4355">+pipeline vez&#233;rl&#233;s</text><text fill="#000000" font-family="sans-serif" font-size="12" lengthAdjust="spacing" textLength="119.3027" x="549.35" y="135.4043">+forr&#225;sok bet&#246;lt&#233;se</text><text fill="#000000" font-family="sans-serif" font-size="12" lengthAdjust="spacing" textLength="107.1328" x="549.35" y="149.373">+merge futtat&#225;sa</text><line style="stroke:#4472C4;stroke-width:0.5;" x1="544.35" x2="673.6527" y1="156.2031" y2="156.2031"/></g><!--class Config--><g class="entity" data-qualified-name="merge.Config" data-source-line="32" id="ent0004"><rect fill="#F8F8F8" height="46" rx="2.5" ry="2.5" style="stroke:#4472C4;stroke-width:0.5;" width="85.2539" x="23.37" y="259.1269"/><ellipse cx="37.37" cy="274.1269" fill="#ADD1B2" rx="10" ry="10" style="stroke:#181818;stroke-width:1;"/><path d="M39.1981,278.3769 Q38.7919,278.58 38.3388,278.6894 Q37.8856,278.7987 37.4013,278.7987 Q35.62,278.7987 34.6825,277.6425 Q33.7606,276.4706 33.7606,274.2675 Q33.7606,272.0487 34.6825,270.8925 Q35.62,269.7206 37.4013,269.7206 Q37.8856,269.7206 38.3388,269.83 Q38.8075,269.9237 39.1981,270.1425 L39.1981,272.0644 Q38.7606,271.6581 38.3388,271.4706 Q37.9169,271.2675 37.4794,271.2675 Q36.5263,271.2675 36.0419,272.0331 Q35.5575,272.7831 35.5575,274.2675 Q35.5575,275.7362 36.0419,276.4862 Q36.5263,277.2362 37.4794,277.2362 Q37.9169,277.2362 38.3388,277.0487 Q38.7606,276.8612 39.1981,276.455 L39.1981,278.3769 Z " fill="#000000"/><text fill="#000000" font-family="sans-serif" font-size="12" lengthAdjust="spacing" textLength="55.2539" x="50.37" y="278.2812">config.py</text><line style="stroke:#4472C4;stroke-width:0.5;" x1="24.37" x2="107.6239" y1="289.1269" y2="289.1269"/><line style="stroke:#4472C4;stroke-width:0.5;" x1="24.37" x2="107.6239" y1="297.1269" y2="297.1269"/></g><!--class CleanDesc--><g class="entity" data-qualified-name="merge.sources.CleanDesc" data-source-line="35" id="ent0006"><rect fill="#F8F8F8" height="115.8438" rx="2.5" ry="2.5" style="stroke:#4472C4;stroke-width:0.5;" width="203.6602" x="143.17" y="224.2069"/><ellipse cx="179.7298" cy="239.2069" fill="#ADD1B2" rx="10" ry="10" style="stroke:#181818;stroke-width:1;"/><path d="M181.5579,243.4569 Q181.1516,243.66 180.6985,243.7694 Q180.2454,243.8787 179.761,243.8787 Q177.9798,243.8787 177.0423,242.7225 Q176.1204,241.5506 176.1204,239.3475 Q176.1204,237.1287 177.0423,235.9725 Q177.9798,234.8006 179.761,234.8006 Q180.2454,234.8006 180.6985,234.91 Q181.1673,235.0037 181.5579,235.2225 L181.5579,237.1444 Q181.1204,236.7381 180.6985,236.5506 Q180.2766,236.3475 179.8391,236.3475 Q178.886,236.3475 178.4016,237.1131 Q177.9173,237.8631 177.9173,239.3475 Q177.9173,240.8162 178.4016,241.5662 Q178.886,242.3162 179.8391,242.3162 Q180.2766,242.3162 180.6985,242.1287 Q181.1204,241.9412 181.5579,241.535 L181.5579,243.4569 Z " fill="#000000"/><text fill="#000000" font-family="sans-serif" font-size="12" lengthAdjust="spacing" textLength="123.5273" x="197.743" y="243.3612">clean_description.py</text><line style="stroke:#4472C4;stroke-width:0.5;" x1="144.17" x2="345.8302" y1="254.2069" y2="254.2069"/><line style="stroke:#4472C4;stroke-width:0.5;" x1="144.17" x2="345.8302" y1="262.2069" y2="262.2069"/><text fill="#000000" font-family="sans-serif" font-size="12" lengthAdjust="spacing" textLength="191.6602" x="149.17" y="277.3455">+read_and_fix_multiline_csv(...)</text><text fill="#000000" font-family="sans-serif" font-size="12" lengthAdjust="spacing" textLength="126.3633" x="149.17" y="291.3143">+clean_html_text(...)</text><text fill="#000000" font-family="sans-serif" font-size="12" lengthAdjust="spacing" textLength="91.0371" x="149.17" y="305.283">+strip_html(...)</text><text fill="#000000" font-family="sans-serif" font-size="12" lengthAdjust="spacing" textLength="182.9883" x="149.17" y="319.2518">+process_description_data(...)</text><text fill="#000000" font-family="sans-serif" font-size="12" lengthAdjust="spacing" textLength="49.4004" x="149.17" y="333.2205">+main()</text></g><!--class SourceA--><g class="entity" data-qualified-name="merge.sources.SourceA" data-source-line="43" id="ent0007"><rect fill="#F8F8F8" height="59.9688" rx="2.5" ry="2.5" style="stroke:#4472C4;stroke-width:0.5;" width="127.9746" x="382.01" y="252.1469"/><ellipse cx="407.6986" cy="267.1469" fill="#ADD1B2" rx="10" ry="10" style="stroke:#181818;stroke-width:1;"/><path d="M409.5267,271.3969 Q409.1204,271.6 408.6673,271.7094 Q408.2142,271.8188 407.7298,271.8188 Q405.9486,271.8188 405.0111,270.6625 Q404.0892,269.4906 404.0892,267.2875 Q404.0892,265.0688 405.0111,263.9125 Q405.9486,262.7406 407.7298,262.7406 Q408.2142,262.7406 408.6673,262.85 Q409.1361,262.9438 409.5267,263.1625 L409.5267,265.0844 Q409.0892,264.6781 408.6673,264.4906 Q408.2454,264.2875 407.8079,264.2875 Q406.8548,264.2875 406.3704,265.0531 Q405.8861,265.8031 405.8861,267.2875 Q405.8861,268.7563 406.3704,269.5063 Q406.8548,270.2563 407.8079,270.2563 Q408.2454,270.2563 408.6673,270.0688 Q409.0892,269.8813 409.5267,269.475 L409.5267,271.3969 Z " fill="#000000"/><text fill="#000000" font-family="sans-serif" font-size="12" lengthAdjust="spacing" textLength="72" x="423.296" y="271.3012">source_a.py</text><line style="stroke:#4472C4;stroke-width:0.5;" x1="383.01" x2="508.9846" y1="282.1469" y2="282.1469"/><line style="stroke:#4472C4;stroke-width:0.5;" x1="383.01" x2="508.9846" y1="290.1469" y2="290.1469"/><text fill="#000000" font-family="sans-serif" font-size="12" lengthAdjust="spacing" textLength="115.9746" x="388.01" y="305.2855">+load_source_a(...)</text></g><!--class SourceB--><g class="entity" data-qualified-name="merge.sources.SourceB" data-source-line="47" id="ent0008"><rect fill="#F8F8F8" height="59.9688" rx="2.5" ry="2.5" style="stroke:#4472C4;stroke-width:0.5;" width="128.2383" x="544.88" y="252.1469"/><ellipse cx="570.5686" cy="267.1469" fill="#ADD1B2" rx="10" ry="10" style="stroke:#181818;stroke-width:1;"/><path d="M572.3967,271.3969 Q571.9904,271.6 571.5373,271.7094 Q571.0842,271.8188 570.5998,271.8188 Q568.8186,271.8188 567.8811,270.6625 Q566.9592,269.4906 566.9592,267.2875 Q566.9592,265.0688 567.8811,263.9125 Q568.8186,262.7406 570.5998,262.7406 Q571.0842,262.7406 571.5373,262.85 Q572.0061,262.9438 572.3967,263.1625 L572.3967,265.0844 Q571.9592,264.6781 571.5373,264.4906 Q571.1154,264.2875 570.6779,264.2875 Q569.7248,264.2875 569.2404,265.0531 Q568.7561,265.8031 568.7561,267.2875 Q568.7561,268.7563 569.2404,269.5063 Q569.7248,270.2563 570.6779,270.2563 Q571.1154,270.2563 571.5373,270.0688 Q571.9592,269.8813 572.3967,269.475 L572.3967,271.3969 Z " fill="#000000"/><text fill="#000000" font-family="sans-serif" font-size="12" lengthAdjust="spacing" textLength="72.2637" x="586.166" y="271.3012">source_b.py</text><line style="stroke:#4472C4;stroke-width:0.5;" x1="545.88" x2="672.1183" y1="282.1469" y2="282.1469"/><line style="stroke:#4472C4;stroke-width:0.5;" x1="545.88" x2="672.1183" y1="290.1469" y2="290.1469"/><text fill="#000000" font-family="sans-serif" font-size="12" lengthAdjust="spacing" textLength="116.2383" x="550.88" y="305.2855">+load_source_b(...)</text></g><!--class SourceC--><g class="entity" data-qualified-name="merge.sources.SourceC" data-source-line="51" id="ent0009"><rect fill="#F8F8F8" height="59.9688" rx="2.5" ry="2.5" style="stroke:#4472C4;stroke-width:0.5;" width="127.2188" x="708.39" y="252.1469"/><ellipse cx="734.0786" cy="267.1469" fill="#ADD1B2" rx="10" ry="10" style="stroke:#181818;stroke-width:1;"/><path d="M735.9067,271.3969 Q735.5004,271.6 735.0473,271.7094 Q734.5942,271.8188 734.1098,271.8188 Q732.3286,271.8188 731.3911,270.6625 Q730.4692,269.4906 730.4692,267.2875 Q730.4692,265.0688 731.3911,263.9125 Q732.3286,262.7406 734.1098,262.7406 Q734.5942,262.7406 735.0473,262.85 Q735.5161,262.9438 735.9067,263.1625 L735.9067,265.0844 Q735.4692,264.6781 735.0473,264.4906 Q734.6254,264.2875 734.1879,264.2875 Q733.2348,264.2875 732.7504,265.0531 Q732.2661,265.8031 732.2661,267.2875 Q732.2661,268.7563 732.7504,269.5063 Q733.2348,270.2563 734.1879,270.2563 Q734.6254,270.2563 735.0473,270.0688 Q735.4692,269.8813 735.9067,269.475 L735.9067,271.3969 Z " fill="#000000"/><text fill="#000000" font-family="sans-serif" font-size="12" lengthAdjust="spacing" textLength="71.2441" x="749.676" y="271.3012">source_c.py</text><line style="stroke:#4472C4;stroke-width:0.5;" x1="709.39" x2="834.6088" y1="282.1469" y2="282.1469"/><line style="stroke:#4472C4;stroke-width:0.5;" x1="709.39" x2="834.6088" y1="290.1469" y2="290.1469"/><text fill="#000000" font-family="sans-serif" font-size="12" lengthAdjust="spacing" textLength="115.2188" x="714.39" y="305.2855">+load_source_c(...)</text></g><!--class CatUtils--><g class="entity" data-qualified-name="merge.utils.CatUtils" data-source-line="57" id="ent0011"><rect fill="#F8F8F8" height="129.8125" rx="2.5" ry="2.5" style="stroke:#4472C4;stroke-width:0.5;" width="222.1465" x="663.93" y="580.9069"/><ellipse cx="719.6048" cy="595.9069" fill="#ADD1B2" rx="10" ry="10" style="stroke:#181818;stroke-width:1;"/><path d="M721.4329,600.1569 Q721.0267,600.36 720.5736,600.4694 Q720.1204,600.5788 719.6361,600.5788 Q717.8548,600.5788 716.9173,599.4225 Q715.9954,598.2506 715.9954,596.0475 Q715.9954,593.8288 716.9173,592.6725 Q717.8548,591.5006 719.6361,591.5006 Q720.1204,591.5006 720.5736,591.61 Q721.0423,591.7038 721.4329,591.9225 L721.4329,593.8444 Q720.9954,593.4381 720.5736,593.2506 Q720.1517,593.0475 719.7142,593.0475 Q718.7611,593.0475 718.2767,593.8131 Q717.7923,594.5631 717.7923,596.0475 Q717.7923,597.5163 718.2767,598.2663 Q718.7611,599.0163 719.7142,599.0163 Q720.1517,599.0163 720.5736,598.8288 Q720.9954,598.6413 721.4329,598.235 L721.4329,600.1569 Z " fill="#000000"/><text fill="#000000" font-family="sans-serif" font-size="12" lengthAdjust="spacing" textLength="102.7969" x="738.6048" y="600.0612">category_utils.py</text><line style="stroke:#4472C4;stroke-width:0.5;" x1="664.93" x2="885.0765" y1="610.9069" y2="610.9069"/><line style="stroke:#4472C4;stroke-width:0.5;" x1="664.93" x2="885.0765" y1="618.9069" y2="618.9069"/><text fill="#000000" font-family="sans-serif" font-size="12" lengthAdjust="spacing" textLength="111.9551" x="669.93" y="634.0455">+combine_cols(...)</text><text fill="#000000" font-family="sans-serif" font-size="12" lengthAdjust="spacing" textLength="210.1465" x="669.93" y="648.0143">+merge_developers_publishers(...)</text><text fill="#000000" font-family="sans-serif" font-size="12" lengthAdjust="spacing" textLength="133.3008" x="669.93" y="661.983">+parse_categories(...)</text><text fill="#000000" font-family="sans-serif" font-size="12" lengthAdjust="spacing" textLength="151.3301" x="669.93" y="675.9518">+combine_categories(...)</text><text fill="#000000" font-family="sans-serif" font-size="12" lengthAdjust="spacing" textLength="138.7676" x="669.93" y="689.9205">+merge_categories(...)</text><text fill="#000000" font-family="sans-serif" font-size="12" lengthAdjust="spacing" textLength="151.9688" x="669.93" y="703.8893">+merge_tags_column(...)</text></g><!--class CleanUtils--><g class="entity" data-qualified-name="merge.utils.CleanUtils" data-source-line="66" id="ent0012"><rect fill="#F8F8F8" height="101.875" rx="2.5" ry="2.5" style="stroke:#4472C4;stroke-width:0.5;" width="221.5195" x="142.24" y="594.8769"/><ellipse cx="207.9812" cy="609.8769" fill="#ADD1B2" rx="10" ry="10" style="stroke:#181818;stroke-width:1;"/><path d="M209.8093,614.1269 Q209.4031,614.33 208.95,614.4394 Q208.4968,614.5487 208.0125,614.5487 Q206.2312,614.5487 205.2937,613.3925 Q204.3718,612.2206 204.3718,610.0175 Q204.3718,607.7987 205.2937,606.6425 Q206.2312,605.4706 208.0125,605.4706 Q208.4968,605.4706 208.95,605.58 Q209.4187,605.6737 209.8093,605.8925 L209.8093,607.8144 Q209.3718,607.4081 208.95,607.2206 Q208.5281,607.0175 208.0906,607.0175 Q207.1375,607.0175 206.6531,607.7831 Q206.1687,608.5331 206.1687,610.0175 Q206.1687,611.4862 206.6531,612.2362 Q207.1375,612.9862 208.0906,612.9862 Q208.5281,612.9862 208.95,612.7987 Q209.3718,612.6112 209.8093,612.205 L209.8093,614.1269 Z " fill="#000000"/><text fill="#000000" font-family="sans-serif" font-size="12" lengthAdjust="spacing" textLength="82.0371" x="226.9812" y="614.0312">clean_utils.py</text><line style="stroke:#4472C4;stroke-width:0.5;" x1="143.24" x2="362.7595" y1="624.8769" y2="624.8769"/><line style="stroke:#4472C4;stroke-width:0.5;" x1="143.24" x2="362.7595" y1="632.8769" y2="632.8769"/><text fill="#000000" font-family="sans-serif" font-size="12" lengthAdjust="spacing" textLength="119.5605" x="148.24" y="648.0155">+clean_columns(...)</text><text fill="#000000" font-family="sans-serif" font-size="12" lengthAdjust="spacing" textLength="209.5195" x="148.24" y="661.9843">+clean_language_field_merged(...)</text><text fill="#000000" font-family="sans-serif" font-size="12" lengthAdjust="spacing" textLength="180.4805" x="148.24" y="675.953">+final_clean_language_list(...)</text><text fill="#000000" font-family="sans-serif" font-size="12" lengthAdjust="spacing" textLength="147.1699" x="148.24" y="689.9218">+clean_html_entities(...)</text></g><!--class IOUtils--><g class="entity" data-qualified-name="merge.utils.IOUtils" data-source-line="73" id="ent0013"><rect fill="#F8F8F8" height="101.875" rx="2.5" ry="2.5" style="stroke:#4472C4;stroke-width:0.5;" width="179.6895" x="473.16" y="412.0469"/><ellipse cx="528.785" cy="427.0469" fill="#ADD1B2" rx="10" ry="10" style="stroke:#181818;stroke-width:1;"/><path d="M530.6131,431.2969 Q530.2069,431.5 529.7538,431.6094 Q529.3006,431.7187 528.8163,431.7187 Q527.035,431.7187 526.0975,430.5625 Q525.1756,429.3906 525.1756,427.1875 Q525.1756,424.9687 526.0975,423.8125 Q527.035,422.6406 528.8163,422.6406 Q529.3006,422.6406 529.7538,422.75 Q530.2225,422.8437 530.6131,423.0625 L530.6131,424.9844 Q530.1756,424.5781 529.7538,424.3906 Q529.3319,424.1875 528.8944,424.1875 Q527.9413,424.1875 527.4569,424.9531 Q526.9725,425.7031 526.9725,427.1875 Q526.9725,428.6562 527.4569,429.4062 Q527.9413,430.1562 528.8944,430.1562 Q529.3319,430.1562 529.7538,429.9687 Q530.1756,429.7812 530.6131,429.375 L530.6131,431.2969 Z " fill="#000000"/><text fill="#000000" font-family="sans-serif" font-size="12" lengthAdjust="spacing" textLength="60.4395" x="547.785" y="431.2012">io_utils.py</text><line style="stroke:#4472C4;stroke-width:0.5;" x1="474.16" x2="651.8495" y1="442.0469" y2="442.0469"/><line style="stroke:#4472C4;stroke-width:0.5;" x1="474.16" x2="651.8495" y1="450.0469" y2="450.0469"/><text fill="#000000" font-family="sans-serif" font-size="12" lengthAdjust="spacing" textLength="124.1074" x="479.16" y="465.1855">+load_csv_safely(...)</text><text fill="#000000" font-family="sans-serif" font-size="12" lengthAdjust="spacing" textLength="111.5742" x="479.16" y="479.1543">+save_merged(...)</text><text fill="#000000" font-family="sans-serif" font-size="12" lengthAdjust="spacing" textLength="167.6895" x="479.16" y="493.123">+save_source_summary(...)</text><text fill="#000000" font-family="sans-serif" font-size="12" lengthAdjust="spacing" textLength="135.7617" x="479.16" y="507.0918">+validate_integrity(...)</text></g><!--class MergeUtils--><g class="entity" data-qualified-name="merge.utils.MergeUtils" data-source-line="80" id="ent0014"><rect fill="#F8F8F8" height="101.875" rx="2.5" ry="2.5" style="stroke:#4472C4;stroke-width:0.5;" width="189.4746" x="688.26" y="412.0469"/><ellipse cx="734.6125" cy="427.0469" fill="#ADD1B2" rx="10" ry="10" style="stroke:#181818;stroke-width:1;"/><path d="M736.4407,431.2969 Q736.0344,431.5 735.5813,431.6094 Q735.1282,431.7187 734.6438,431.7187 Q732.8625,431.7187 731.925,430.5625 Q731.0032,429.3906 731.0032,427.1875 Q731.0032,424.9687 731.925,423.8125 Q732.8625,422.6406 734.6438,422.6406 Q735.1282,422.6406 735.5813,422.75 Q736.05,422.8437 736.4407,423.0625 L736.4407,424.9844 Q736.0032,424.5781 735.5813,424.3906 Q735.1594,424.1875 734.7219,424.1875 Q733.7688,424.1875 733.2844,424.9531 Q732.8,425.7031 732.8,427.1875 Q732.8,428.6562 733.2844,429.4062 Q733.7688,430.1562 734.7219,430.1562 Q735.1594,430.1562 735.5813,429.9687 Q736.0032,429.7812 736.4407,429.375 L736.4407,431.2969 Z " fill="#000000"/><text fill="#000000" font-family="sans-serif" font-size="12" lengthAdjust="spacing" textLength="88.7695" x="753.6125" y="431.2012">merge_utils.py</text><line style="stroke:#4472C4;stroke-width:0.5;" x1="689.26" x2="876.7346" y1="442.0469" y2="442.0469"/><line style="stroke:#4472C4;stroke-width:0.5;" x1="689.26" x2="876.7346" y1="450.0469" y2="450.0469"/><text fill="#000000" font-family="sans-serif" font-size="12" lengthAdjust="spacing" textLength="177.4746" x="694.26" y="465.1855">+fill_missing_from_source(...)</text><text fill="#000000" font-family="sans-serif" font-size="12" lengthAdjust="spacing" textLength="122.2324" x="694.26" y="479.1543">+merge_sources(...)</text><text fill="#000000" font-family="sans-serif" font-size="12" lengthAdjust="spacing" textLength="126.0938" x="694.26" y="493.123">+finalize_sources(...)</text><text fill="#000000" font-family="sans-serif" font-size="12" lengthAdjust="spacing" textLength="147.3105" x="694.26" y="507.0918">+merge_and_finalize(...)</text></g><!--class NormUtils--><g class="entity" data-qualified-name="merge.utils.NormUtils" data-source-line="87" id="ent0015"><rect fill="#F8F8F8" height="143.7813" rx="2.5" ry="2.5" style="stroke:#4472C4;stroke-width:0.5;" width="230.6191" x="398.69" y="573.9269"/><ellipse cx="455.481" cy="588.9269" fill="#ADD1B2" rx="10" ry="10" style="stroke:#181818;stroke-width:1;"/><path d="M457.3091,593.1769 Q456.9029,593.38 456.4498,593.4894 Q455.9966,593.5988 455.5123,593.5988 Q453.731,593.5988 452.7935,592.4425 Q451.8716,591.2706 451.8716,589.0675 Q451.8716,586.8488 452.7935,585.6925 Q453.731,584.5206 455.5123,584.5206 Q455.9966,584.5206 456.4498,584.63 Q456.9185,584.7238 457.3091,584.9425 L457.3091,586.8644 Q456.8716,586.4581 456.4498,586.2706 Q456.0279,586.0675 455.5904,586.0675 Q454.6373,586.0675 454.1529,586.8331 Q453.6685,587.5831 453.6685,589.0675 Q453.6685,590.5363 454.1529,591.2863 Q454.6373,592.0363 455.5904,592.0363 Q456.0279,592.0363 456.4498,591.8488 Q456.8716,591.6613 457.3091,591.255 L457.3091,593.1769 Z " fill="#000000"/><text fill="#000000" font-family="sans-serif" font-size="12" lengthAdjust="spacing" textLength="109.0371" x="474.481" y="593.0812">normalize_utils.py</text><line style="stroke:#4472C4;stroke-width:0.5;" x1="399.69" x2="628.3091" y1="603.9269" y2="603.9269"/><line style="stroke:#4472C4;stroke-width:0.5;" x1="399.69" x2="628.3091" y1="611.9269" y2="611.9269"/><text fill="#000000" font-family="sans-serif" font-size="12" lengthAdjust="spacing" textLength="172.2363" x="404.69" y="627.0655">+normalize_tags_column(...)</text><text fill="#000000" font-family="sans-serif" font-size="12" lengthAdjust="spacing" textLength="218.6191" x="404.69" y="641.0343">+normalize_screenshots_column(...)</text><text fill="#000000" font-family="sans-serif" font-size="12" lengthAdjust="spacing" textLength="155.5488" x="404.69" y="655.003">+process_screenshots(...)</text><text fill="#000000" font-family="sans-serif" font-size="12" lengthAdjust="spacing" textLength="189.4102" x="404.69" y="668.9718">+normalize_movies_column(...)</text><text fill="#000000" font-family="sans-serif" font-size="12" lengthAdjust="spacing" textLength="96.3164" x="404.69" y="682.9405">+dedup_join(...)</text><text fill="#000000" font-family="sans-serif" font-size="12" lengthAdjust="spacing" textLength="115.2012" x="404.69" y="696.9093">+flatten_values(...)</text><text fill="#000000" font-family="sans-serif" font-size="12" lengthAdjust="spacing" textLength="145.2539" x="404.69" y="710.878">+list_to_clean_string(...)</text></g><!--link Main to Config--><g class="link" data-entity-1="ent0003" data-entity-2="ent0004" data-link-type="dependency" data-source-line="99" id="lnk16"><path codeLine="99" d="M542.87,123.0269 C427.32,127.2369 194.52,140.9769 127,184.2069 C99.71,201.6769 84.6328,230.6119 75.6928,253.3819" fill="none" id="Main-to-Config" style="stroke:#181818;stroke-width:1;"/><polygon fill="#181818" points="73.5,258.9669,80.5125,252.0513,75.3273,254.3127,73.0659,249.1276,73.5,258.9669" style="stroke:#181818;stroke-width:1;"/></g><!--link Main to CleanDesc--><g class="link" data-entity-1="ent0003" data-entity-2="ent0006" data-link-type="dependency" data-source-line="100" id="lnk17"><path codeLine="100" d="M542.86,130.4669 C492.18,139.3569 421.57,155.7569 365,184.2069 C344.19,194.6769 328.3166,205.4332 310.2866,220.0832" fill="none" id="Main-to-CleanDesc" style="stroke:#181818;stroke-width:1;"/><polygon fill="#181818" points="305.63,223.8669,315.1373,221.2958,309.5105,220.7138,310.0925,215.087,305.63,223.8669" style="stroke:#181818;stroke-width:1;"/></g><!--link Main to SourceA--><g class="link" data-entity-1="ent0003" data-entity-2="ent0007" data-link-type="dependency" data-source-line="101" id="lnk18"><path codeLine="101" d="M549.47,164.4569 C541.69,170.8169 533.99,177.4969 527,184.2069 C505.16,205.1569 487.0039,226.9432 471.5139,246.9432" fill="none" id="Main-to-SourceA" style="stroke:#181818;stroke-width:1;"/><polygon fill="#181818" points="467.84,251.6869,476.5133,247.0207,470.9016,247.7338,470.1885,242.1221,467.84,251.6869" style="stroke:#181818;stroke-width:1;"/></g><!--link Main to SourceB--><g class="link" data-entity-1="ent0003" data-entity-2="ent0008" data-link-type="dependency" data-source-line="102" id="lnk19"><path codeLine="102" d="M609,164.5169 C609,192.2569 609,221.5269 609,245.9769" fill="none" id="Main-to-SourceB" style="stroke:#181818;stroke-width:1;"/><polygon fill="#181818" points="609,251.9769,613,242.9769,609,246.9769,605,242.9769,609,251.9769" style="stroke:#181818;stroke-width:1;"/></g><!--link Main to SourceC--><g class="link" data-entity-1="ent0003" data-entity-2="ent0009" data-link-type="dependency" data-source-line="103" id="lnk20"><path codeLine="103" d="M668.53,164.4569 C676.31,170.8169 684.01,177.4969 691,184.2069 C712.84,205.1569 730.9961,226.9432 746.4861,246.9432" fill="none" id="Main-to-SourceC" style="stroke:#181818;stroke-width:1;"/><polygon fill="#181818" points="750.16,251.6869,747.8115,242.1221,747.0984,247.7338,741.4867,247.0207,750.16,251.6869" style="stroke:#181818;stroke-width:1;"/></g><!--link Main to MergeUtils--><g class="link" data-entity-1="ent0003" data-entity-2="ent0014" data-link-type="dependency" data-source-line="104" id="lnk21"><path codeLine="104" d="M675.07,127.3069 C746.91,135.4069 854.88,152.5769 880,184.2069 C929.72,246.7969 910.41,290.1269 880,364.0469 C872.76,381.6469 864.8061,393.4198 851.5661,407.2698" fill="none" id="Main-to-MergeUtils" style="stroke:#181818;stroke-width:1;"/><polygon fill="#181818" points="847.42,411.6069,856.5305,407.8653,850.875,407.9926,850.7477,402.3372,847.42,411.6069" style="stroke:#181818;stroke-width:1;"/></g><!--link Main to IOUtils--><g class="link" data-entity-1="ent0003" data-entity-2="ent0013" data-link-type="dependency" data-source-line="105" id="lnk22"><path codeLine="105" d="M675.09,129.2769 C739.39,138.6069 830.46,156.3769 852,184.2069 C900.92,247.4169 907.26,306.2969 852,364.0469 C838.08,378.5969 689.77,364.7869 671,372.0469 C648.59,380.7269 631.9184,392.0551 614.3784,407.6151" fill="none" id="Main-to-IOUtils" style="stroke:#181818;stroke-width:1;"/><polygon fill="#181818" points="609.89,411.5969,619.2771,408.6165,613.6303,408.2788,613.9681,402.632,609.89,411.5969" style="stroke:#181818;stroke-width:1;"/></g><!--link MergeUtils to CatUtils--><g class="link" data-entity-1="ent0014" data-entity-2="ent0011" data-link-type="dependency" data-source-line="107" id="lnk23"><path codeLine="107" d="M780.77,514.3569 C779.87,534.8369 779.0748,552.7627 778.1148,574.4927" fill="none" id="MergeUtils-to-CatUtils" style="stroke:#181818;stroke-width:1;stroke-dasharray:7,7;"/><polygon fill="#181818" points="777.85,580.4869,782.2433,571.6722,778.0707,575.4917,774.2511,571.3191,777.85,580.4869" style="stroke:#181818;stroke-width:1;"/></g><!--link MergeUtils to CleanUtils--><g class="link" data-entity-1="ent0014" data-entity-2="ent0012" data-link-type="dependency" data-source-line="108" id="lnk24"><path codeLine="108" d="M687.99,507.6669 C681.95,509.9169 675.92,512.0269 670,513.9269 C545.09,553.9969 503.99,528.2969 381,573.9269 C365.76,579.5769 355.4658,584.0736 340.6058,591.7836" fill="none" id="MergeUtils-to-CleanUtils" style="stroke:#181818;stroke-width:1;stroke-dasharray:7,7;"/><polygon fill="#181818" points="335.28,594.5469,345.1109,593.9525,339.7182,592.2442,341.4266,586.8514,335.28,594.5469" style="stroke:#181818;stroke-width:1;"/></g><!--link MergeUtils to NormUtils--><g class="link" data-entity-1="ent0014" data-entity-2="ent0015" data-link-type="dependency" data-source-line="109" id="lnk25"><path codeLine="109" d="M708.07,514.3569 C680.86,532.6469 654.56,550.3303 625.17,570.0803" fill="none" id="MergeUtils-to-NormUtils" style="stroke:#181818;stroke-width:1;stroke-dasharray:7,7;"/><polygon fill="#181818" points="620.19,573.4269,629.8911,571.727,624.34,570.6381,625.429,565.087,620.19,573.4269" style="stroke:#181818;stroke-width:1;"/></g><!--link SourceA to IOUtils--><g class="link" data-entity-1="ent0007" data-entity-2="ent0013" data-link-type="dependency" data-source-line="110" id="lnk26"><path codeLine="110" d="M465.06,312.2669 C482.67,339.1869 505.9263,374.7352 526.9363,406.8652" fill="none" id="SourceA-to-IOUtils" style="stroke:#181818;stroke-width:1;stroke-dasharray:7,7;"/><polygon fill="#181818" points="530.22,411.8869,528.6422,402.1652,527.4836,407.7021,521.9467,406.5435,530.22,411.8869" style="stroke:#181818;stroke-width:1;"/></g><!--link SourceB to IOUtils--><g class="link" data-entity-1="ent0008" data-entity-2="ent0013" data-link-type="dependency" data-source-line="111" id="lnk27"><path codeLine="111" d="M601.51,312.2669 C594.58,339.1869 585.6439,373.9458 577.3839,406.0758" fill="none" id="SourceB-to-IOUtils" style="stroke:#181818;stroke-width:1;stroke-dasharray:7,7;"/><polygon fill="#181818" points="575.89,411.8869,582.0049,404.1662,577.1349,407.0443,574.2568,402.1744,575.89,411.8869" style="stroke:#181818;stroke-width:1;"/></g><!--link SourceC to IOUtils--><g class="link" data-entity-1="ent0009" data-entity-2="ent0013" data-link-type="dependency" data-source-line="112" id="lnk28"><path codeLine="112" d="M748.13,312.3069 C733.13,329.1869 712.58,349.8269 691,364.0469 C683.01,369.3169 679.22,367.1469 671,372.0469 C652.14,383.2969 637.7785,393.8809 621.1385,407.9009" fill="none" id="SourceC-to-IOUtils" style="stroke:#181818;stroke-width:1;stroke-dasharray:7,7;"/><polygon fill="#181818" points="616.55,411.7669,626.01,409.0268,620.3737,408.5452,620.8554,402.9089,616.55,411.7669" style="stroke:#181818;stroke-width:1;"/></g><!--link CleanDesc to CleanUtils--><g class="link" data-entity-1="ent0006" data-entity-2="ent0012" data-link-type="dependency" data-source-line="113" id="lnk29"><path codeLine="113" d="M246.27,340.4369 C247.82,410.4569 250.2769,521.7984 251.7569,588.4784" fill="none" id="CleanDesc-to-CleanUtils" style="stroke:#181818;stroke-width:1;stroke-dasharray:7,7;"/><polygon fill="#181818" points="251.89,594.4769,255.6893,585.3903,251.779,589.4781,247.6913,585.5679,251.89,594.4769" style="stroke:#181818;stroke-width:1;"/></g><?plantuml-src XLNDZjis4BxhAGZtag1OOxjOeEqbGEp0G0v93elsIb3II6QNFm8vSk84UPWzvboWB-0Nwv3wfIotwylocz4tt_nmY18Li3zb2ROM6jWxWO9z05S3ksDIDmeq6Boy5FBojsUN5qHubWJyy5c6jc5eMMuHhMQbT52Wj2RBFBaqmWdDSb4yrywsfjnRPHtxV9G8Cxi_Yj9-bgPcbL1-RYcKyFujefDvY_2-iEP9VWLsFtCfeHAjmeCr66s_FCoC61ARJ8ypKqEYH0rFUARKWsXXQWNPCZZxbZ7wsorI-EdmM_XrDkjAS3t--FZhm_unuY5kX-uKVPvzpwx3twG_71xs-slwtU7t-_lxM_G3wKQ7tcs8d3oxD3PQIBELpTda6oOy-q37FlZFZMn0IGFi15ylFvmAVOs6oZftUV7scUM0btzKw3XqfXY1LIsYeC7mWj3lisZKgKhMs-OSW-tZAPX7XTwshW2_wJKCdoaGXfVW2oURC4OZGp2y8xpt9mKEHCc5ANablt1D8o133hpmfrVRxVRruDPH7b4hZl054vkdmMgYBO4RPqcQd-lW9Ls9n2dKyrLtYecFENIPSJ58VuhdjvDmPKduu3LnhhBaASjkdIN_7vOYPTclinHpbfvfx5TBvRtgba2ehJlpQ1nR9V2FS9w255RdiJLM-RI6OOYep2TGjW7dUTFcIleZ_PisH3XFdtVX9AJ6aNtTtCNuJoEAsWTnhJQt2jbDKPfdW9QPHhUEog-CeQ8bqr8zQMP1bJo6BnE_IXgX-CARQeAtXfeMiyGahrIvjAdizvyMckC8qAtXNbIWpka54ITOKndnVcnygxLmwNSdeIJT6E3qIa3j99vloUiwa2YC3yz2P2MLubfwJwy4hvpLVVILRlQRvRggz0Ii6hlFkatIkTqIQwpJ7KyY-2F12xsJv-fm9HwqP02CFrfSTHosqSpj1f6s9ng4DOuIohRXVrcPmfKIz9GRJkrg5qK98yVHzfCO5gMfb_k1YXEVaRkxDyEAdyx3mfwWVX4kWTqIs4_0D0eJrWymnPxcPBjzC-wTAtoyfqlBsBTisD417VY7ZNkDxHDiUfhIQFy2?></g></svg>