<svg xmlns="http://www.w3.org/2000/svg" xmlns:xlink="http://www.w3.org/1999/xlink" contentStyleType="text/css" data-diagram-type="CLASS" height="565px" preserveAspectRatio="none" style="width:608px;height:565px;background:#FFFFFF;" version="1.1" viewBox="0 0 608 565" width="608px" zoomAndPan="magnify"><?plantuml 1.2026.3beta4?><defs/><g><g class="title" data-source-line="1"><text fill="#000000" font-family="sans-serif" font-size="14" font-weight="700" lengthAdjust="spacing" textLength="445.7236" x="77.6382" y="22.9951">Videogame Data Merge - vizualiz&#225;ci&#243;s &#233;s riport modulok</text></g><!--cluster merge/visualization--><g class="cluster" data-qualified-name="merge.visualization" data-source-line="24" id="ent0002"><rect fill="#FFF2CC" height="507.31" rx="2.5" ry="2.5" style="stroke:#BF9000;stroke-width:1.5;" width="587" x="7" y="44.2969"/><text fill="#000000" font-family="sans-serif" font-size="12" font-weight="700" lengthAdjust="spacing" textLength="133.3359" x="233.832" y="57.4355">merge/visualization</text></g><!--class Hist--><g class="entity" data-qualified-name="merge.visualization.Hist" data-source-line="26" id="ent0003"><rect fill="#F8F8F8" height="325.375" rx="2.5" ry="2.5" style="stroke:#4472C4;stroke-width:0.5;" width="352.3359" x="22.83" y="76.2969"/><ellipse cx="152.1894" cy="91.2969" fill="#ADD1B2" rx="10" ry="10" style="stroke:#181818;stroke-width:1;"/><path d="M154.0175,95.5469 Q153.6112,95.75 153.1581,95.8594 Q152.705,95.9687 152.2206,95.9687 Q150.4394,95.9687 149.5019,94.8125 Q148.58,93.6406 148.58,91.4375 Q148.58,89.2187 149.5019,88.0625 Q150.4394,86.8906 152.2206,86.8906 Q152.705,86.8906 153.1581,87 Q153.6269,87.0937 154.0175,87.3125 L154.0175,89.2344 Q153.58,88.8281 153.1581,88.6406 Q152.7362,88.4375 152.2987,88.4375 Q151.3456,88.4375 150.8612,89.2031 Q150.3769,89.9531 150.3769,91.4375 Q150.3769,92.9062 150.8612,93.6562 Q151.3456,94.4062 152.2987,94.4062 Q152.7362,94.4062 153.1581,94.2187 Q153.58,94.0312 154.0175,93.625 L154.0175,95.5469 Z " fill="#000000"/><text fill="#000000" font-family="sans-serif" font-size="12" lengthAdjust="spacing" textLength="85.6172" x="171.1894" y="95.4512">histograms.py</text><line style="stroke:#4472C4;stroke-width:0.5;" x1="23.83" x2="374.1659" y1="106.2969" y2="106.2969"/><line style="stroke:#4472C4;stroke-width:0.5;" x1="23.83" x2="374.1659" y1="114.2969" y2="114.2969"/><text fill="#000000" font-family="sans-serif" font-size="12" lengthAdjust="spacing" textLength="111.5742" x="28.83" y="129.4355">+parse_genres(...)</text><text fill="#000000" font-family="sans-serif" font-size="12" lengthAdjust="spacing" textLength="171.4102" x="28.83" y="143.4043">+apply_latest_year_label(...)</text><text fill="#000000" font-family="sans-serif" font-size="12" lengthAdjust="spacing" textLength="112.9043" x="28.83" y="157.373">+plot_all_years(...)</text><text fill="#000000" font-family="sans-serif" font-size="12" lengthAdjust="spacing" textLength="110.332" x="28.83" y="171.3418">+plot_pre2010(...)</text><text fill="#000000" font-family="sans-serif" font-size="12" lengthAdjust="spacing" textLength="116.3145" x="28.83" y="185.3105">+plot_post2010(...)</text><text fill="#000000" font-family="sans-serif" font-size="12" lengthAdjust="spacing" textLength="126.9434" x="28.83" y="199.2793">+plot_by_sources(...)</text><text fill="#000000" font-family="sans-serif" font-size="12" lengthAdjust="spacing" textLength="101.0332" x="28.83" y="213.248">+plot_genres(...)</text><text fill="#000000" font-family="sans-serif" font-size="12" lengthAdjust="spacing" textLength="189.0762" x="28.83" y="227.2168">+analyze_genre_correlation(...)</text><text fill="#000000" font-family="sans-serif" font-size="12" lengthAdjust="spacing" textLength="138.5039" x="28.83" y="241.1855">+plot_growth_rates(...)</text><text fill="#000000" font-family="sans-serif" font-size="12" lengthAdjust="spacing" textLength="159.791" x="28.83" y="255.1543">+plot_monthly_overlay(...)</text><text fill="#000000" font-family="sans-serif" font-size="12" lengthAdjust="spacing" textLength="152.373" x="28.83" y="269.123">+plot_weekly_overlay(...)</text><text fill="#000000" font-family="sans-serif" font-size="12" lengthAdjust="spacing" textLength="221.3027" x="28.83" y="283.0918">+plot_weekly_overlay_from_daily(...)</text><text fill="#000000" font-family="sans-serif" font-size="12" lengthAdjust="spacing" textLength="174.4102" x="28.83" y="297.0605">+plot_heatmap_year_day(...)</text><text fill="#000000" font-family="sans-serif" font-size="12" lengthAdjust="spacing" textLength="256.1836" x="28.83" y="311.0293">+plot_heatmap_year_weekday_aligned(...)</text><text fill="#000000" font-family="sans-serif" font-size="12" lengthAdjust="spacing" textLength="189.2871" x="28.83" y="324.998">+forecast_year_log_modern(...)</text><text fill="#000000" font-family="sans-serif" font-size="12" lengthAdjust="spacing" textLength="202.7871" x="28.83" y="338.9668">+rolling_backtest_log_modern(...)</text><text fill="#000000" font-family="sans-serif" font-size="12" lengthAdjust="spacing" textLength="116.1914" x="28.83" y="352.9355">+forecast_2026(...)</text><text fill="#000000" font-family="sans-serif" font-size="12" lengthAdjust="spacing" textLength="340.3359" x="28.83" y="366.9043">+expanding_window_one_step_backtest_log_modern(...)</text><text fill="#000000" font-family="sans-serif" font-size="12" lengthAdjust="spacing" textLength="126.9434" x="28.83" y="380.873">+plot_histograms(...)</text><text fill="#000000" font-family="sans-serif" font-size="12" lengthAdjust="spacing" textLength="49.4004" x="28.83" y="394.8418">+main()</text></g><!--class Summ--><g class="entity" data-qualified-name="merge.visualization.Summ" data-source-line="49" id="ent0004"><rect fill="#F8F8F8" height="73.9375" rx="2.5" ry="2.5" style="stroke:#4472C4;stroke-width:0.5;" width="179.6895" x="253.16" y="461.6669"/><ellipse cx="296.492" cy="476.6669" fill="#ADD1B2" rx="10" ry="10" style="stroke:#181818;stroke-width:1;"/><path d="M298.3202,480.9169 Q297.9139,481.12 297.4608,481.2294 Q297.0077,481.3387 296.5233,481.3387 Q294.742,481.3387 293.8045,480.1825 Q292.8827,479.0106 292.8827,476.8075 Q292.8827,474.5887 293.8045,473.4325 Q294.742,472.2606 296.5233,472.2606 Q297.0077,472.2606 297.4608,472.37 Q297.9295,472.4637 298.3202,472.6825 L298.3202,474.6044 Q297.8827,474.1981 297.4608,474.0106 Q297.0389,473.8075 296.6014,473.8075 Q295.6483,473.8075 295.1639,474.5731 Q294.6795,475.3231 294.6795,476.8075 Q294.6795,478.2762 295.1639,479.0262 Q295.6483,479.7762 296.6014,479.7762 Q297.0389,479.7762 297.4608,479.5887 Q297.8827,479.4012 298.3202,478.995 L298.3202,480.9169 Z " fill="#000000"/><text fill="#000000" font-family="sans-serif" font-size="12" lengthAdjust="spacing" textLength="85.0254" x="315.492" y="480.8212">summaries.py</text><line style="stroke:#4472C4;stroke-width:0.5;" x1="254.16" x2="431.8495" y1="491.6669" y2="491.6669"/><line style="stroke:#4472C4;stroke-width:0.5;" x1="254.16" x2="431.8495" y1="499.6669" y2="499.6669"/><text fill="#000000" font-family="sans-serif" font-size="12" lengthAdjust="spacing" textLength="167.6895" x="259.16" y="514.8055">+save_source_summary(...)</text><text fill="#000000" font-family="sans-serif" font-size="12" lengthAdjust="spacing" textLength="135.7617" x="259.16" y="528.7743">+validate_integrity(...)</text></g><!--class Venn--><g class="entity" data-qualified-name="merge.visualization.Venn" data-source-line="54" id="ent0005"><rect fill="#F8F8F8" height="87.9063" rx="2.5" ry="2.5" style="stroke:#4472C4;stroke-width:0.5;" width="167.8887" x="410.06" y="195.0269"/><ellipse cx="439.2528" cy="210.0269" fill="#ADD1B2" rx="10" ry="10" style="stroke:#181818;stroke-width:1;"/><path d="M441.0809,214.2769 Q440.6746,214.48 440.2215,214.5894 Q439.7684,214.6987 439.284,214.6987 Q437.5028,214.6987 436.5653,213.5425 Q435.6434,212.3706 435.6434,210.1675 Q435.6434,207.9487 436.5653,206.7925 Q437.5028,205.6206 439.284,205.6206 Q439.7684,205.6206 440.2215,205.73 Q440.6903,205.8237 441.0809,206.0425 L441.0809,207.9644 Q440.6434,207.5581 440.2215,207.3706 Q439.7996,207.1675 439.3621,207.1675 Q438.409,207.1675 437.9246,207.9331 Q437.4403,208.6831 437.4403,210.1675 Q437.4403,211.6362 437.9246,212.3862 Q438.409,213.1362 439.3621,213.1362 Q439.7996,213.1362 440.2215,212.9487 Q440.6434,212.7612 441.0809,212.355 L441.0809,214.2769 Z " fill="#000000"/><text fill="#000000" font-family="sans-serif" font-size="12" lengthAdjust="spacing" textLength="104.127" x="455.6289" y="214.1812">venn_diagram.py</text><line style="stroke:#4472C4;stroke-width:0.5;" x1="411.06" x2="576.9487" y1="225.0269" y2="225.0269"/><line style="stroke:#4472C4;stroke-width:0.5;" x1="411.06" x2="576.9487" y1="233.0269" y2="233.0269"/><text fill="#000000" font-family="sans-serif" font-size="12" lengthAdjust="spacing" textLength="150.0879" x="416.06" y="248.1655">+compute_venn_sets(...)</text><text fill="#000000" font-family="sans-serif" font-size="12" lengthAdjust="spacing" textLength="155.8887" x="416.06" y="262.1343">+compute_venn_table(...)</text><text fill="#000000" font-family="sans-serif" font-size="12" lengthAdjust="spacing" textLength="152.2207" x="416.06" y="276.103">+plot_and_save_venn(...)</text></g><!--link Hist to Summ--><g class="link" data-entity-1="ent0003" data-entity-2="ent0004" data-link-type="dependency" data-source-line="61" id="lnk6"><path codeLine="61" d="M289.58,402.0669 C301.98,424.2369 310.6516,439.7701 319.8616,456.2401" fill="none" id="Hist-to-Summ" style="stroke:#181818;stroke-width:1;stroke-dasharray:7,7;"/><polygon fill="#181818" points="322.79,461.4769,321.8886,451.6694,320.3496,457.1129,314.9061,455.5739,322.79,461.4769" style="stroke:#181818;stroke-width:1;"/></g><!--link Venn to Summ--><g class="link" data-entity-1="ent0005" data-entity-2="ent0004" data-link-type="dependency" data-source-line="62" id="lnk7"><path codeLine="62" d="M468.56,283.3969 C439.22,333.4469 394.574,409.6305 367.184,456.3605" fill="none" id="Venn-to-Summ" style="stroke:#181818;stroke-width:1;stroke-dasharray:7,7;"/><polygon fill="#181818" points="364.15,461.5369,372.152,455.795,366.6784,457.2232,365.2501,451.7497,364.15,461.5369" style="stroke:#181818;stroke-width:1;"/></g><?plantuml-src ZLHDZzCm4BtdLrZbiWXHibN5nmM9BQhWm6abhjOqdgPM7OzbJrfIj3-68sT-mlunxAJjccONI2xfU-EPzpmpPSq6nLUja6feK7m41l45VOtYfTZfGmj67-v_LFh-Ln3tFuFmsf5dqP1g3MsBWia99h4YPcg4qXuhrcIB8corTU2X4IkejhMdrge56V9Ylz6C6Hyse6YlRItMO4BEL0P2-C3izQfb_5oHlTK756KMed0DhU4bMUwvwrb6SdBtGCqpoaLHKECjTz5_4WssDbXS5XVV2n6VcmiBpvPlqpjmv1Nw8pwVlvajvZsUwWxeZOd7YxjYNFx9zClbRB4OfxzPlYlBygdqfwIJ9ZNmrKw7ldsG6ZA9fUAvmTHaemDJ7OM4gUic0eBu596ZcXTHOa1Pe_KOhgRJwVC11kTC9mqm1fOTWe_VApHPX3F44epfsN19E8-pyheSmHJuCNpLoK2jht2KQApCWkaEHyco8k_HzAv79ptjUIDzyd39DV52Dz4WxT0Rw2xfFUBsVrcvzjH81TgC0ZS8t80Rxa_1t_cKDSR4AzMrHPN5hYdEB9pxG7MK7ySaD-p9cBXKCgrVtx97eyw9PkNiTORZDmTMfVDnC-DwIh8e0wFxHxx1n7cyCgO1RQ_IzrqsYA5j6l0QptDu6u7J70ROuN46v12ONzSktegAZPJQCjPUyvdC2-pGMgaq93Md6byZTgfHKUFYVulium9ohlWFZc5bS3JhLibUPGfvA1y5zFiqdRxl3HLznTEltm00?></g></svg>