<?plantuml 1.2026.2beta2?><svg xmlns="http://www.w3.org/2000/svg" xmlns:xlink="http://www.w3.org/1999/xlink" contentStyleType="text/css" data-diagram-type="CLASS" height="382px" preserveAspectRatio="none" style="width:1906px;height:382px;background:#FFFFFF;" version="1.1" viewBox="0 0 1906 382" width="1906px" zoomAndPan="magnify"><title>Videogame Data Merge - OOP oszt&#225;lydiagram (&#225;ttekint&#337;)</title><defs/><g><g class="title" data-source-line="1"><text fill="#000000" font-family="sans-serif" font-size="14" font-weight="bold" lengthAdjust="spacing" textLength="451.3975" x="720.3429" y="22.9951">Videogame Data Merge - OOP oszt&#225;lydiagram (&#225;ttekint&#337;)</text></g><!--class MergePipeline--><g class="entity" data-qualified-name="MergePipeline" data-source-line="7" id="ent0002"><rect fill="#F1F1F1" height="64.2969" rx="2.5" ry="2.5" style="stroke:#181818;stroke-width:0.5;" width="131.0459" x="911.21" y="44.2969"/><ellipse cx="926.21" cy="60.2969" fill="#ADD1B2" rx="11" ry="11" style="stroke:#181818;stroke-width:1;"/><path d="M929.1788,65.9375 Q928.6006,66.2344 927.96,66.375 Q927.3194,66.5313 926.6163,66.5313 Q924.1163,66.5313 922.7881,64.8906 Q921.4756,63.2344 921.4756,60.1094 Q921.4756,56.9844 922.7881,55.3281 Q924.1163,53.6719 926.6163,53.6719 Q927.3194,53.6719 927.96,53.8281 Q928.6163,53.9844 929.1788,54.2813 L929.1788,57 Q928.5538,56.4219 927.96,56.1563 Q927.3663,55.875 926.7413,55.875 Q925.3975,55.875 924.71,56.9531 Q924.0225,58.0156 924.0225,60.1094 Q924.0225,62.2031 924.71,63.2813 Q925.3975,64.3438 926.7413,64.3438 Q927.3663,64.3438 927.96,64.0781 Q928.5538,63.7969 929.1788,63.2188 L929.1788,65.9375 Z " fill="#000000"/><text fill="#000000" font-family="sans-serif" font-size="14" lengthAdjust="spacing" textLength="99.0459" x="940.21" y="65.1436">MergePipeline</text><line style="stroke:#181818;stroke-width:0.5;" x1="912.21" x2="1041.2559" y1="76.2969" y2="76.2969"/><line style="stroke:#181818;stroke-width:0.5;" x1="912.21" x2="1041.2559" y1="84.2969" y2="84.2969"/><text fill="#000000" font-family="sans-serif" font-size="14" lengthAdjust="spacing" textLength="46.1563" x="917.21" y="101.292">+run()</text></g><!--class MergerService--><g class="entity" data-qualified-name="MergerService" data-source-line="11" id="ent0003"><rect fill="#F1F1F1" height="80.5938" rx="2.5" ry="2.5" style="stroke:#181818;stroke-width:0.5;" width="213.4756" x="7" y="185.5969"/><ellipse cx="58.7651" cy="201.5969" fill="#ADD1B2" rx="11" ry="11" style="stroke:#181818;stroke-width:1;"/><path d="M61.7339,207.2375 Q61.1558,207.5344 60.5151,207.675 Q59.8745,207.8312 59.1714,207.8312 Q56.6714,207.8312 55.3433,206.1906 Q54.0308,204.5344 54.0308,201.4094 Q54.0308,198.2844 55.3433,196.6281 Q56.6714,194.9719 59.1714,194.9719 Q59.8745,194.9719 60.5151,195.1281 Q61.1714,195.2844 61.7339,195.5812 L61.7339,198.3 Q61.1089,197.7219 60.5151,197.4562 Q59.9214,197.175 59.2964,197.175 Q57.9526,197.175 57.2651,198.2531 Q56.5776,199.3156 56.5776,201.4094 Q56.5776,203.5031 57.2651,204.5812 Q57.9526,205.6437 59.2964,205.6437 Q59.9214,205.6437 60.5151,205.3781 Q61.1089,205.0969 61.7339,204.5187 L61.7339,207.2375 Z " fill="#000000"/><text fill="#000000" font-family="sans-serif" font-size="14" lengthAdjust="spacing" textLength="101.4453" x="79.2651" y="206.4436">MergerService</text><line style="stroke:#181818;stroke-width:0.5;" x1="8" x2="219.4756" y1="217.5969" y2="217.5969"/><line style="stroke:#181818;stroke-width:0.5;" x1="8" x2="219.4756" y1="225.5969" y2="225.5969"/><text fill="#000000" font-family="sans-serif" font-size="14" lengthAdjust="spacing" textLength="172.2178" x="13" y="242.592">+merge_sources(a, b, c)</text><text fill="#000000" font-family="sans-serif" font-size="14" lengthAdjust="spacing" textLength="201.4756" x="13" y="258.8889">+merge_and_finalize(a, b, c)</text></g><!--class DataSource--><g class="entity" data-qualified-name="DataSource" data-source-line="16" id="ent0004"><rect fill="#F1F1F1" height="64.2969" rx="2.5" ry="2.5" style="stroke:#181818;stroke-width:0.5;" width="124.1094" x="255.68" y="193.7369"/><ellipse cx="275.3105" cy="209.7369" fill="#B4A7E5" rx="11" ry="11" style="stroke:#181818;stroke-width:1;"/><path d="M271.2324,205.5025 L271.2324,203.3463 L278.623,203.3463 L278.623,205.5025 L276.1543,205.5025 L276.1543,213.5806 L278.623,213.5806 L278.623,215.7369 L271.2324,215.7369 L271.2324,213.5806 L273.7011,213.5806 L273.7011,205.5025 L271.2324,205.5025 Z " fill="#000000"/><text fill="#000000" font-family="sans-serif" font-size="14" font-style="italic" lengthAdjust="spacing" textLength="81.8193" x="290.3395" y="214.5836">DataSource</text><line style="stroke:#181818;stroke-width:0.5;" x1="256.68" x2="378.7894" y1="225.7369" y2="225.7369"/><line style="stroke:#181818;stroke-width:0.5;" x1="256.68" x2="378.7894" y1="233.7369" y2="233.7369"/><text fill="#000000" font-family="sans-serif" font-size="14" lengthAdjust="spacing" textLength="112.1094" x="261.68" y="250.732">+load(path: str)</text></g><!--class SourceA--><g class="entity" data-qualified-name="SourceA" data-source-line="20" id="ent0005"><rect fill="#F1F1F1" height="48" rx="2.5" ry="2.5" style="stroke:#181818;stroke-width:0.5;" width="89.9688" x="147.75" y="327.1869"/><ellipse cx="162.75" cy="343.1869" fill="#ADD1B2" rx="11" ry="11" style="stroke:#181818;stroke-width:1;"/><path d="M165.7188,348.8275 Q165.1406,349.1244 164.5,349.265 Q163.8594,349.4213 163.1563,349.4213 Q160.6563,349.4213 159.3281,347.7806 Q158.0156,346.1244 158.0156,342.9994 Q158.0156,339.8744 159.3281,338.2181 Q160.6563,336.5619 163.1563,336.5619 Q163.8594,336.5619 164.5,336.7181 Q165.1563,336.8744 165.7188,337.1713 L165.7188,339.89 Q165.0938,339.3119 164.5,339.0463 Q163.9063,338.765 163.2813,338.765 Q161.9375,338.765 161.25,339.8431 Q160.5625,340.9056 160.5625,342.9994 Q160.5625,345.0931 161.25,346.1713 Q161.9375,347.2338 163.2813,347.2338 Q163.9063,347.2338 164.5,346.9681 Q165.0938,346.6869 165.7188,346.1088 L165.7188,348.8275 Z " fill="#000000"/><text fill="#000000" font-family="sans-serif" font-size="14" lengthAdjust="spacing" textLength="57.9688" x="176.75" y="348.0336">SourceA</text><line style="stroke:#181818;stroke-width:0.5;" x1="148.75" x2="236.7188" y1="359.1869" y2="359.1869"/><line style="stroke:#181818;stroke-width:0.5;" x1="148.75" x2="236.7188" y1="367.1869" y2="367.1869"/></g><!--class SourceB--><g class="entity" data-qualified-name="SourceB" data-source-line="21" id="ent0006"><rect fill="#F1F1F1" height="48" rx="2.5" ry="2.5" style="stroke:#181818;stroke-width:0.5;" width="89.9961" x="272.74" y="327.1869"/><ellipse cx="287.74" cy="343.1869" fill="#ADD1B2" rx="11" ry="11" style="stroke:#181818;stroke-width:1;"/><path d="M290.7088,348.8275 Q290.1306,349.1244 289.49,349.265 Q288.8494,349.4213 288.1463,349.4213 Q285.6463,349.4213 284.3181,347.7806 Q283.0056,346.1244 283.0056,342.9994 Q283.0056,339.8744 284.3181,338.2181 Q285.6463,336.5619 288.1463,336.5619 Q288.8494,336.5619 289.49,336.7181 Q290.1463,336.8744 290.7088,337.1713 L290.7088,339.89 Q290.0838,339.3119 289.49,339.0463 Q288.8963,338.765 288.2713,338.765 Q286.9275,338.765 286.24,339.8431 Q285.5525,340.9056 285.5525,342.9994 Q285.5525,345.0931 286.24,346.1713 Q286.9275,347.2338 288.2713,347.2338 Q288.8963,347.2338 289.49,346.9681 Q290.0838,346.6869 290.7088,346.1088 L290.7088,348.8275 Z " fill="#000000"/><text fill="#000000" font-family="sans-serif" font-size="14" lengthAdjust="spacing" textLength="57.9961" x="301.74" y="348.0336">SourceB</text><line style="stroke:#181818;stroke-width:0.5;" x1="273.74" x2="361.7361" y1="359.1869" y2="359.1869"/><line style="stroke:#181818;stroke-width:0.5;" x1="273.74" x2="361.7361" y1="367.1869" y2="367.1869"/></g><!--class SourceC--><g class="entity" data-qualified-name="SourceC" data-source-line="22" id="ent0007"><rect fill="#F1F1F1" height="48" rx="2.5" ry="2.5" style="stroke:#181818;stroke-width:0.5;" width="90.167" x="397.65" y="327.1869"/><ellipse cx="412.65" cy="343.1869" fill="#ADD1B2" rx="11" ry="11" style="stroke:#181818;stroke-width:1;"/><path d="M415.6188,348.8275 Q415.0406,349.1244 414.4,349.265 Q413.7594,349.4213 413.0563,349.4213 Q410.5563,349.4213 409.2281,347.7806 Q407.9156,346.1244 407.9156,342.9994 Q407.9156,339.8744 409.2281,338.2181 Q410.5563,336.5619 413.0563,336.5619 Q413.7594,336.5619 414.4,336.7181 Q415.0563,336.8744 415.6188,337.1713 L415.6188,339.89 Q414.9938,339.3119 414.4,339.0463 Q413.8063,338.765 413.1813,338.765 Q411.8375,338.765 411.15,339.8431 Q410.4625,340.9056 410.4625,342.9994 Q410.4625,345.0931 411.15,346.1713 Q411.8375,347.2338 413.1813,347.2338 Q413.8063,347.2338 414.4,346.9681 Q414.9938,346.6869 415.6188,346.1088 L415.6188,348.8275 Z " fill="#000000"/><text fill="#000000" font-family="sans-serif" font-size="14" lengthAdjust="spacing" textLength="58.167" x="426.65" y="348.0336">SourceC</text><line style="stroke:#181818;stroke-width:0.5;" x1="398.65" x2="486.817" y1="359.1869" y2="359.1869"/><line style="stroke:#181818;stroke-width:0.5;" x1="398.65" x2="486.817" y1="367.1869" y2="367.1869"/></g><!--class DescriptionProcessor--><g class="entity" data-qualified-name="DescriptionProcessor" data-source-line="33" id="ent0013"><rect fill="#F1F1F1" height="48" rx="2.5" ry="2.5" style="stroke:#181818;stroke-width:0.5;" width="179.7178" x="414.88" y="201.8869"/><ellipse cx="429.88" cy="217.8869" fill="#ADD1B2" rx="11" ry="11" style="stroke:#181818;stroke-width:1;"/><path d="M432.8488,223.5275 Q432.2706,223.8244 431.63,223.965 Q430.9894,224.1212 430.2863,224.1212 Q427.7863,224.1212 426.4581,222.4806 Q425.1456,220.8244 425.1456,217.6994 Q425.1456,214.5744 426.4581,212.9181 Q427.7863,211.2619 430.2863,211.2619 Q430.9894,211.2619 431.63,211.4181 Q432.2863,211.5744 432.8488,211.8712 L432.8488,214.59 Q432.2238,214.0119 431.63,213.7462 Q431.0363,213.465 430.4113,213.465 Q429.0675,213.465 428.38,214.5431 Q427.6925,215.6056 427.6925,217.6994 Q427.6925,219.7931 428.38,220.8712 Q429.0675,221.9337 430.4113,221.9337 Q431.0363,221.9337 431.63,221.6681 Q432.2238,221.3869 432.8488,220.8087 L432.8488,223.5275 Z " fill="#000000"/><text fill="#000000" font-family="sans-serif" font-size="14" lengthAdjust="spacing" textLength="147.7178" x="443.88" y="222.7336">DescriptionProcessor</text><line style="stroke:#181818;stroke-width:0.5;" x1="415.88" x2="593.5978" y1="233.8869" y2="233.8869"/><line style="stroke:#181818;stroke-width:0.5;" x1="415.88" x2="593.5978" y1="241.8869" y2="241.8869"/></g><!--class CleanerService--><g class="entity" data-qualified-name="CleanerService" data-source-line="34" id="ent0014"><rect fill="#F1F1F1" height="48" rx="2.5" ry="2.5" style="stroke:#181818;stroke-width:0.5;" width="137.8408" x="629.82" y="201.8869"/><ellipse cx="644.82" cy="217.8869" fill="#ADD1B2" rx="11" ry="11" style="stroke:#181818;stroke-width:1;"/><path d="M647.7888,223.5275 Q647.2106,223.8244 646.57,223.965 Q645.9294,224.1212 645.2263,224.1212 Q642.7263,224.1212 641.3981,222.4806 Q640.0856,220.8244 640.0856,217.6994 Q640.0856,214.5744 641.3981,212.9181 Q642.7263,211.2619 645.2263,211.2619 Q645.9294,211.2619 646.57,211.4181 Q647.2263,211.5744 647.7888,211.8712 L647.7888,214.59 Q647.1638,214.0119 646.57,213.7462 Q645.9763,213.465 645.3513,213.465 Q644.0075,213.465 643.32,214.5431 Q642.6325,215.6056 642.6325,217.6994 Q642.6325,219.7931 643.32,220.8712 Q644.0075,221.9337 645.3513,221.9337 Q645.9763,221.9337 646.57,221.6681 Q647.1638,221.3869 647.7888,220.8087 L647.7888,223.5275 Z " fill="#000000"/><text fill="#000000" font-family="sans-serif" font-size="14" lengthAdjust="spacing" textLength="105.8408" x="658.82" y="222.7336">CleanerService</text><line style="stroke:#181818;stroke-width:0.5;" x1="630.82" x2="766.6608" y1="233.8869" y2="233.8869"/><line style="stroke:#181818;stroke-width:0.5;" x1="630.82" x2="766.6608" y1="241.8869" y2="241.8869"/></g><!--class NormalizerService--><g class="entity" data-qualified-name="NormalizerService" data-source-line="35" id="ent0015"><rect fill="#F1F1F1" height="48" rx="2.5" ry="2.5" style="stroke:#181818;stroke-width:0.5;" width="160.249" x="802.61" y="201.8869"/><ellipse cx="817.61" cy="217.8869" fill="#ADD1B2" rx="11" ry="11" style="stroke:#181818;stroke-width:1;"/><path d="M820.5788,223.5275 Q820.0006,223.8244 819.36,223.965 Q818.7194,224.1212 818.0163,224.1212 Q815.5163,224.1212 814.1881,222.4806 Q812.8756,220.8244 812.8756,217.6994 Q812.8756,214.5744 814.1881,212.9181 Q815.5163,211.2619 818.0163,211.2619 Q818.7194,211.2619 819.36,211.4181 Q820.0163,211.5744 820.5788,211.8712 L820.5788,214.59 Q819.9538,214.0119 819.36,213.7462 Q818.7663,213.465 818.1413,213.465 Q816.7975,213.465 816.11,214.5431 Q815.4225,215.6056 815.4225,217.6994 Q815.4225,219.7931 816.11,220.8712 Q816.7975,221.9337 818.1413,221.9337 Q818.7663,221.9337 819.36,221.6681 Q819.9538,221.3869 820.5788,220.8087 L820.5788,223.5275 Z " fill="#000000"/><text fill="#000000" font-family="sans-serif" font-size="14" lengthAdjust="spacing" textLength="128.249" x="831.61" y="222.7336">NormalizerService</text><line style="stroke:#181818;stroke-width:0.5;" x1="803.61" x2="961.859" y1="233.8869" y2="233.8869"/><line style="stroke:#181818;stroke-width:0.5;" x1="803.61" x2="961.859" y1="241.8869" y2="241.8869"/></g><!--class CategoryService--><g class="entity" data-qualified-name="CategoryService" data-source-line="36" id="ent0016"><rect fill="#F1F1F1" height="48" rx="2.5" ry="2.5" style="stroke:#181818;stroke-width:0.5;" width="147.6914" x="997.89" y="201.8869"/><ellipse cx="1012.89" cy="217.8869" fill="#ADD1B2" rx="11" ry="11" style="stroke:#181818;stroke-width:1;"/><path d="M1015.8588,223.5275 Q1015.2806,223.8244 1014.64,223.965 Q1013.9994,224.1212 1013.2963,224.1212 Q1010.7963,224.1212 1009.4681,222.4806 Q1008.1556,220.8244 1008.1556,217.6994 Q1008.1556,214.5744 1009.4681,212.9181 Q1010.7963,211.2619 1013.2963,211.2619 Q1013.9994,211.2619 1014.64,211.4181 Q1015.2963,211.5744 1015.8588,211.8712 L1015.8588,214.59 Q1015.2338,214.0119 1014.64,213.7462 Q1014.0463,213.465 1013.4213,213.465 Q1012.0775,213.465 1011.39,214.5431 Q1010.7025,215.6056 1010.7025,217.6994 Q1010.7025,219.7931 1011.39,220.8712 Q1012.0775,221.9337 1013.4213,221.9337 Q1014.0463,221.9337 1014.64,221.6681 Q1015.2338,221.3869 1015.8588,220.8087 L1015.8588,223.5275 Z " fill="#000000"/><text fill="#000000" font-family="sans-serif" font-size="14" lengthAdjust="spacing" textLength="115.6914" x="1026.89" y="222.7336">CategoryService</text><line style="stroke:#181818;stroke-width:0.5;" x1="998.89" x2="1144.5814" y1="233.8869" y2="233.8869"/><line style="stroke:#181818;stroke-width:0.5;" x1="998.89" x2="1144.5814" y1="241.8869" y2="241.8869"/></g><!--class IOService--><g class="entity" data-qualified-name="IOService" data-source-line="37" id="ent0017"><rect fill="#F1F1F1" height="48" rx="2.5" ry="2.5" style="stroke:#181818;stroke-width:0.5;" width="98.8896" x="1180.29" y="201.8869"/><ellipse cx="1195.29" cy="217.8869" fill="#ADD1B2" rx="11" ry="11" style="stroke:#181818;stroke-width:1;"/><path d="M1198.2588,223.5275 Q1197.6806,223.8244 1197.04,223.965 Q1196.3994,224.1212 1195.6963,224.1212 Q1193.1963,224.1212 1191.8681,222.4806 Q1190.5556,220.8244 1190.5556,217.6994 Q1190.5556,214.5744 1191.8681,212.9181 Q1193.1963,211.2619 1195.6963,211.2619 Q1196.3994,211.2619 1197.04,211.4181 Q1197.6963,211.5744 1198.2588,211.8712 L1198.2588,214.59 Q1197.6338,214.0119 1197.04,213.7462 Q1196.4463,213.465 1195.8213,213.465 Q1194.4775,213.465 1193.79,214.5431 Q1193.1025,215.6056 1193.1025,217.6994 Q1193.1025,219.7931 1193.79,220.8712 Q1194.4775,221.9337 1195.8213,221.9337 Q1196.4463,221.9337 1197.04,221.6681 Q1197.6338,221.3869 1198.2588,220.8087 L1198.2588,223.5275 Z " fill="#000000"/><text fill="#000000" font-family="sans-serif" font-size="14" lengthAdjust="spacing" textLength="66.8896" x="1209.29" y="222.7336">IOService</text><line style="stroke:#181818;stroke-width:0.5;" x1="1181.29" x2="1278.1796" y1="233.8869" y2="233.8869"/><line style="stroke:#181818;stroke-width:0.5;" x1="1181.29" x2="1278.1796" y1="241.8869" y2="241.8869"/></g><!--class VennDiagramVisualizer--><g class="entity" data-qualified-name="VennDiagramVisualizer" data-source-line="38" id="ent0018"><rect fill="#F1F1F1" height="48" rx="2.5" ry="2.5" style="stroke:#181818;stroke-width:0.5;" width="195.7549" x="1313.86" y="201.8869"/><ellipse cx="1328.86" cy="217.8869" fill="#ADD1B2" rx="11" ry="11" style="stroke:#181818;stroke-width:1;"/><path d="M1331.8288,223.5275 Q1331.2506,223.8244 1330.61,223.965 Q1329.9694,224.1212 1329.2663,224.1212 Q1326.7663,224.1212 1325.4381,222.4806 Q1324.1256,220.8244 1324.1256,217.6994 Q1324.1256,214.5744 1325.4381,212.9181 Q1326.7663,211.2619 1329.2663,211.2619 Q1329.9694,211.2619 1330.61,211.4181 Q1331.2663,211.5744 1331.8288,211.8712 L1331.8288,214.59 Q1331.2038,214.0119 1330.61,213.7462 Q1330.0163,213.465 1329.3913,213.465 Q1328.0475,213.465 1327.36,214.5431 Q1326.6725,215.6056 1326.6725,217.6994 Q1326.6725,219.7931 1327.36,220.8712 Q1328.0475,221.9337 1329.3913,221.9337 Q1330.0163,221.9337 1330.61,221.6681 Q1331.2038,221.3869 1331.8288,220.8087 L1331.8288,223.5275 Z " fill="#000000"/><text fill="#000000" font-family="sans-serif" font-size="14" lengthAdjust="spacing" textLength="163.7549" x="1342.86" y="222.7336">VennDiagramVisualizer</text><line style="stroke:#181818;stroke-width:0.5;" x1="1314.86" x2="1508.6149" y1="233.8869" y2="233.8869"/><line style="stroke:#181818;stroke-width:0.5;" x1="1314.86" x2="1508.6149" y1="241.8869" y2="241.8869"/></g><!--class HistogramReportJob--><g class="entity" data-qualified-name="HistogramReportJob" data-source-line="39" id="ent0019"><rect fill="#F1F1F1" height="48" rx="2.5" ry="2.5" style="stroke:#181818;stroke-width:0.5;" width="173.2441" x="1544.12" y="201.8869"/><ellipse cx="1559.12" cy="217.8869" fill="#ADD1B2" rx="11" ry="11" style="stroke:#181818;stroke-width:1;"/><path d="M1562.0888,223.5275 Q1561.5106,223.8244 1560.87,223.965 Q1560.2294,224.1212 1559.5263,224.1212 Q1557.0263,224.1212 1555.6981,222.4806 Q1554.3856,220.8244 1554.3856,217.6994 Q1554.3856,214.5744 1555.6981,212.9181 Q1557.0263,211.2619 1559.5263,211.2619 Q1560.2294,211.2619 1560.87,211.4181 Q1561.5263,211.5744 1562.0888,211.8712 L1562.0888,214.59 Q1561.4638,214.0119 1560.87,213.7462 Q1560.2763,213.465 1559.6513,213.465 Q1558.3075,213.465 1557.62,214.5431 Q1556.9325,215.6056 1556.9325,217.6994 Q1556.9325,219.7931 1557.62,220.8712 Q1558.3075,221.9337 1559.6513,221.9337 Q1560.2763,221.9337 1560.87,221.6681 Q1561.4638,221.3869 1562.0888,220.8087 L1562.0888,223.5275 Z " fill="#000000"/><text fill="#000000" font-family="sans-serif" font-size="14" lengthAdjust="spacing" textLength="141.2441" x="1573.12" y="222.7336">HistogramReportJob</text><line style="stroke:#181818;stroke-width:0.5;" x1="1545.12" x2="1716.3641" y1="233.8869" y2="233.8869"/><line style="stroke:#181818;stroke-width:0.5;" x1="1545.12" x2="1716.3641" y1="241.8869" y2="241.8869"/></g><!--class SummaryReport--><g class="entity" data-qualified-name="SummaryReport" data-source-line="40" id="ent0020"><rect fill="#F1F1F1" height="48" rx="2.5" ry="2.5" style="stroke:#181818;stroke-width:0.5;" width="146.6934" x="1752.39" y="201.8869"/><ellipse cx="1767.39" cy="217.8869" fill="#ADD1B2" rx="11" ry="11" style="stroke:#181818;stroke-width:1;"/><path d="M1770.3588,223.5275 Q1769.7806,223.8244 1769.14,223.965 Q1768.4994,224.1212 1767.7963,224.1212 Q1765.2963,224.1212 1763.9681,222.4806 Q1762.6556,220.8244 1762.6556,217.6994 Q1762.6556,214.5744 1763.9681,212.9181 Q1765.2963,211.2619 1767.7963,211.2619 Q1768.4994,211.2619 1769.14,211.4181 Q1769.7963,211.5744 1770.3588,211.8712 L1770.3588,214.59 Q1769.7338,214.0119 1769.14,213.7462 Q1768.5463,213.465 1767.9213,213.465 Q1766.5775,213.465 1765.89,214.5431 Q1765.2025,215.6056 1765.2025,217.6994 Q1765.2025,219.7931 1765.89,220.8712 Q1766.5775,221.9337 1767.9213,221.9337 Q1768.5463,221.9337 1769.14,221.6681 Q1769.7338,221.3869 1770.3588,220.8087 L1770.3588,223.5275 Z " fill="#000000"/><text fill="#000000" font-family="sans-serif" font-size="14" lengthAdjust="spacing" textLength="114.6934" x="1781.39" y="222.7336">SummaryReport</text><line style="stroke:#181818;stroke-width:0.5;" x1="1753.39" x2="1898.0834" y1="233.8869" y2="233.8869"/><line style="stroke:#181818;stroke-width:0.5;" x1="1753.39" x2="1898.0834" y1="241.8869" y2="241.8869"/></g><!--reverse link DataSource to SourceA--><g class="link" data-entity-1="ent0004" data-entity-2="ent0005" data-link-type="extension" data-source-line="24" id="lnk8"><path codeLine="24" d="M273.0538,270.9659 C251.3538,292.3659 235.93,307.5869 216.26,326.9869" fill="none" id="DataSource-backto-SourceA" style="stroke:#181818;stroke-width:1;stroke-dasharray:7,7;"/><polygon fill="none" points="285.87,258.3269,268.8408,266.6938,277.2668,275.238,285.87,258.3269" style="stroke:#181818;stroke-width:1;"/></g><!--reverse link DataSource to SourceB--><g class="link" data-entity-1="ent0004" data-entity-2="ent0006" data-link-type="extension" data-source-line="25" id="lnk9"><path codeLine="25" d="M317.74,276.3269 C317.74,297.7269 317.74,307.5869 317.74,326.9869" fill="none" id="DataSource-backto-SourceB" style="stroke:#181818;stroke-width:1;stroke-dasharray:7,7;"/><polygon fill="none" points="317.74,258.3269,311.74,276.3269,323.74,276.3269,317.74,258.3269" style="stroke:#181818;stroke-width:1;"/></g><!--reverse link DataSource to SourceC--><g class="link" data-entity-1="ent0004" data-entity-2="ent0007" data-link-type="extension" data-source-line="26" id="lnk10"><path codeLine="26" d="M362.4162,270.9659 C384.1162,292.3659 399.55,307.5869 419.22,326.9869" fill="none" id="DataSource-backto-SourceC" style="stroke:#181818;stroke-width:1;stroke-dasharray:7,7;"/><polygon fill="none" points="349.6,258.3269,358.2032,275.238,366.6292,266.6938,349.6,258.3269" style="stroke:#181818;stroke-width:1;"/></g><!--link MergePipeline to DataSource--><g class="link" data-entity-1="ent0002" data-entity-2="ent0004" data-link-type="dependency" data-source-line="28" id="lnk11"><path codeLine="28" d="M911.03,83.8369 C802.1,95.7169 578.25,125.6469 397.74,185.5969 C391.13,187.7869 389.8849,188.0634 383.2349,190.9134" fill="none" id="MergePipeline-to-DataSource" style="stroke:#181818;stroke-width:1;"/><polygon fill="#181818" points="377.72,193.2769,387.568,193.4082,382.3157,191.3073,384.4166,186.055,377.72,193.2769" style="stroke:#181818;stroke-width:1;"/><text fill="#000000" font-family="sans-serif" font-size="13" lengthAdjust="spacing" textLength="29.7832" x="570.74" y="151.6638">uses</text></g><!--link MergePipeline to MergerService--><g class="link" data-entity-1="ent0002" data-entity-2="ent0003" data-link-type="dependency" data-source-line="29" id="lnk12"><path codeLine="29" d="M910.92,82.7469 C780.79,94.1869 482.08,125.1369 237.74,185.5969 C232.15,186.9769 232.2274,186.8939 226.4874,188.4639" fill="none" id="MergePipeline-to-MergerService" style="stroke:#181818;stroke-width:1;"/><polygon fill="#181818" points="220.7,190.0469,230.4364,191.5307,225.5228,188.7277,228.3258,183.8141,220.7,190.0469" style="stroke:#181818;stroke-width:1;"/></g><!--link MergePipeline to DescriptionProcessor--><g class="link" data-entity-1="ent0002" data-entity-2="ent0013" data-link-type="dependency" data-source-line="42" id="lnk21"><path codeLine="42" d="M910.94,95.7069 C837.75,116.3169 716.19,151.4369 612.74,185.5969 C597.96,190.4769 587.8027,193.9874 572.9727,199.3474" fill="none" id="MergePipeline-to-DescriptionProcessor" style="stroke:#181818;stroke-width:1;stroke-dasharray:7,7;"/><polygon fill="#181818" points="567.33,201.3869,577.1538,202.0895,572.0323,199.6873,574.4345,194.5659,567.33,201.3869" style="stroke:#181818;stroke-width:1;"/></g><!--link MergePipeline to CleanerService--><g class="link" data-entity-1="ent0002" data-entity-2="ent0014" data-link-type="dependency" data-source-line="43" id="lnk22"><path codeLine="43" d="M917.1,109.0769 C864.77,136.8269 795.1708,173.746 748.1008,198.706" fill="none" id="MergePipeline-to-CleanerService" style="stroke:#181818;stroke-width:1;stroke-dasharray:7,7;"/><polygon fill="#181818" points="742.8,201.5169,752.6252,200.8344,747.2174,199.1745,748.8773,193.7666,742.8,201.5169" style="stroke:#181818;stroke-width:1;"/></g><!--link MergePipeline to NormalizerService--><g class="link" data-entity-1="ent0002" data-entity-2="ent0015" data-link-type="dependency" data-source-line="44" id="lnk23"><path codeLine="44" d="M956.57,109.0769 C938.88,136.8269 916.7751,171.4973 900.8651,196.4573" fill="none" id="MergePipeline-to-NormalizerService" style="stroke:#181818;stroke-width:1;stroke-dasharray:7,7;"/><polygon fill="#181818" points="897.64,201.5169,905.8506,196.0776,900.3275,197.3006,899.1046,191.7775,897.64,201.5169" style="stroke:#181818;stroke-width:1;"/></g><!--link MergePipeline to CategoryService--><g class="link" data-entity-1="ent0002" data-entity-2="ent0016" data-link-type="dependency" data-source-line="45" id="lnk24"><path codeLine="45" d="M997.12,109.0769 C1015,136.8269 1037.3391,171.5139 1053.4291,196.4739" fill="none" id="MergePipeline-to-CategoryService" style="stroke:#181818;stroke-width:1;stroke-dasharray:7,7;"/><polygon fill="#181818" points="1056.68,201.5169,1055.1657,191.7851,1053.9709,197.3144,1048.4417,196.1196,1056.68,201.5169" style="stroke:#181818;stroke-width:1;"/></g><!--link MergePipeline to IOService--><g class="link" data-entity-1="ent0002" data-entity-2="ent0017" data-link-type="dependency" data-source-line="46" id="lnk25"><path codeLine="46" d="M1030.89,108.8569 C1068.02,130.4169 1118.39,159.6969 1162.74,185.5969 C1171.59,190.7569 1175.9153,193.29 1184.8953,198.56" fill="none" id="MergePipeline-to-IOService" style="stroke:#181818;stroke-width:1;stroke-dasharray:7,7;"/><polygon fill="#181818" points="1190.07,201.5969,1184.3325,193.5918,1185.7577,199.0662,1180.2834,200.4914,1190.07,201.5969" style="stroke:#181818;stroke-width:1;"/></g><!--link MergePipeline to VennDiagramVisualizer--><g class="link" data-entity-1="ent0002" data-entity-2="ent0018" data-link-type="dependency" data-source-line="47" id="lnk26"><path codeLine="47" d="M1042.64,99.6469 C1107.36,121.4669 1208.87,155.7369 1296.74,185.5969 C1311.82,190.7169 1322.3325,194.2962 1337.6625,199.5362" fill="none" id="MergePipeline-to-VennDiagramVisualizer" style="stroke:#181818;stroke-width:1;stroke-dasharray:7,7;"/><polygon fill="#181818" points="1343.34,201.4769,1336.1175,194.7809,1338.6088,199.8597,1333.53,202.3509,1343.34,201.4769" style="stroke:#181818;stroke-width:1;"/></g><!--link MergePipeline to HistogramReportJob--><g class="link" data-entity-1="ent0002" data-entity-2="ent0019" data-link-type="dependency" data-source-line="48" id="lnk27"><path codeLine="48" d="M1042.34,86.7069 C1146.31,102.2069 1354.77,136.5669 1526.74,185.5969 C1542.24,190.0069 1553.0748,193.6128 1568.2148,199.3128" fill="none" id="MergePipeline-to-HistogramReportJob" style="stroke:#181818;stroke-width:1;stroke-dasharray:7,7;"/><polygon fill="#181818" points="1573.83,201.4269,1566.8165,194.5123,1569.1506,199.6652,1563.9978,201.9993,1573.83,201.4269" style="stroke:#181818;stroke-width:1;"/></g><!--link MergePipeline to SummaryReport--><g class="link" data-entity-1="ent0002" data-entity-2="ent0020" data-link-type="dependency" data-source-line="49" id="lnk28"><path codeLine="49" d="M1042.59,80.9469 C1175.64,89.3069 1485.08,115.2369 1734.74,185.5969 C1749.15,189.6569 1758.7658,193.1086 1772.4558,199.0486" fill="none" id="MergePipeline-to-SummaryReport" style="stroke:#181818;stroke-width:1;stroke-dasharray:7,7;"/><polygon fill="#181818" points="1777.96,201.4369,1771.2958,194.185,1773.3732,199.4467,1768.1115,201.524,1777.96,201.4369" style="stroke:#181818;stroke-width:1;"/></g><?plantuml-src VLBDJW8n6BptARwR48Lu9ah2dn5PNS8I4hcGilknDkwscxPh0kh1eqSVWMSXlfSB1VTNUzflPZhjJ5Sp7I3Cc8V2fo52dseAzoXzX0ROzXY4skZTDbXxZFgIXb3RRRN6PyRrzrUT49LyHNHFk05LggErPCjOuz0Lt64RX4j2pk3QB9ZiFfsvDPWE7B2T-NJtOJtQenDBoC72d3vc4GQC8xmIW7CPyrgTlESKqa7vmjoZ8jn32oLYwQAgqGjONe1RJndAlSMASHeaTqhfn349Wd95NHFTEHWOoq1GhnPH_TG2fMNcU2FgvAPkRkeHad6xUcisVpTLuzq_yCGeNqUZqSvUj0MnGbMXoLMKVOAUqnd1pS1ox8bjJVzvXZugLx98Cy77KYIjAY6FL2z0obDt0pu86HxgBU0zgj4NSfr7XtP-dY7dVVEBpPYAZT6HksLAYpqpmKX8VIUMfxBZCAHoRU1YKyrckpf3MLR8KnQKirMO57AM5MdcCbUTlwohwA8iolNo0m00?></g></svg>