<?plantuml 1.2026.2beta3?><svg xmlns="http://www.w3.org/2000/svg" xmlns:xlink="http://www.w3.org/1999/xlink" contentStyleType="text/css" data-diagram-type="CLASS" height="382px" preserveAspectRatio="none" style="width:1905px;height:382px;background:#FFFFFF;" version="1.1" viewBox="0 0 1905 382" width="1905px" zoomAndPan="magnify"><title>Videogame Data Merge - OOP oszt&#225;lydiagram (&#225;ttekint&#337;)</title><defs/><g><g class="title" data-source-line="1"><text fill="#000000" font-family="sans-serif" font-size="14" font-weight="bold" lengthAdjust="spacing" textLength="451.3975" x="720.1733" y="22.9951">Videogame Data Merge - OOP oszt&#225;lydiagram (&#225;ttekint&#337;)</text></g><!--class Service--><g class="entity" data-qualified-name="Service" data-source-line="7" id="ent0002"><rect fill="#F1F1F1" height="48" rx="2.5" ry="2.5" style="stroke:#181818;stroke-width:0.5;" width="83.7412" x="392.25" y="52.4469"/><ellipse cx="407.25" cy="68.4469" fill="#A9DCDF" rx="11" ry="11" style="stroke:#181818;stroke-width:1;"/><path d="M407.3594,63.7906 L406.2031,68.8687 L408.5313,68.8687 L407.3594,63.7906 Z M405.875,61.5562 L408.8594,61.5562 L412.2188,73.9469 L409.7656,73.9469 L409,70.8844 L405.7188,70.8844 L404.9688,73.9469 L402.5313,73.9469 L405.875,61.5562 Z " fill="#000000"/><text fill="#000000" font-family="sans-serif" font-size="14" font-style="italic" lengthAdjust="spacing" textLength="51.7412" x="421.25" y="73.2936">Service</text><line style="stroke:#181818;stroke-width:0.5;" x1="393.25" x2="474.9912" y1="84.4469" y2="84.4469"/><line style="stroke:#181818;stroke-width:0.5;" x1="393.25" x2="474.9912" y1="92.4469" y2="92.4469"/></g><!--class Processor--><g class="entity" data-qualified-name="Processor" data-source-line="8" id="ent0003"><rect fill="#F1F1F1" height="48" rx="2.5" ry="2.5" style="stroke:#181818;stroke-width:0.5;" width="99.9834" x="1320.13" y="52.4469"/><ellipse cx="1335.13" cy="68.4469" fill="#A9DCDF" rx="11" ry="11" style="stroke:#181818;stroke-width:1;"/><path d="M1335.2394,63.7906 L1334.0831,68.8687 L1336.4113,68.8687 L1335.2394,63.7906 Z M1333.755,61.5562 L1336.7394,61.5562 L1340.0988,73.9469 L1337.6456,73.9469 L1336.88,70.8844 L1333.5988,70.8844 L1332.8488,73.9469 L1330.4113,73.9469 L1333.755,61.5562 Z " fill="#000000"/><text fill="#000000" font-family="sans-serif" font-size="14" font-style="italic" lengthAdjust="spacing" textLength="67.9834" x="1349.13" y="73.2936">Processor</text><line style="stroke:#181818;stroke-width:0.5;" x1="1321.13" x2="1419.1134" y1="84.4469" y2="84.4469"/><line style="stroke:#181818;stroke-width:0.5;" x1="1321.13" x2="1419.1134" y1="92.4469" y2="92.4469"/></g><!--class Visualizer--><g class="entity" data-qualified-name="Visualizer" data-source-line="9" id="ent0004"><rect fill="#F1F1F1" height="48" rx="2.5" ry="2.5" style="stroke:#181818;stroke-width:0.5;" width="99.71" x="1543.27" y="52.4469"/><ellipse cx="1558.27" cy="68.4469" fill="#A9DCDF" rx="11" ry="11" style="stroke:#181818;stroke-width:1;"/><path d="M1558.3794,63.7906 L1557.2231,68.8687 L1559.5513,68.8687 L1558.3794,63.7906 Z M1556.895,61.5562 L1559.8794,61.5562 L1563.2388,73.9469 L1560.7856,73.9469 L1560.02,70.8844 L1556.7388,70.8844 L1555.9888,73.9469 L1553.5513,73.9469 L1556.895,61.5562 Z " fill="#000000"/><text fill="#000000" font-family="sans-serif" font-size="14" font-style="italic" lengthAdjust="spacing" textLength="67.71" x="1572.27" y="73.2936">Visualizer</text><line style="stroke:#181818;stroke-width:0.5;" x1="1544.27" x2="1641.98" y1="84.4469" y2="84.4469"/><line style="stroke:#181818;stroke-width:0.5;" x1="1544.27" x2="1641.98" y1="92.4469" y2="92.4469"/></g><!--class Job--><g class="entity" data-qualified-name="Job" data-source-line="10" id="ent0005"><rect fill="#F1F1F1" height="48" rx="2.5" ry="2.5" style="stroke:#181818;stroke-width:0.5;" width="53.5811" x="1785.33" y="52.4469"/><ellipse cx="1800.33" cy="68.4469" fill="#A9DCDF" rx="11" ry="11" style="stroke:#181818;stroke-width:1;"/><path d="M1800.4394,63.7906 L1799.2831,68.8687 L1801.6113,68.8687 L1800.4394,63.7906 Z M1798.955,61.5562 L1801.9394,61.5562 L1805.2988,73.9469 L1802.8456,73.9469 L1802.08,70.8844 L1798.7988,70.8844 L1798.0488,73.9469 L1795.6113,73.9469 L1798.955,61.5562 Z " fill="#000000"/><text fill="#000000" font-family="sans-serif" font-size="14" font-style="italic" lengthAdjust="spacing" textLength="21.5811" x="1814.33" y="73.2936">Job</text><line style="stroke:#181818;stroke-width:0.5;" x1="1786.33" x2="1837.9111" y1="84.4469" y2="84.4469"/><line style="stroke:#181818;stroke-width:0.5;" x1="1786.33" x2="1837.9111" y1="92.4469" y2="92.4469"/></g><!--class Report--><g class="entity" data-qualified-name="Report" data-source-line="11" id="ent0006"><rect fill="#F1F1F1" height="48" rx="2.5" ry="2.5" style="stroke:#181818;stroke-width:0.5;" width="79.0381" x="1132.61" y="52.4469"/><ellipse cx="1147.61" cy="68.4469" fill="#A9DCDF" rx="11" ry="11" style="stroke:#181818;stroke-width:1;"/><path d="M1147.7194,63.7906 L1146.5631,68.8687 L1148.8913,68.8687 L1147.7194,63.7906 Z M1146.235,61.5562 L1149.2194,61.5562 L1152.5788,73.9469 L1150.1256,73.9469 L1149.36,70.8844 L1146.0788,70.8844 L1145.3288,73.9469 L1142.8913,73.9469 L1146.235,61.5562 Z " fill="#000000"/><text fill="#000000" font-family="sans-serif" font-size="14" font-style="italic" lengthAdjust="spacing" textLength="47.0381" x="1161.61" y="73.2936">Report</text><line style="stroke:#181818;stroke-width:0.5;" x1="1133.61" x2="1210.6481" y1="84.4469" y2="84.4469"/><line style="stroke:#181818;stroke-width:0.5;" x1="1133.61" x2="1210.6481" y1="92.4469" y2="92.4469"/></g><!--class MergePipeline--><g class="entity" data-qualified-name="MergePipeline" data-source-line="15" id="ent0007"><rect fill="#F1F1F1" height="64.2969" rx="2.5" ry="2.5" style="stroke:#181818;stroke-width:0.5;" width="131.0459" x="811.6" y="44.2969"/><ellipse cx="826.6" cy="60.2969" fill="#ADD1B2" rx="11" ry="11" style="stroke:#181818;stroke-width:1;"/><path d="M829.5688,65.9375 Q828.9906,66.2344 828.35,66.375 Q827.7094,66.5313 827.0063,66.5313 Q824.5063,66.5313 823.1781,64.8906 Q821.8656,63.2344 821.8656,60.1094 Q821.8656,56.9844 823.1781,55.3281 Q824.5063,53.6719 827.0063,53.6719 Q827.7094,53.6719 828.35,53.8281 Q829.0063,53.9844 829.5688,54.2813 L829.5688,57 Q828.9438,56.4219 828.35,56.1563 Q827.7563,55.875 827.1313,55.875 Q825.7875,55.875 825.1,56.9531 Q824.4125,58.0156 824.4125,60.1094 Q824.4125,62.2031 825.1,63.2813 Q825.7875,64.3438 827.1313,64.3438 Q827.7563,64.3438 828.35,64.0781 Q828.9438,63.7969 829.5688,63.2188 L829.5688,65.9375 Z " fill="#000000"/><text fill="#000000" font-family="sans-serif" font-size="14" lengthAdjust="spacing" textLength="99.0459" x="840.6" y="65.1436">MergePipeline</text><line style="stroke:#181818;stroke-width:0.5;" x1="812.6" x2="941.6459" y1="76.2969" y2="76.2969"/><line style="stroke:#181818;stroke-width:0.5;" x1="812.6" x2="941.6459" y1="84.2969" y2="84.2969"/><text fill="#000000" font-family="sans-serif" font-size="14" lengthAdjust="spacing" textLength="46.1563" x="817.6" y="101.292">+run()</text></g><!--class MergerService--><g class="entity" data-qualified-name="MergerService" data-source-line="19" id="ent0008"><rect fill="#F1F1F1" height="80.5938" rx="2.5" ry="2.5" style="stroke:#181818;stroke-width:0.5;" width="213.4756" x="518.39" y="185.5969"/><ellipse cx="570.1551" cy="201.5969" fill="#ADD1B2" rx="11" ry="11" style="stroke:#181818;stroke-width:1;"/><path d="M573.1239,207.2375 Q572.5458,207.5344 571.9051,207.675 Q571.2645,207.8312 570.5614,207.8312 Q568.0614,207.8312 566.7333,206.1906 Q565.4208,204.5344 565.4208,201.4094 Q565.4208,198.2844 566.7333,196.6281 Q568.0614,194.9719 570.5614,194.9719 Q571.2645,194.9719 571.9051,195.1281 Q572.5614,195.2844 573.1239,195.5812 L573.1239,198.3 Q572.4989,197.7219 571.9051,197.4562 Q571.3114,197.175 570.6864,197.175 Q569.3426,197.175 568.6551,198.2531 Q567.9676,199.3156 567.9676,201.4094 Q567.9676,203.5031 568.6551,204.5812 Q569.3426,205.6437 570.6864,205.6437 Q571.3114,205.6437 571.9051,205.3781 Q572.4989,205.0969 573.1239,204.5187 L573.1239,207.2375 Z " fill="#000000"/><text fill="#000000" font-family="sans-serif" font-size="14" lengthAdjust="spacing" textLength="101.4453" x="590.6551" y="206.4436">MergerService</text><line style="stroke:#181818;stroke-width:0.5;" x1="519.39" x2="730.8656" y1="217.5969" y2="217.5969"/><line style="stroke:#181818;stroke-width:0.5;" x1="519.39" x2="730.8656" y1="225.5969" y2="225.5969"/><text fill="#000000" font-family="sans-serif" font-size="14" lengthAdjust="spacing" textLength="172.2178" x="524.39" y="242.592">+merge_sources(a, b, c)</text><text fill="#000000" font-family="sans-serif" font-size="14" lengthAdjust="spacing" textLength="201.4756" x="524.39" y="258.8889">+merge_and_finalize(a, b, c)</text></g><!--class DataSource--><g class="entity" data-qualified-name="DataSource" data-source-line="25" id="ent0010"><rect fill="#F1F1F1" height="64.2969" rx="2.5" ry="2.5" style="stroke:#181818;stroke-width:0.5;" width="124.1094" x="940.07" y="193.7369"/><ellipse cx="959.7005" cy="209.7369" fill="#B4A7E5" rx="11" ry="11" style="stroke:#181818;stroke-width:1;"/><path d="M955.6224,205.5025 L955.6224,203.3463 L963.013,203.3463 L963.013,205.5025 L960.5443,205.5025 L960.5443,213.5806 L963.013,213.5806 L963.013,215.7369 L955.6224,215.7369 L955.6224,213.5806 L958.0911,213.5806 L958.0911,205.5025 L955.6224,205.5025 Z " fill="#000000"/><text fill="#000000" font-family="sans-serif" font-size="14" font-style="italic" lengthAdjust="spacing" textLength="81.8193" x="974.7295" y="214.5836">DataSource</text><line style="stroke:#181818;stroke-width:0.5;" x1="941.07" x2="1063.1794" y1="225.7369" y2="225.7369"/><line style="stroke:#181818;stroke-width:0.5;" x1="941.07" x2="1063.1794" y1="233.7369" y2="233.7369"/><text fill="#000000" font-family="sans-serif" font-size="14" lengthAdjust="spacing" textLength="112.1094" x="946.07" y="250.732">+load(path: str)</text></g><!--class SourceA--><g class="entity" data-qualified-name="SourceA" data-source-line="29" id="ent0011"><rect fill="#F1F1F1" height="48" rx="2.5" ry="2.5" style="stroke:#181818;stroke-width:0.5;" width="89.9688" x="832.14" y="327.1869"/><ellipse cx="847.14" cy="343.1869" fill="#ADD1B2" rx="11" ry="11" style="stroke:#181818;stroke-width:1;"/><path d="M850.1088,348.8275 Q849.5306,349.1244 848.89,349.265 Q848.2494,349.4213 847.5463,349.4213 Q845.0463,349.4213 843.7181,347.7806 Q842.4056,346.1244 842.4056,342.9994 Q842.4056,339.8744 843.7181,338.2181 Q845.0463,336.5619 847.5463,336.5619 Q848.2494,336.5619 848.89,336.7181 Q849.5463,336.8744 850.1088,337.1713 L850.1088,339.89 Q849.4838,339.3119 848.89,339.0463 Q848.2963,338.765 847.6713,338.765 Q846.3275,338.765 845.64,339.8431 Q844.9525,340.9056 844.9525,342.9994 Q844.9525,345.0931 845.64,346.1713 Q846.3275,347.2338 847.6713,347.2338 Q848.2963,347.2338 848.89,346.9681 Q849.4838,346.6869 850.1088,346.1088 L850.1088,348.8275 Z " fill="#000000"/><text fill="#000000" font-family="sans-serif" font-size="14" lengthAdjust="spacing" textLength="57.9688" x="861.14" y="348.0336">SourceA</text><line style="stroke:#181818;stroke-width:0.5;" x1="833.14" x2="921.1088" y1="359.1869" y2="359.1869"/><line style="stroke:#181818;stroke-width:0.5;" x1="833.14" x2="921.1088" y1="367.1869" y2="367.1869"/></g><!--class SourceB--><g class="entity" data-qualified-name="SourceB" data-source-line="30" id="ent0012"><rect fill="#F1F1F1" height="48" rx="2.5" ry="2.5" style="stroke:#181818;stroke-width:0.5;" width="89.9961" x="957.13" y="327.1869"/><ellipse cx="972.13" cy="343.1869" fill="#ADD1B2" rx="11" ry="11" style="stroke:#181818;stroke-width:1;"/><path d="M975.0988,348.8275 Q974.5206,349.1244 973.88,349.265 Q973.2394,349.4213 972.5363,349.4213 Q970.0363,349.4213 968.7081,347.7806 Q967.3956,346.1244 967.3956,342.9994 Q967.3956,339.8744 968.7081,338.2181 Q970.0363,336.5619 972.5363,336.5619 Q973.2394,336.5619 973.88,336.7181 Q974.5363,336.8744 975.0988,337.1713 L975.0988,339.89 Q974.4738,339.3119 973.88,339.0463 Q973.2863,338.765 972.6613,338.765 Q971.3175,338.765 970.63,339.8431 Q969.9425,340.9056 969.9425,342.9994 Q969.9425,345.0931 970.63,346.1713 Q971.3175,347.2338 972.6613,347.2338 Q973.2863,347.2338 973.88,346.9681 Q974.4738,346.6869 975.0988,346.1088 L975.0988,348.8275 Z " fill="#000000"/><text fill="#000000" font-family="sans-serif" font-size="14" lengthAdjust="spacing" textLength="57.9961" x="986.13" y="348.0336">SourceB</text><line style="stroke:#181818;stroke-width:0.5;" x1="958.13" x2="1046.1261" y1="359.1869" y2="359.1869"/><line style="stroke:#181818;stroke-width:0.5;" x1="958.13" x2="1046.1261" y1="367.1869" y2="367.1869"/></g><!--class SourceC--><g class="entity" data-qualified-name="SourceC" data-source-line="31" id="ent0013"><rect fill="#F1F1F1" height="48" rx="2.5" ry="2.5" style="stroke:#181818;stroke-width:0.5;" width="90.167" x="1082.04" y="327.1869"/><ellipse cx="1097.04" cy="343.1869" fill="#ADD1B2" rx="11" ry="11" style="stroke:#181818;stroke-width:1;"/><path d="M1100.0088,348.8275 Q1099.4306,349.1244 1098.79,349.265 Q1098.1494,349.4213 1097.4463,349.4213 Q1094.9463,349.4213 1093.6181,347.7806 Q1092.3056,346.1244 1092.3056,342.9994 Q1092.3056,339.8744 1093.6181,338.2181 Q1094.9463,336.5619 1097.4463,336.5619 Q1098.1494,336.5619 1098.79,336.7181 Q1099.4463,336.8744 1100.0088,337.1713 L1100.0088,339.89 Q1099.3838,339.3119 1098.79,339.0463 Q1098.1963,338.765 1097.5713,338.765 Q1096.2275,338.765 1095.54,339.8431 Q1094.8525,340.9056 1094.8525,342.9994 Q1094.8525,345.0931 1095.54,346.1713 Q1096.2275,347.2338 1097.5713,347.2338 Q1098.1963,347.2338 1098.79,346.9681 Q1099.3838,346.6869 1100.0088,346.1088 L1100.0088,348.8275 Z " fill="#000000"/><text fill="#000000" font-family="sans-serif" font-size="14" lengthAdjust="spacing" textLength="58.167" x="1111.04" y="348.0336">SourceC</text><line style="stroke:#181818;stroke-width:0.5;" x1="1083.04" x2="1171.207" y1="359.1869" y2="359.1869"/><line style="stroke:#181818;stroke-width:0.5;" x1="1083.04" x2="1171.207" y1="367.1869" y2="367.1869"/></g><!--class DescriptionProcessor--><g class="entity" data-qualified-name="DescriptionProcessor" data-source-line="43" id="ent0019"><rect fill="#F1F1F1" height="48" rx="2.5" ry="2.5" style="stroke:#181818;stroke-width:0.5;" width="179.7178" x="1280.27" y="201.8869"/><ellipse cx="1295.27" cy="217.8869" fill="#ADD1B2" rx="11" ry="11" style="stroke:#181818;stroke-width:1;"/><path d="M1298.2388,223.5275 Q1297.6606,223.8244 1297.02,223.965 Q1296.3794,224.1212 1295.6763,224.1212 Q1293.1763,224.1212 1291.8481,222.4806 Q1290.5356,220.8244 1290.5356,217.6994 Q1290.5356,214.5744 1291.8481,212.9181 Q1293.1763,211.2619 1295.6763,211.2619 Q1296.3794,211.2619 1297.02,211.4181 Q1297.6763,211.5744 1298.2388,211.8712 L1298.2388,214.59 Q1297.6138,214.0119 1297.02,213.7462 Q1296.4263,213.465 1295.8013,213.465 Q1294.4575,213.465 1293.77,214.5431 Q1293.0825,215.6056 1293.0825,217.6994 Q1293.0825,219.7931 1293.77,220.8712 Q1294.4575,221.9337 1295.8013,221.9337 Q1296.4263,221.9337 1297.02,221.6681 Q1297.6138,221.3869 1298.2388,220.8087 L1298.2388,223.5275 Z " fill="#000000"/><text fill="#000000" font-family="sans-serif" font-size="14" lengthAdjust="spacing" textLength="147.7178" x="1309.27" y="222.7336">DescriptionProcessor</text><line style="stroke:#181818;stroke-width:0.5;" x1="1281.27" x2="1458.9878" y1="233.8869" y2="233.8869"/><line style="stroke:#181818;stroke-width:0.5;" x1="1281.27" x2="1458.9878" y1="241.8869" y2="241.8869"/></g><!--class CleanerService--><g class="entity" data-qualified-name="CleanerService" data-source-line="44" id="ent0020"><rect fill="#F1F1F1" height="48" rx="2.5" ry="2.5" style="stroke:#181818;stroke-width:0.5;" width="137.8408" x="767.2" y="201.8869"/><ellipse cx="782.2" cy="217.8869" fill="#ADD1B2" rx="11" ry="11" style="stroke:#181818;stroke-width:1;"/><path d="M785.1688,223.5275 Q784.5906,223.8244 783.95,223.965 Q783.3094,224.1212 782.6063,224.1212 Q780.1063,224.1212 778.7781,222.4806 Q777.4656,220.8244 777.4656,217.6994 Q777.4656,214.5744 778.7781,212.9181 Q780.1063,211.2619 782.6063,211.2619 Q783.3094,211.2619 783.95,211.4181 Q784.6063,211.5744 785.1688,211.8712 L785.1688,214.59 Q784.5438,214.0119 783.95,213.7462 Q783.3563,213.465 782.7313,213.465 Q781.3875,213.465 780.7,214.5431 Q780.0125,215.6056 780.0125,217.6994 Q780.0125,219.7931 780.7,220.8712 Q781.3875,221.9337 782.7313,221.9337 Q783.3563,221.9337 783.95,221.6681 Q784.5438,221.3869 785.1688,220.8087 L785.1688,223.5275 Z " fill="#000000"/><text fill="#000000" font-family="sans-serif" font-size="14" lengthAdjust="spacing" textLength="105.8408" x="796.2" y="222.7336">CleanerService</text><line style="stroke:#181818;stroke-width:0.5;" x1="768.2" x2="904.0408" y1="233.8869" y2="233.8869"/><line style="stroke:#181818;stroke-width:0.5;" x1="768.2" x2="904.0408" y1="241.8869" y2="241.8869"/></g><!--class NormalizerService--><g class="entity" data-qualified-name="NormalizerService" data-source-line="45" id="ent0021"><rect fill="#F1F1F1" height="48" rx="2.5" ry="2.5" style="stroke:#181818;stroke-width:0.5;" width="160.249" x="7" y="201.8869"/><ellipse cx="22" cy="217.8869" fill="#ADD1B2" rx="11" ry="11" style="stroke:#181818;stroke-width:1;"/><path d="M24.9688,223.5275 Q24.3906,223.8244 23.75,223.965 Q23.1094,224.1212 22.4063,224.1212 Q19.9063,224.1212 18.5781,222.4806 Q17.2656,220.8244 17.2656,217.6994 Q17.2656,214.5744 18.5781,212.9181 Q19.9063,211.2619 22.4063,211.2619 Q23.1094,211.2619 23.75,211.4181 Q24.4063,211.5744 24.9688,211.8712 L24.9688,214.59 Q24.3438,214.0119 23.75,213.7462 Q23.1563,213.465 22.5313,213.465 Q21.1875,213.465 20.5,214.5431 Q19.8125,215.6056 19.8125,217.6994 Q19.8125,219.7931 20.5,220.8712 Q21.1875,221.9337 22.5313,221.9337 Q23.1563,221.9337 23.75,221.6681 Q24.3438,221.3869 24.9688,220.8087 L24.9688,223.5275 Z " fill="#000000"/><text fill="#000000" font-family="sans-serif" font-size="14" lengthAdjust="spacing" textLength="128.249" x="36" y="222.7336">NormalizerService</text><line style="stroke:#181818;stroke-width:0.5;" x1="8" x2="166.249" y1="233.8869" y2="233.8869"/><line style="stroke:#181818;stroke-width:0.5;" x1="8" x2="166.249" y1="241.8869" y2="241.8869"/></g><!--class CategoryService--><g class="entity" data-qualified-name="CategoryService" data-source-line="46" id="ent0022"><rect fill="#F1F1F1" height="48" rx="2.5" ry="2.5" style="stroke:#181818;stroke-width:0.5;" width="147.6914" x="202.28" y="201.8869"/><ellipse cx="217.28" cy="217.8869" fill="#ADD1B2" rx="11" ry="11" style="stroke:#181818;stroke-width:1;"/><path d="M220.2488,223.5275 Q219.6706,223.8244 219.03,223.965 Q218.3894,224.1212 217.6863,224.1212 Q215.1863,224.1212 213.8581,222.4806 Q212.5456,220.8244 212.5456,217.6994 Q212.5456,214.5744 213.8581,212.9181 Q215.1863,211.2619 217.6863,211.2619 Q218.3894,211.2619 219.03,211.4181 Q219.6863,211.5744 220.2488,211.8712 L220.2488,214.59 Q219.6238,214.0119 219.03,213.7462 Q218.4363,213.465 217.8113,213.465 Q216.4675,213.465 215.78,214.5431 Q215.0925,215.6056 215.0925,217.6994 Q215.0925,219.7931 215.78,220.8712 Q216.4675,221.9337 217.8113,221.9337 Q218.4363,221.9337 219.03,221.6681 Q219.6238,221.3869 220.2488,220.8087 L220.2488,223.5275 Z " fill="#000000"/><text fill="#000000" font-family="sans-serif" font-size="14" lengthAdjust="spacing" textLength="115.6914" x="231.28" y="222.7336">CategoryService</text><line style="stroke:#181818;stroke-width:0.5;" x1="203.28" x2="348.9714" y1="233.8869" y2="233.8869"/><line style="stroke:#181818;stroke-width:0.5;" x1="203.28" x2="348.9714" y1="241.8869" y2="241.8869"/></g><!--class IOService--><g class="entity" data-qualified-name="IOService" data-source-line="47" id="ent0023"><rect fill="#F1F1F1" height="48" rx="2.5" ry="2.5" style="stroke:#181818;stroke-width:0.5;" width="98.8896" x="384.68" y="201.8869"/><ellipse cx="399.68" cy="217.8869" fill="#ADD1B2" rx="11" ry="11" style="stroke:#181818;stroke-width:1;"/><path d="M402.6488,223.5275 Q402.0706,223.8244 401.43,223.965 Q400.7894,224.1212 400.0863,224.1212 Q397.5863,224.1212 396.2581,222.4806 Q394.9456,220.8244 394.9456,217.6994 Q394.9456,214.5744 396.2581,212.9181 Q397.5863,211.2619 400.0863,211.2619 Q400.7894,211.2619 401.43,211.4181 Q402.0863,211.5744 402.6488,211.8712 L402.6488,214.59 Q402.0238,214.0119 401.43,213.7462 Q400.8363,213.465 400.2113,213.465 Q398.8675,213.465 398.18,214.5431 Q397.4925,215.6056 397.4925,217.6994 Q397.4925,219.7931 398.18,220.8712 Q398.8675,221.9337 400.2113,221.9337 Q400.8363,221.9337 401.43,221.6681 Q402.0238,221.3869 402.6488,220.8087 L402.6488,223.5275 Z " fill="#000000"/><text fill="#000000" font-family="sans-serif" font-size="14" lengthAdjust="spacing" textLength="66.8896" x="413.68" y="222.7336">IOService</text><line style="stroke:#181818;stroke-width:0.5;" x1="385.68" x2="482.5696" y1="233.8869" y2="233.8869"/><line style="stroke:#181818;stroke-width:0.5;" x1="385.68" x2="482.5696" y1="241.8869" y2="241.8869"/></g><!--class VennDiagramVisualizer--><g class="entity" data-qualified-name="VennDiagramVisualizer" data-source-line="48" id="ent0024"><rect fill="#F1F1F1" height="48" rx="2.5" ry="2.5" style="stroke:#181818;stroke-width:0.5;" width="195.7549" x="1495.25" y="201.8869"/><ellipse cx="1510.25" cy="217.8869" fill="#ADD1B2" rx="11" ry="11" style="stroke:#181818;stroke-width:1;"/><path d="M1513.2188,223.5275 Q1512.6406,223.8244 1512,223.965 Q1511.3594,224.1212 1510.6563,224.1212 Q1508.1563,224.1212 1506.8281,222.4806 Q1505.5156,220.8244 1505.5156,217.6994 Q1505.5156,214.5744 1506.8281,212.9181 Q1508.1563,211.2619 1510.6563,211.2619 Q1511.3594,211.2619 1512,211.4181 Q1512.6563,211.5744 1513.2188,211.8712 L1513.2188,214.59 Q1512.5938,214.0119 1512,213.7462 Q1511.4063,213.465 1510.7813,213.465 Q1509.4375,213.465 1508.75,214.5431 Q1508.0625,215.6056 1508.0625,217.6994 Q1508.0625,219.7931 1508.75,220.8712 Q1509.4375,221.9337 1510.7813,221.9337 Q1511.4063,221.9337 1512,221.6681 Q1512.5938,221.3869 1513.2188,220.8087 L1513.2188,223.5275 Z " fill="#000000"/><text fill="#000000" font-family="sans-serif" font-size="14" lengthAdjust="spacing" textLength="163.7549" x="1524.25" y="222.7336">VennDiagramVisualizer</text><line style="stroke:#181818;stroke-width:0.5;" x1="1496.25" x2="1690.0049" y1="233.8869" y2="233.8869"/><line style="stroke:#181818;stroke-width:0.5;" x1="1496.25" x2="1690.0049" y1="241.8869" y2="241.8869"/></g><!--class HistogramReportJob--><g class="entity" data-qualified-name="HistogramReportJob" data-source-line="49" id="ent0025"><rect fill="#F1F1F1" height="48" rx="2.5" ry="2.5" style="stroke:#181818;stroke-width:0.5;" width="173.2441" x="1725.5" y="201.8869"/><ellipse cx="1740.5" cy="217.8869" fill="#ADD1B2" rx="11" ry="11" style="stroke:#181818;stroke-width:1;"/><path d="M1743.4688,223.5275 Q1742.8906,223.8244 1742.25,223.965 Q1741.6094,224.1212 1740.9063,224.1212 Q1738.4063,224.1212 1737.0781,222.4806 Q1735.7656,220.8244 1735.7656,217.6994 Q1735.7656,214.5744 1737.0781,212.9181 Q1738.4063,211.2619 1740.9063,211.2619 Q1741.6094,211.2619 1742.25,211.4181 Q1742.9063,211.5744 1743.4688,211.8712 L1743.4688,214.59 Q1742.8438,214.0119 1742.25,213.7462 Q1741.6563,213.465 1741.0313,213.465 Q1739.6875,213.465 1739,214.5431 Q1738.3125,215.6056 1738.3125,217.6994 Q1738.3125,219.7931 1739,220.8712 Q1739.6875,221.9337 1741.0313,221.9337 Q1741.6563,221.9337 1742.25,221.6681 Q1742.8438,221.3869 1743.4688,220.8087 L1743.4688,223.5275 Z " fill="#000000"/><text fill="#000000" font-family="sans-serif" font-size="14" lengthAdjust="spacing" textLength="141.2441" x="1754.5" y="222.7336">HistogramReportJob</text><line style="stroke:#181818;stroke-width:0.5;" x1="1726.5" x2="1897.7441" y1="233.8869" y2="233.8869"/><line style="stroke:#181818;stroke-width:0.5;" x1="1726.5" x2="1897.7441" y1="241.8869" y2="241.8869"/></g><!--class SummaryReport--><g class="entity" data-qualified-name="SummaryReport" data-source-line="50" id="ent0026"><rect fill="#F1F1F1" height="48" rx="2.5" ry="2.5" style="stroke:#181818;stroke-width:0.5;" width="146.6934" x="1098.78" y="201.8869"/><ellipse cx="1113.78" cy="217.8869" fill="#ADD1B2" rx="11" ry="11" style="stroke:#181818;stroke-width:1;"/><path d="M1116.7488,223.5275 Q1116.1706,223.8244 1115.53,223.965 Q1114.8894,224.1212 1114.1863,224.1212 Q1111.6863,224.1212 1110.3581,222.4806 Q1109.0456,220.8244 1109.0456,217.6994 Q1109.0456,214.5744 1110.3581,212.9181 Q1111.6863,211.2619 1114.1863,211.2619 Q1114.8894,211.2619 1115.53,211.4181 Q1116.1863,211.5744 1116.7488,211.8712 L1116.7488,214.59 Q1116.1238,214.0119 1115.53,213.7462 Q1114.9363,213.465 1114.3113,213.465 Q1112.9675,213.465 1112.28,214.5431 Q1111.5925,215.6056 1111.5925,217.6994 Q1111.5925,219.7931 1112.28,220.8712 Q1112.9675,221.9337 1114.3113,221.9337 Q1114.9363,221.9337 1115.53,221.6681 Q1116.1238,221.3869 1116.7488,220.8087 L1116.7488,223.5275 Z " fill="#000000"/><text fill="#000000" font-family="sans-serif" font-size="14" lengthAdjust="spacing" textLength="114.6934" x="1127.78" y="222.7336">SummaryReport</text><line style="stroke:#181818;stroke-width:0.5;" x1="1099.78" x2="1244.4734" y1="233.8869" y2="233.8869"/><line style="stroke:#181818;stroke-width:0.5;" x1="1099.78" x2="1244.4734" y1="241.8869" y2="241.8869"/></g><!--reverse link Service to MergerService--><g class="link" data-entity-1="ent0002" data-entity-2="ent0008" data-link-type="extension" data-source-line="23" id="lnk9"><path codeLine="23" d="M478.6377,111.807 C507.9877,134.467 538.83,158.2769 573.79,185.2669" fill="none" id="Service-backto-MergerService" style="stroke:#181818;stroke-width:1;"/><polygon fill="none" points="464.39,100.8069,474.971,116.5562,482.3044,107.0577,464.39,100.8069" style="stroke:#181818;stroke-width:1;"/></g><!--reverse link DataSource to SourceA--><g class="link" data-entity-1="ent0010" data-entity-2="ent0011" data-link-type="extension" data-source-line="33" id="lnk14"><path codeLine="33" d="M957.4438,270.9659 C935.7438,292.3659 920.31,307.5869 900.64,326.9869" fill="none" id="DataSource-backto-SourceA" style="stroke:#181818;stroke-width:1;stroke-dasharray:7,7;"/><polygon fill="none" points="970.26,258.3269,953.2308,266.6938,961.6568,275.238,970.26,258.3269" style="stroke:#181818;stroke-width:1;"/></g><!--reverse link DataSource to SourceB--><g class="link" data-entity-1="ent0010" data-entity-2="ent0012" data-link-type="extension" data-source-line="34" id="lnk15"><path codeLine="34" d="M1002.12,276.3269 C1002.12,297.7269 1002.12,307.5869 1002.12,326.9869" fill="none" id="DataSource-backto-SourceB" style="stroke:#181818;stroke-width:1;stroke-dasharray:7,7;"/><polygon fill="none" points="1002.12,258.3269,996.12,276.3269,1008.12,276.3269,1002.12,258.3269" style="stroke:#181818;stroke-width:1;"/></g><!--reverse link DataSource to SourceC--><g class="link" data-entity-1="ent0010" data-entity-2="ent0013" data-link-type="extension" data-source-line="35" id="lnk16"><path codeLine="35" d="M1046.8062,270.9659 C1068.5062,292.3659 1083.94,307.5869 1103.61,326.9869" fill="none" id="DataSource-backto-SourceC" style="stroke:#181818;stroke-width:1;stroke-dasharray:7,7;"/><polygon fill="none" points="1033.99,258.3269,1042.5932,275.238,1051.0192,266.6938,1033.99,258.3269" style="stroke:#181818;stroke-width:1;"/></g><!--link MergePipeline to DataSource--><g class="link" data-entity-1="ent0007" data-entity-2="ent0010" data-link-type="dependency" data-source-line="38" id="lnk17"><path codeLine="38" d="M903.94,109.0769 C925.03,133.9569 950.3896,163.8706 971.4696,188.7306" fill="none" id="MergePipeline-to-DataSource" style="stroke:#181818;stroke-width:1;"/><polygon fill="#181818" points="975.35,193.3069,972.5802,183.8555,972.1163,189.4933,966.4785,189.0294,975.35,193.3069" style="stroke:#181818;stroke-width:1;"/><text fill="#000000" font-family="sans-serif" font-size="13" lengthAdjust="spacing" textLength="79.2124" x="945.12" y="151.6638">uses (A,B,C)</text><text fill="#000000" font-family="sans-serif" font-size="13" lengthAdjust="spacing" textLength="23.0356" x="945.0573" y="182.7465">1..*</text></g><!--link MergePipeline to MergerService--><g class="link" data-entity-1="ent0007" data-entity-2="ent0008" data-link-type="dependency" data-source-line="39" id="lnk18"><path codeLine="39" d="M823.06,109.0769 C785.03,131.3269 739.0185,158.2465 698.2285,182.1165" fill="none" id="MergePipeline-to-MergerService" style="stroke:#181818;stroke-width:1;"/><polygon fill="#181818" points="693.05,185.1469,702.838,184.0536,697.3654,182.6215,698.7974,177.1489,693.05,185.1469" style="stroke:#181818;stroke-width:1;"/></g><!--reverse link Service to CleanerService--><g class="link" data-entity-1="ent0002" data-entity-2="ent0020" data-link-type="extension" data-source-line="54" id="lnk27"><path codeLine="54" d="M493.5257,95.9733 C554.4057,115.1833 652.91,147.4469 749.12,185.5969 C761.3,190.4169 774.24,196.0069 786.32,201.4269" fill="none" id="Service-backto-CleanerService" style="stroke:#181818;stroke-width:1;"/><polygon fill="none" points="476.36,90.5569,491.7202,101.6952,495.3312,90.2514,476.36,90.5569" style="stroke:#181818;stroke-width:1;"/></g><!--reverse link Service to NormalizerService--><g class="link" data-entity-1="ent0002" data-entity-2="ent0021" data-link-type="extension" data-source-line="55" id="lnk28"><path codeLine="55" d="M375.3536,102.4163 C312.6836,129.0463 211.53,172.0269 142.16,201.5069" fill="none" id="Service-backto-NormalizerService" style="stroke:#181818;stroke-width:1;"/><polygon fill="none" points="391.92,95.3769,373.0071,96.8942,377.7001,107.9385,391.92,95.3769" style="stroke:#181818;stroke-width:1;"/></g><!--reverse link Service to CategoryService--><g class="link" data-entity-1="ent0002" data-entity-2="ent0022" data-link-type="extension" data-source-line="56" id="lnk29"><path codeLine="56" d="M395.9303,113.0878 C366.4303,140.6178 330.86,173.8069 301.3,201.3969" fill="none" id="Service-backto-CategoryService" style="stroke:#181818;stroke-width:1;"/><polygon fill="none" points="409.09,100.8069,391.8366,108.7012,400.0239,117.4744,409.09,100.8069" style="stroke:#181818;stroke-width:1;"/></g><!--reverse link Service to IOService--><g class="link" data-entity-1="ent0002" data-entity-2="ent0023" data-link-type="extension" data-source-line="57" id="lnk30"><path codeLine="57" d="M434.12,118.8069 C434.12,146.4169 434.12,174.0769 434.12,201.6369" fill="none" id="Service-backto-IOService" style="stroke:#181818;stroke-width:1;"/><polygon fill="none" points="434.12,100.8069,428.12,118.8069,440.12,118.8069,434.12,100.8069" style="stroke:#181818;stroke-width:1;"/></g><!--reverse link Processor to DescriptionProcessor--><g class="link" data-entity-1="ent0003" data-entity-2="ent0019" data-link-type="extension" data-source-line="59" id="lnk31"><path codeLine="59" d="M1370.12,118.8069 C1370.12,146.4169 1370.12,174.0769 1370.12,201.6369" fill="none" id="Processor-backto-DescriptionProcessor" style="stroke:#181818;stroke-width:1;"/><polygon fill="none" points="1370.12,100.8069,1364.12,118.8069,1376.12,118.8069,1370.12,100.8069" style="stroke:#181818;stroke-width:1;"/></g><!--reverse link Visualizer to VennDiagramVisualizer--><g class="link" data-entity-1="ent0004" data-entity-2="ent0024" data-link-type="extension" data-source-line="60" id="lnk32"><path codeLine="60" d="M1593.12,118.8069 C1593.12,146.4169 1593.12,174.0769 1593.12,201.6369" fill="none" id="Visualizer-backto-VennDiagramVisualizer" style="stroke:#181818;stroke-width:1;"/><polygon fill="none" points="1593.12,100.8069,1587.12,118.8069,1599.12,118.8069,1593.12,100.8069" style="stroke:#181818;stroke-width:1;"/></g><!--reverse link Job to HistogramReportJob--><g class="link" data-entity-1="ent0005" data-entity-2="ent0025" data-link-type="extension" data-source-line="61" id="lnk33"><path codeLine="61" d="M1812.12,118.8069 C1812.12,146.4169 1812.12,174.0769 1812.12,201.6369" fill="none" id="Job-backto-HistogramReportJob" style="stroke:#181818;stroke-width:1;"/><polygon fill="none" points="1812.12,100.8069,1806.12,118.8069,1818.12,118.8069,1812.12,100.8069" style="stroke:#181818;stroke-width:1;"/></g><!--reverse link Report to SummaryReport--><g class="link" data-entity-1="ent0006" data-entity-2="ent0026" data-link-type="extension" data-source-line="62" id="lnk34"><path codeLine="62" d="M1172.12,118.8069 C1172.12,146.4169 1172.12,174.0769 1172.12,201.6369" fill="none" id="Report-backto-SummaryReport" style="stroke:#181818;stroke-width:1;"/><polygon fill="none" points="1172.12,100.8069,1166.12,118.8069,1178.12,118.8069,1172.12,100.8069" style="stroke:#181818;stroke-width:1;"/></g><!--link MergePipeline to DescriptionProcessor--><g class="link" data-entity-1="ent0007" data-entity-2="ent0019" data-link-type="dependency" data-source-line="66" id="lnk35"><path codeLine="66" d="M942.82,94.1669 C1020.01,114.1969 1151.71,149.5869 1263.12,185.5969 C1278,190.3969 1288.2537,193.9297 1303.1037,199.3497" fill="none" id="MergePipeline-to-DescriptionProcessor" style="stroke:#181818;stroke-width:1;stroke-dasharray:7,7;"/><polygon fill="#181818" points="1308.74,201.4069,1301.657,194.5636,1304.0431,199.6926,1298.9141,202.0787,1308.74,201.4069" style="stroke:#181818;stroke-width:1;"/></g><!--link MergePipeline to CleanerService--><g class="link" data-entity-1="ent0007" data-entity-2="ent0020" data-link-type="dependency" data-source-line="67" id="lnk36"><path codeLine="67" d="M868.33,109.0769 C860.61,136.8269 851.1794,170.7768 844.2294,195.7368" fill="none" id="MergePipeline-to-CleanerService" style="stroke:#181818;stroke-width:1;stroke-dasharray:7,7;"/><polygon fill="#181818" points="842.62,201.5169,848.8876,193.9197,843.9612,196.7001,841.1808,191.7737,842.62,201.5169" style="stroke:#181818;stroke-width:1;"/></g><!--link MergePipeline to NormalizerService--><g class="link" data-entity-1="ent0007" data-entity-2="ent0021" data-link-type="dependency" data-source-line="68" id="lnk37"><path codeLine="68" d="M811.16,82.5569 C686.79,93.3169 409.97,122.7169 185.12,185.5969 C170.03,189.8169 159.6577,193.3606 145.1177,199.2006" fill="none" id="MergePipeline-to-NormalizerService" style="stroke:#181818;stroke-width:1;stroke-dasharray:7,7;"/><polygon fill="#181818" points="139.55,201.4369,149.3924,201.7943,144.1897,199.5733,146.4107,194.3707,139.55,201.4369" style="stroke:#181818;stroke-width:1;"/></g><!--link MergePipeline to CategoryService--><g class="link" data-entity-1="ent0007" data-entity-2="ent0022" data-link-type="dependency" data-source-line="69" id="lnk38"><path codeLine="69" d="M811.14,86.8069 C712.78,101.7969 522.62,134.7569 367.12,185.5969 C353.38,190.0869 344.3695,193.4809 331.0595,199.2209" fill="none" id="MergePipeline-to-CategoryService" style="stroke:#181818;stroke-width:1;stroke-dasharray:7,7;"/><polygon fill="#181818" points="325.55,201.5969,335.3983,201.7059,330.1413,199.6169,332.2303,194.3599,325.55,201.5969" style="stroke:#181818;stroke-width:1;"/></g><!--link MergePipeline to IOService--><g class="link" data-entity-1="ent0007" data-entity-2="ent0023" data-link-type="dependency" data-source-line="70" id="lnk39"><path codeLine="70" d="M811.21,91.1269 C734.77,108.1869 605.84,140.6669 501.12,185.5969 C490.71,190.0569 485.0996,192.7984 475.2996,198.5284" fill="none" id="MergePipeline-to-IOService" style="stroke:#181818;stroke-width:1;stroke-dasharray:7,7;"/><polygon fill="#181818" points="470.12,201.5569,479.9084,200.4672,474.4363,199.0331,475.8704,193.5611,470.12,201.5569" style="stroke:#181818;stroke-width:1;"/></g><!--link MergePipeline to VennDiagramVisualizer--><g class="link" data-entity-1="ent0007" data-entity-2="ent0024" data-link-type="dependency" data-source-line="71" id="lnk40"><path codeLine="71" d="M943.07,86.0669 C1054.28,101.3269 1285.73,136.2169 1477.12,185.5969 C1494.32,190.0269 1506.9454,193.8273 1523.8254,199.5273" fill="none" id="MergePipeline-to-VennDiagramVisualizer" style="stroke:#181818;stroke-width:1;stroke-dasharray:7,7;"/><polygon fill="#181818" points="1529.51,201.4469,1522.2627,194.7777,1524.7728,199.8472,1519.7033,202.3573,1529.51,201.4469" style="stroke:#181818;stroke-width:1;"/></g><!--link MergePipeline to HistogramReportJob--><g class="link" data-entity-1="ent0007" data-entity-2="ent0025" data-link-type="dependency" data-source-line="72" id="lnk41"><path codeLine="72" d="M943.04,86.0869 C990.81,92.3469 1056.96,101.0069 1115.12,108.5969 C1378.66,142.9469 1450.31,121.0769 1708.12,185.5969 C1724.41,189.6669 1736.0305,193.3878 1751.6805,199.3278" fill="none" id="MergePipeline-to-HistogramReportJob" style="stroke:#181818;stroke-width:1;stroke-dasharray:7,7;"/><polygon fill="#181818" points="1757.29,201.4569,1750.2951,194.5235,1752.6154,199.6826,1747.4563,202.0029,1757.29,201.4569" style="stroke:#181818;stroke-width:1;"/></g><!--link MergePipeline to SummaryReport--><g class="link" data-entity-1="ent0007" data-entity-2="ent0026" data-link-type="dependency" data-source-line="73" id="lnk42"><path codeLine="73" d="M942.79,100.1469 C971.1,110.7069 1004.26,124.1269 1033.12,138.5969 C1070.45,157.2969 1105.7572,179.6345 1133.3072,198.1145" fill="none" id="MergePipeline-to-SummaryReport" style="stroke:#181818;stroke-width:1;stroke-dasharray:7,7;"/><polygon fill="#181818" points="1138.29,201.4569,1133.044,193.1214,1134.1376,198.6716,1128.5875,199.7652,1138.29,201.4569" style="stroke:#181818;stroke-width:1;"/></g><?plantuml-src VLHDSzem4BthL-paKjC2RQ-PD3DyE9H2OmOpp9HBHZQ2g34M8udCG9D3Zxar5qwzSCoXr_u13V-hCagmPJlbPErxMks-VOkaCY8mfbF2vdX1e8qbXg-4pmdKmFC6mCH6gbsqdb8yvtW1Zjf9IMveBFUF5OI4_bhY10WZB4H3Iaw3bIJTaCK-tH3uWD0R-6H-q5FRYThwiF_bU_vaf7xsltazU0_-n1sw0uqErRO7Jh1_l5L_v3NHRmZrD8Vl9Dge9q4gBvaGme6G78VIl0i-uRSq9FdmWBEG2C5u7XXJiSAHBh20V651FZGaIyPbjf6XUl0dVNVa-f1fv5YSkNQGSK2N9A8nWHy8u1rVnKu5tLiC_boxOIoIq9LWAwuBTt0LWYg4bHJ1yVHgHkD3xIbyZrwIdDtLQdPUXFIm29_Xq8pNF-GshqKCJvqbbjUde3lEL6P83UlKj4ujX3BPpkxgzUEbydZpbNWh4LQglq40U8hbZ76kTWAeW8Xe2o1Rnbhj74u-rkjlJxBDdC9A405EezgijYebLtAAf9Di-OqUNBXztnjw_T5_fjac8kHqAIcBKrSPg1KH7AVPJV2IyOLnc1rlOKdcZA_jQDUppsCInsspSXch6kmp5P8bYF5bOjZdmQmM2ypNHRkQnUfhqxfwlI8sfpUOGYXOGcH2xvfMFBDSbfbotLbOiKdxQgvN2qnRHaT13L8gTIg38PKhfCKmS8b8vil0hqerw0xSVlVIXGlrkzFHVrJgeUDcp61Rgru_Bw-sICl9M2GKjIn9aXEqo4XLBMBbaXLv9TeLIPQ2_m00?></g></svg>