<svg xmlns="http://www.w3.org/2000/svg" xmlns:xlink="http://www.w3.org/1999/xlink" contentStyleType="text/css" data-diagram-type="CLASS" height="1407px" preserveAspectRatio="none" style="width:870px;height:1407px;background:#FFFFFF;" version="1.1" viewBox="0 0 870 1407" width="870px" zoomAndPan="magnify"><?plantuml 1.2026.3beta4?><defs/><g><g class="title" data-source-line="1"><text fill="#000000" font-family="sans-serif" font-size="14" font-weight="700" lengthAdjust="spacing" textLength="397.9678" x="232.5161" y="22.9951">Videogame Data Split - implement&#225;ci&#243;s &#225;ttekint&#233;s</text></g><!--cluster split--><g class="cluster" data-qualified-name="split" data-source-line="24" id="ent0002"><rect fill="#FFF2CC" height="1349.47" rx="2.5" ry="2.5" style="stroke:#BF9000;stroke-width:1.5;" width="849" x="7" y="44.2969"/><text fill="#000000" font-family="sans-serif" font-size="12" font-weight="700" lengthAdjust="spacing" textLength="29.6953" x="416.6523" y="57.4355">split</text></g><!--cluster tables--><g class="cluster" data-qualified-name="split.tables" data-source-line="31" id="ent0004"><rect fill="#FFF2CC" height="1271.5" rx="2.5" ry="2.5" style="stroke:#BF9000;stroke-width:1.5;" width="244" x="279" y="84.2969"/><text fill="#000000" font-family="sans-serif" font-size="12" font-weight="700" lengthAdjust="spacing" textLength="41.8184" x="380.0908" y="97.4355">tables</text></g><!--cluster utils--><g class="cluster" data-qualified-name="split.utils" data-source-line="89" id="ent0024"><rect fill="#FFF2CC" height="255.87" rx="2.5" ry="2.5" style="stroke:#BF9000;stroke-width:1.5;" width="224" x="31" y="1113.8969"/><text fill="#000000" font-family="sans-serif" font-size="12" font-weight="700" lengthAdjust="spacing" textLength="29.6484" x="128.1758" y="1127.0355">utils</text></g><!--class Main--><g class="entity" data-qualified-name="split.Main" data-source-line="26" id="ent0003"><rect fill="#F8F8F8" height="73.9375" rx="2.5" ry="2.5" style="stroke:#4472C4;stroke-width:0.5;" width="142.1309" x="582.93" y="116.2969"/><ellipse cx="617.2064" cy="131.2969" fill="#ADD1B2" rx="10" ry="10" style="stroke:#181818;stroke-width:1;"/><path d="M619.0345,135.5469 Q618.6282,135.75 618.1751,135.8594 Q617.722,135.9688 617.2376,135.9688 Q615.4564,135.9688 614.5189,134.8125 Q613.597,133.6406 613.597,131.4375 Q613.597,129.2188 614.5189,128.0625 Q615.4564,126.8906 617.2376,126.8906 Q617.722,126.8906 618.1751,127 Q618.6439,127.0938 619.0345,127.3125 L619.0345,129.2344 Q618.597,128.8281 618.1751,128.6406 Q617.7532,128.4375 617.3157,128.4375 Q616.3626,128.4375 615.8782,129.2031 Q615.3939,129.9531 615.3939,131.4375 Q615.3939,132.9063 615.8782,133.6563 Q616.3626,134.4063 617.3157,134.4063 Q617.7532,134.4063 618.1751,134.2188 Q618.597,134.0313 619.0345,133.625 L619.0345,135.5469 Z " fill="#000000"/><text fill="#000000" font-family="sans-serif" font-size="12" lengthAdjust="spacing" textLength="67.0723" x="634.7122" y="135.4512">main.ipynb</text><line style="stroke:#4472C4;stroke-width:0.5;" x1="583.93" x2="724.0609" y1="146.2969" y2="146.2969"/><text fill="#000000" font-family="sans-serif" font-size="12" lengthAdjust="spacing" textLength="111.5449" x="588.93" y="161.4355">+pipeline vez&#233;rl&#233;s</text><text fill="#000000" font-family="sans-serif" font-size="12" lengthAdjust="spacing" textLength="130.1309" x="588.93" y="175.4043">+master_df bet&#246;lt&#233;se</text><line style="stroke:#4472C4;stroke-width:0.5;" x1="583.93" x2="724.0609" y1="182.2344" y2="182.2344"/></g><!--class GameMeta--><g class="entity" data-qualified-name="split.tables.GameMeta" data-source-line="33" id="ent0005"><rect fill="#F8F8F8" height="73.9375" rx="2.5" ry="2.5" style="stroke:#4472C4;stroke-width:0.5;" width="190.3301" x="310.83" y="116.2969"/><ellipse cx="344.4472" cy="131.2969" fill="#ADD1B2" rx="10" ry="10" style="stroke:#181818;stroke-width:1;"/><path d="M346.2753,135.5469 Q345.8691,135.75 345.4159,135.8594 Q344.9628,135.9688 344.4784,135.9688 Q342.6972,135.9688 341.7597,134.8125 Q340.8378,133.6406 340.8378,131.4375 Q340.8378,129.2188 341.7597,128.0625 Q342.6972,126.8906 344.4784,126.8906 Q344.9628,126.8906 345.4159,127 Q345.8847,127.0938 346.2753,127.3125 L346.2753,129.2344 Q345.8378,128.8281 345.4159,128.6406 Q344.9941,128.4375 344.5566,128.4375 Q343.6034,128.4375 343.1191,129.2031 Q342.6347,129.9531 342.6347,131.4375 Q342.6347,132.9063 343.1191,133.6563 Q343.6034,134.4063 344.5566,134.4063 Q344.9941,134.4063 345.4159,134.2188 Q345.8378,134.0313 346.2753,133.625 L346.2753,135.5469 Z " fill="#000000"/><text fill="#000000" font-family="sans-serif" font-size="12" lengthAdjust="spacing" textLength="116.7363" x="361.8066" y="135.4512">game_metadata.py</text><line style="stroke:#4472C4;stroke-width:0.5;" x1="311.83" x2="500.1601" y1="146.2969" y2="146.2969"/><line style="stroke:#4472C4;stroke-width:0.5;" x1="311.83" x2="500.1601" y1="154.2969" y2="154.2969"/><text fill="#000000" font-family="sans-serif" font-size="12" lengthAdjust="spacing" textLength="178.3301" x="316.83" y="169.4355">+create_description_table(...)</text><text fill="#000000" font-family="sans-serif" font-size="12" lengthAdjust="spacing" textLength="145.6523" x="316.83" y="183.4043">+create_game_table(...)</text></g><!--class DevPub--><g class="entity" data-qualified-name="split.tables.DevPub" data-source-line="38" id="ent0006"><rect fill="#F8F8F8" height="73.9375" rx="2.5" ry="2.5" style="stroke:#4472C4;stroke-width:0.5;" width="212.9531" x="294.52" y="250.2369"/><ellipse cx="308.52" cy="265.2369" fill="#ADD1B2" rx="10" ry="10" style="stroke:#181818;stroke-width:1;"/><path d="M310.3481,269.4869 Q309.9419,269.69 309.4888,269.7994 Q309.0356,269.9088 308.5513,269.9088 Q306.77,269.9088 305.8325,268.7525 Q304.9106,267.5806 304.9106,265.3775 Q304.9106,263.1588 305.8325,262.0025 Q306.77,260.8306 308.5513,260.8306 Q309.0356,260.8306 309.4888,260.94 Q309.9575,261.0338 310.3481,261.2525 L310.3481,263.1744 Q309.9106,262.7681 309.4888,262.5806 Q309.0669,262.3775 308.6294,262.3775 Q307.6763,262.3775 307.1919,263.1431 Q306.7075,263.8931 306.7075,265.3775 Q306.7075,266.8463 307.1919,267.5963 Q307.6763,268.3463 308.6294,268.3463 Q309.0669,268.3463 309.4888,268.1588 Q309.9106,267.9713 310.3481,267.565 L310.3481,269.4869 Z " fill="#000000"/><text fill="#000000" font-family="sans-serif" font-size="12" lengthAdjust="spacing" textLength="182.9531" x="321.52" y="269.3912">developer_publisher_tables.py</text><line style="stroke:#4472C4;stroke-width:0.5;" x1="295.52" x2="506.4731" y1="280.2369" y2="280.2369"/><line style="stroke:#4472C4;stroke-width:0.5;" x1="295.52" x2="506.4731" y1="288.2369" y2="288.2369"/><text fill="#000000" font-family="sans-serif" font-size="12" lengthAdjust="spacing" textLength="177.9551" x="300.52" y="303.3755">+create_developer_tables(...)</text><text fill="#000000" font-family="sans-serif" font-size="12" lengthAdjust="spacing" textLength="173.543" x="300.52" y="317.3443">+create_publisher_tables(...)</text></g><!--class GenreCat--><g class="entity" data-qualified-name="split.tables.GenreCat" data-source-line="43" id="ent0007"><rect fill="#F8F8F8" height="73.9375" rx="2.5" ry="2.5" style="stroke:#4472C4;stroke-width:0.5;" width="186.5098" x="318.75" y="384.1769"/><ellipse cx="333.3696" cy="399.1769" fill="#ADD1B2" rx="10" ry="10" style="stroke:#181818;stroke-width:1;"/><path d="M335.1978,403.4269 Q334.7915,403.63 334.3384,403.7394 Q333.8853,403.8488 333.4009,403.8488 Q331.6196,403.8488 330.6821,402.6925 Q329.7603,401.5206 329.7603,399.3175 Q329.7603,397.0988 330.6821,395.9425 Q331.6196,394.7706 333.4009,394.7706 Q333.8853,394.7706 334.3384,394.88 Q334.8071,394.9738 335.1978,395.1925 L335.1978,397.1144 Q334.7603,396.7081 334.3384,396.5206 Q333.9165,396.3175 333.479,396.3175 Q332.5259,396.3175 332.0415,397.0831 Q331.5571,397.8331 331.5571,399.3175 Q331.5571,400.7863 332.0415,401.5363 Q332.5259,402.2863 333.479,402.2863 Q333.9165,402.2863 334.3384,402.0988 Q334.7603,401.9113 335.1978,401.505 L335.1978,403.4269 Z " fill="#000000"/><text fill="#000000" font-family="sans-serif" font-size="12" lengthAdjust="spacing" textLength="155.1328" x="346.5073" y="403.3312">genre_category_tables.py</text><line style="stroke:#4472C4;stroke-width:0.5;" x1="319.75" x2="504.2598" y1="414.1769" y2="414.1769"/><line style="stroke:#4472C4;stroke-width:0.5;" x1="319.75" x2="504.2598" y1="422.1769" y2="422.1769"/><text fill="#000000" font-family="sans-serif" font-size="12" lengthAdjust="spacing" textLength="152.7832" x="324.75" y="437.3155">+create_genres_table(...)</text><text fill="#000000" font-family="sans-serif" font-size="12" lengthAdjust="spacing" textLength="174.5098" x="324.75" y="451.2843">+create_categories_table(...)</text></g><!--class Lang--><g class="entity" data-qualified-name="split.tables.Lang" data-source-line="48" id="ent0008"><rect fill="#F8F8F8" height="59.9688" rx="2.5" ry="2.5" style="stroke:#4472C4;stroke-width:0.5;" width="185.7305" x="319.13" y="518.1069"/><ellipse cx="350.5376" cy="533.1069" fill="#ADD1B2" rx="10" ry="10" style="stroke:#181818;stroke-width:1;"/><path d="M352.3657,537.3569 Q351.9595,537.56 351.5064,537.6694 Q351.0532,537.7788 350.5689,537.7788 Q348.7876,537.7788 347.8501,536.6225 Q346.9282,535.4506 346.9282,533.2475 Q346.9282,531.0288 347.8501,529.8725 Q348.7876,528.7006 350.5689,528.7006 Q351.0532,528.7006 351.5064,528.81 Q351.9751,528.9038 352.3657,529.1225 L352.3657,531.0444 Q351.9282,530.6381 351.5064,530.4506 Q351.0845,530.2475 350.647,530.2475 Q349.6939,530.2475 349.2095,531.0131 Q348.7251,531.7631 348.7251,533.2475 Q348.7251,534.7163 349.2095,535.4663 Q349.6939,536.2163 350.647,536.2163 Q351.0845,536.2163 351.5064,536.0288 Q351.9282,535.8413 352.3657,535.435 L352.3657,537.3569 Z " fill="#000000"/><text fill="#000000" font-family="sans-serif" font-size="12" lengthAdjust="spacing" textLength="117.0469" x="367.406" y="537.2612">language_tables.py</text><line style="stroke:#4472C4;stroke-width:0.5;" x1="320.13" x2="503.8605" y1="548.1069" y2="548.1069"/><line style="stroke:#4472C4;stroke-width:0.5;" x1="320.13" x2="503.8605" y1="556.1069" y2="556.1069"/><text fill="#000000" font-family="sans-serif" font-size="12" lengthAdjust="spacing" textLength="173.7305" x="325.13" y="571.2455">+create_languages_table(...)</text></g><!--class Media--><g class="entity" data-qualified-name="split.tables.Media" data-source-line="52" id="ent0009"><rect fill="#F8F8F8" height="87.9063" rx="2.5" ry="2.5" style="stroke:#4472C4;stroke-width:0.5;" width="195.9199" x="311.04" y="638.0769"/><ellipse cx="355.7226" cy="653.0769" fill="#ADD1B2" rx="10" ry="10" style="stroke:#181818;stroke-width:1;"/><path d="M357.5507,657.3269 Q357.1445,657.53 356.6914,657.6394 Q356.2382,657.7488 355.7539,657.7488 Q353.9726,657.7488 353.0351,656.5925 Q352.1132,655.4206 352.1132,653.2175 Q352.1132,650.9988 353.0351,649.8425 Q353.9726,648.6706 355.7539,648.6706 Q356.2382,648.6706 356.6914,648.78 Q357.1601,648.8738 357.5507,649.0925 L357.5507,651.0144 Q357.1132,650.6081 356.6914,650.4206 Q356.2695,650.2175 355.832,650.2175 Q354.8789,650.2175 354.3945,650.9831 Q353.9101,651.7331 353.9101,653.2175 Q353.9101,654.6863 354.3945,655.4363 Q354.8789,656.1863 355.832,656.1863 Q356.2695,656.1863 356.6914,655.9988 Q357.1132,655.8113 357.5507,655.405 L357.5507,657.3269 Z " fill="#000000"/><text fill="#000000" font-family="sans-serif" font-size="12" lengthAdjust="spacing" textLength="98.5547" x="374.7226" y="657.2312">media_tables.py</text><line style="stroke:#4472C4;stroke-width:0.5;" x1="312.04" x2="505.9599" y1="668.0769" y2="668.0769"/><line style="stroke:#4472C4;stroke-width:0.5;" x1="312.04" x2="505.9599" y1="676.0769" y2="676.0769"/><text fill="#000000" font-family="sans-serif" font-size="12" lengthAdjust="spacing" textLength="148.9863" x="317.04" y="691.2155">+create_media_table(...)</text><text fill="#000000" font-family="sans-serif" font-size="12" lengthAdjust="spacing" textLength="183.9199" x="317.04" y="705.1843">+create_screenshots_table(...)</text><text fill="#000000" font-family="sans-serif" font-size="12" lengthAdjust="spacing" textLength="154.7109" x="317.04" y="719.153">+create_movies_table(...)</text></g><!--class Pack--><g class="entity" data-qualified-name="split.tables.Pack" data-source-line="58" id="ent0010"><rect fill="#F8F8F8" height="59.9688" rx="2.5" ry="2.5" style="stroke:#4472C4;stroke-width:0.5;" width="180.7324" x="322.63" y="785.9869"/><ellipse cx="354.0376" cy="800.9869" fill="#ADD1B2" rx="10" ry="10" style="stroke:#181818;stroke-width:1;"/><path d="M355.8657,805.2369 Q355.4595,805.44 355.0064,805.5494 Q354.5532,805.6588 354.0689,805.6588 Q352.2876,805.6588 351.3501,804.5025 Q350.4282,803.3306 350.4282,801.1275 Q350.4282,798.9088 351.3501,797.7525 Q352.2876,796.5806 354.0689,796.5806 Q354.5532,796.5806 355.0064,796.69 Q355.4751,796.7838 355.8657,797.0025 L355.8657,798.9244 Q355.4282,798.5181 355.0064,798.3306 Q354.5845,798.1275 354.147,798.1275 Q353.1939,798.1275 352.7095,798.8931 Q352.2251,799.6431 352.2251,801.1275 Q352.2251,802.5963 352.7095,803.3463 Q353.1939,804.0963 354.147,804.0963 Q354.5845,804.0963 355.0064,803.9088 Q355.4282,803.7213 355.8657,803.315 L355.8657,805.2369 Z " fill="#000000"/><text fill="#000000" font-family="sans-serif" font-size="12" lengthAdjust="spacing" textLength="112.0488" x="370.906" y="805.1412">package_tables.py</text><line style="stroke:#4472C4;stroke-width:0.5;" x1="323.63" x2="502.3624" y1="815.9869" y2="815.9869"/><line style="stroke:#4472C4;stroke-width:0.5;" x1="323.63" x2="502.3624" y1="823.9869" y2="823.9869"/><text fill="#000000" font-family="sans-serif" font-size="12" lengthAdjust="spacing" textLength="168.7324" x="328.63" y="839.1255">+create_packages_table(...)</text></g><!--class Plat--><g class="entity" data-qualified-name="split.tables.Plat" data-source-line="62" id="ent0011"><rect fill="#F8F8F8" height="59.9688" rx="2.5" ry="2.5" style="stroke:#4472C4;stroke-width:0.5;" width="181.0605" x="322.47" y="905.9569"/><ellipse cx="351.0642" cy="920.9569" fill="#ADD1B2" rx="10" ry="10" style="stroke:#181818;stroke-width:1;"/><path d="M352.8924,925.2069 Q352.4861,925.41 352.033,925.5194 Q351.5799,925.6288 351.0955,925.6288 Q349.3142,925.6288 348.3767,924.4725 Q347.4549,923.3006 347.4549,921.0975 Q347.4549,918.8788 348.3767,917.7225 Q349.3142,916.5506 351.0955,916.5506 Q351.5799,916.5506 352.033,916.66 Q352.5017,916.7538 352.8924,916.9725 L352.8924,918.8944 Q352.4549,918.4881 352.033,918.3006 Q351.6111,918.0975 351.1736,918.0975 Q350.2205,918.0975 349.7361,918.8631 Q349.2517,919.6131 349.2517,921.0975 Q349.2517,922.5663 349.7361,923.3163 Q350.2205,924.0663 351.1736,924.0663 Q351.6111,924.0663 352.033,923.8788 Q352.4549,923.6913 352.8924,923.285 L352.8924,925.2069 Z " fill="#000000"/><text fill="#000000" font-family="sans-serif" font-size="12" lengthAdjust="spacing" textLength="118.6289" x="367.3074" y="925.1112">platforms_tables.py</text><line style="stroke:#4472C4;stroke-width:0.5;" x1="323.47" x2="502.5305" y1="935.9569" y2="935.9569"/><line style="stroke:#4472C4;stroke-width:0.5;" x1="323.47" x2="502.5305" y1="943.9569" y2="943.9569"/><text fill="#000000" font-family="sans-serif" font-size="12" lengthAdjust="spacing" textLength="169.0605" x="328.47" y="959.0955">+create_platforms_table(...)</text></g><!--class Req--><g class="entity" data-qualified-name="split.tables.Req" data-source-line="66" id="ent0012"><rect fill="#F8F8F8" height="59.9688" rx="2.5" ry="2.5" style="stroke:#4472C4;stroke-width:0.5;" width="204.4336" x="302.78" y="1025.9269"/><ellipse cx="331.3742" cy="1040.9269" fill="#ADD1B2" rx="10" ry="10" style="stroke:#181818;stroke-width:1;"/><path d="M333.2024,1045.1769 Q332.7961,1045.38 332.343,1045.4894 Q331.8899,1045.5988 331.4055,1045.5988 Q329.6242,1045.5988 328.6867,1044.4425 Q327.7649,1043.2706 327.7649,1041.0675 Q327.7649,1038.8488 328.6867,1037.6925 Q329.6242,1036.5206 331.4055,1036.5206 Q331.8899,1036.5206 332.343,1036.63 Q332.8117,1036.7238 333.2024,1036.9425 L333.2024,1038.8644 Q332.7649,1038.4581 332.343,1038.2706 Q331.9211,1038.0675 331.4836,1038.0675 Q330.5305,1038.0675 330.0461,1038.8331 Q329.5617,1039.5831 329.5617,1041.0675 Q329.5617,1042.5363 330.0461,1043.2863 Q330.5305,1044.0363 331.4836,1044.0363 Q331.9211,1044.0363 332.343,1043.8488 Q332.7649,1043.6613 333.2024,1043.255 L333.2024,1045.1769 Z " fill="#000000"/><text fill="#000000" font-family="sans-serif" font-size="12" lengthAdjust="spacing" textLength="142.002" x="347.6174" y="1045.0812">requirements_tables.py</text><line style="stroke:#4472C4;stroke-width:0.5;" x1="303.78" x2="506.2136" y1="1055.9269" y2="1055.9269"/><line style="stroke:#4472C4;stroke-width:0.5;" x1="303.78" x2="506.2136" y1="1063.9269" y2="1063.9269"/><text fill="#000000" font-family="sans-serif" font-size="12" lengthAdjust="spacing" textLength="192.4336" x="308.78" y="1079.0655">+create_requirements_table(...)</text></g><!--class Supp--><g class="entity" data-qualified-name="split.tables.Supp" data-source-line="70" id="ent0013"><rect fill="#F8F8F8" height="59.9688" rx="2.5" ry="2.5" style="stroke:#4472C4;stroke-width:0.5;" width="169.6816" x="337.16" y="1145.8969"/><ellipse cx="365.7542" cy="1160.8969" fill="#ADD1B2" rx="10" ry="10" style="stroke:#181818;stroke-width:1;"/><path d="M367.5824,1165.1469 Q367.1761,1165.35 366.723,1165.4594 Q366.2699,1165.5688 365.7855,1165.5688 Q364.0042,1165.5688 363.0667,1164.4125 Q362.1449,1163.2406 362.1449,1161.0375 Q362.1449,1158.8188 363.0667,1157.6625 Q364.0042,1156.4906 365.7855,1156.4906 Q366.2699,1156.4906 366.723,1156.6 Q367.1917,1156.6938 367.5824,1156.9125 L367.5824,1158.8344 Q367.1449,1158.4281 366.723,1158.2406 Q366.3011,1158.0375 365.8636,1158.0375 Q364.9105,1158.0375 364.4261,1158.8031 Q363.9417,1159.5531 363.9417,1161.0375 Q363.9417,1162.5063 364.4261,1163.2563 Q364.9105,1164.0063 365.8636,1164.0063 Q366.3011,1164.0063 366.723,1163.8188 Q367.1449,1163.6313 367.5824,1163.225 L367.5824,1165.1469 Z " fill="#000000"/><text fill="#000000" font-family="sans-serif" font-size="12" lengthAdjust="spacing" textLength="107.25" x="381.9974" y="1165.0512">support_tables.py</text><line style="stroke:#4472C4;stroke-width:0.5;" x1="338.16" x2="505.8416" y1="1175.8969" y2="1175.8969"/><line style="stroke:#4472C4;stroke-width:0.5;" x1="338.16" x2="505.8416" y1="1183.8969" y2="1183.8969"/><text fill="#000000" font-family="sans-serif" font-size="12" lengthAdjust="spacing" textLength="157.6816" x="343.16" y="1199.0355">+create_support_table(...)</text></g><!--class Tags--><g class="entity" data-qualified-name="split.tables.Tags" data-source-line="74" id="ent0014"><rect fill="#F8F8F8" height="59.9688" rx="2.5" ry="2.5" style="stroke:#4472C4;stroke-width:0.5;" width="149.5371" x="352.23" y="1279.8269"/><ellipse cx="380.8242" cy="1294.8269" fill="#ADD1B2" rx="10" ry="10" style="stroke:#181818;stroke-width:1;"/><path d="M382.6524,1299.0769 Q382.2461,1299.28 381.793,1299.3894 Q381.3399,1299.4988 380.8555,1299.4988 Q379.0742,1299.4988 378.1367,1298.3425 Q377.2149,1297.1706 377.2149,1294.9675 Q377.2149,1292.7488 378.1367,1291.5925 Q379.0742,1290.4206 380.8555,1290.4206 Q381.3399,1290.4206 381.793,1290.53 Q382.2617,1290.6238 382.6524,1290.8425 L382.6524,1292.7644 Q382.2149,1292.3581 381.793,1292.1706 Q381.3711,1291.9675 380.9336,1291.9675 Q379.9805,1291.9675 379.4961,1292.7331 Q379.0117,1293.4831 379.0117,1294.9675 Q379.0117,1296.4363 379.4961,1297.1863 Q379.9805,1297.9363 380.9336,1297.9363 Q381.3711,1297.9363 381.793,1297.7488 Q382.2149,1297.5613 382.6524,1297.155 L382.6524,1299.0769 Z " fill="#000000"/><text fill="#000000" font-family="sans-serif" font-size="12" lengthAdjust="spacing" textLength="87.1055" x="397.0674" y="1298.9812">tags_tables.py</text><line style="stroke:#4472C4;stroke-width:0.5;" x1="353.23" x2="500.7671" y1="1309.8269" y2="1309.8269"/><line style="stroke:#4472C4;stroke-width:0.5;" x1="353.23" x2="500.7671" y1="1317.8269" y2="1317.8269"/><text fill="#000000" font-family="sans-serif" font-size="12" lengthAdjust="spacing" textLength="137.5371" x="358.23" y="1332.9655">+create_tags_table(...)</text></g><!--class IO--><g class="entity" data-qualified-name="split.utils.IO" data-source-line="90" id="ent0025"><rect fill="#F8F8F8" height="59.9688" rx="2.5" ry="2.5" style="stroke:#4472C4;stroke-width:0.5;" width="136.1074" x="82.95" y="1145.8969"/><ellipse cx="117.5006" cy="1160.8969" fill="#ADD1B2" rx="10" ry="10" style="stroke:#181818;stroke-width:1;"/><path d="M119.3287,1165.1469 Q118.9225,1165.35 118.4693,1165.4594 Q118.0162,1165.5688 117.5318,1165.5688 Q115.7506,1165.5688 114.8131,1164.4125 Q113.8912,1163.2406 113.8912,1161.0375 Q113.8912,1158.8188 114.8131,1157.6625 Q115.7506,1156.4906 117.5318,1156.4906 Q118.0162,1156.4906 118.4693,1156.6 Q118.9381,1156.6938 119.3287,1156.9125 L119.3287,1158.8344 Q118.8912,1158.4281 118.4693,1158.2406 Q118.0475,1158.0375 117.61,1158.0375 Q116.6568,1158.0375 116.1725,1158.8031 Q115.6881,1159.5531 115.6881,1161.0375 Q115.6881,1162.5063 116.1725,1163.2563 Q116.6568,1164.0063 117.61,1164.0063 Q118.0475,1164.0063 118.4693,1163.8188 Q118.8912,1163.6313 119.3287,1163.225 L119.3287,1165.1469 Z " fill="#000000"/><text fill="#000000" font-family="sans-serif" font-size="12" lengthAdjust="spacing" textLength="60.4395" x="135.0674" y="1165.0512">io_utils.py</text><line style="stroke:#4472C4;stroke-width:0.5;" x1="83.95" x2="218.0574" y1="1175.8969" y2="1175.8969"/><line style="stroke:#4472C4;stroke-width:0.5;" x1="83.95" x2="218.0574" y1="1183.8969" y2="1183.8969"/><text fill="#000000" font-family="sans-serif" font-size="12" lengthAdjust="spacing" textLength="124.1074" x="88.95" y="1199.0355">+load_csv_safely(...)</text></g><!--class Text--><g class="entity" data-qualified-name="split.utils.Text" data-source-line="94" id="ent0026"><rect fill="#F8F8F8" height="87.9063" rx="2.5" ry="2.5" style="stroke:#4472C4;stroke-width:0.5;" width="191.8535" x="47.07" y="1265.8569"/><ellipse cx="102.1677" cy="1280.8569" fill="#ADD1B2" rx="10" ry="10" style="stroke:#181818;stroke-width:1;"/><path d="M103.9958,1285.1069 Q103.5895,1285.31 103.1364,1285.4194 Q102.6833,1285.5288 102.1989,1285.5288 Q100.4177,1285.5288 99.4802,1284.3725 Q98.5583,1283.2006 98.5583,1280.9975 Q98.5583,1278.7788 99.4802,1277.6225 Q100.4177,1276.4506 102.1989,1276.4506 Q102.6833,1276.4506 103.1364,1276.56 Q103.6052,1276.6538 103.9958,1276.8725 L103.9958,1278.7944 Q103.5583,1278.3881 103.1364,1278.2006 Q102.7145,1277.9975 102.277,1277.9975 Q101.3239,1277.9975 100.8395,1278.7631 Q100.3552,1279.5131 100.3552,1280.9975 Q100.3552,1282.4663 100.8395,1283.2163 Q101.3239,1283.9663 102.277,1283.9663 Q102.7145,1283.9663 103.1364,1283.7788 Q103.5583,1283.5913 103.9958,1283.185 L103.9958,1285.1069 Z " fill="#000000"/><text fill="#000000" font-family="sans-serif" font-size="12" lengthAdjust="spacing" textLength="73.6582" x="121.1677" y="1285.0112">text_utils.py</text><line style="stroke:#4472C4;stroke-width:0.5;" x1="48.07" x2="237.9235" y1="1295.8569" y2="1295.8569"/><line style="stroke:#4472C4;stroke-width:0.5;" x1="48.07" x2="237.9235" y1="1303.8569" y2="1303.8569"/><text fill="#000000" font-family="sans-serif" font-size="12" lengthAdjust="spacing" textLength="179.8535" x="53.07" y="1318.9955">+clean_requirements_text(...)</text><text fill="#000000" font-family="sans-serif" font-size="12" lengthAdjust="spacing" textLength="109.6465" x="53.07" y="1332.9643">+split_min_rec(...)</text><text fill="#000000" font-family="sans-serif" font-size="12" lengthAdjust="spacing" textLength="80.6016" x="53.07" y="1346.933">+join_urls(...)</text></g><!--link GameMeta to DevPub--><!--link DevPub to GenreCat--><!--link GenreCat to Lang--><!--link Lang to Media--><!--link Media to Pack--><!--link Pack to Plat--><!--link Plat to Req--><!--link Req to Supp--><!--link Supp to Tags--><!--link IO to Text--><!--link Main to GameMeta--><g class="link" data-entity-1="ent0003" data-entity-2="ent0005" data-link-type="dependency" data-source-line="104" id="lnk28"><path codeLine="104" d="M582.48,153.2669 C555.46,153.2669 534.44,153.2669 507.42,153.2669" fill="none" id="Main-to-GameMeta" style="stroke:#181818;stroke-width:1;"/><polygon fill="#181818" points="501.42,153.2669,510.42,157.2669,506.42,153.2669,510.42,149.2669,501.42,153.2669" style="stroke:#181818;stroke-width:1;"/></g><!--link Main to DevPub--><g class="link" data-entity-1="ent0003" data-entity-2="ent0006" data-link-type="dependency" data-source-line="105" id="lnk29"><path codeLine="105" d="M584.2,190.6669 C548.8,209.1269 511.26,228.7025 475.9,247.1425" fill="none" id="Main-to-DevPub" style="stroke:#181818;stroke-width:1;"/><polygon fill="#181818" points="470.58,249.9169,480.4096,249.302,475.0134,247.6049,476.7105,242.2086,470.58,249.9169" style="stroke:#181818;stroke-width:1;"/></g><!--link Main to GenreCat--><g class="link" data-entity-1="ent0003" data-entity-2="ent0007" data-link-type="dependency" data-source-line="106" id="lnk30"><path codeLine="106" d="M637.97,190.4369 C620.52,227.0369 589.97,283.8469 552,324.1769 C530.39,347.1269 507.4384,364.4401 482.1684,380.5601" fill="none" id="Main-to-GenreCat" style="stroke:#181818;stroke-width:1;"/><polygon fill="#181818" points="477.11,383.7869,486.8488,382.3189,481.3254,381.0979,482.5464,375.5744,477.11,383.7869" style="stroke:#181818;stroke-width:1;"/></g><!--link Main to Lang--><g class="link" data-entity-1="ent0003" data-entity-2="ent0008" data-link-type="dependency" data-source-line="107" id="lnk31"><path codeLine="107" d="M644.94,190.6869 C628.53,251.1569 589.31,373.9569 523,458.1069 C504.81,481.1969 484.4208,498.5432 462.5808,514.2532" fill="none" id="Main-to-Lang" style="stroke:#181818;stroke-width:1;"/><polygon fill="#181818" points="457.71,517.7569,467.3519,515.7486,461.769,514.8372,462.6804,509.2542,457.71,517.7569" style="stroke:#181818;stroke-width:1;"/></g><!--link Main to Media--><g class="link" data-entity-1="ent0003" data-entity-2="ent0009" data-link-type="dependency" data-source-line="108" id="lnk32"><path codeLine="108" d="M650.01,190.5969 C640.03,268.0269 608.28,452.4569 522,578.0769 C506.82,600.1769 490.5693,616.9333 470.9593,633.8833" fill="none" id="Main-to-Media" style="stroke:#181818;stroke-width:1;"/><polygon fill="#181818" points="466.42,637.8069,475.8447,634.9477,470.2028,634.5372,470.6133,628.8953,466.42,637.8069" style="stroke:#181818;stroke-width:1;"/></g><!--link Main to Pack--><g class="link" data-entity-1="ent0003" data-entity-2="ent0010" data-link-type="dependency" data-source-line="109" id="lnk33"><path codeLine="109" d="M662.3,190.5969 C673.21,241.5869 691,337.4169 691,420.1469 C691,420.1469 691,420.1469 691,549.0969 C691,664.4669 569.7988,742.5585 487.4688,782.8685" fill="none" id="Main-to-Pack" style="stroke:#181818;stroke-width:1;"/><polygon fill="#181818" points="482.08,785.5069,491.9221,785.1418,486.5706,783.3082,488.4042,777.9567,482.08,785.5069" style="stroke:#181818;stroke-width:1;"/></g><!--link Main to Plat--><g class="link" data-entity-1="ent0003" data-entity-2="ent0011" data-link-type="dependency" data-source-line="110" id="lnk34"><path codeLine="110" d="M670.79,190.3669 C692.62,240.6969 728,335.3369 728,420.1469 C728,420.1469 728,420.1469 728,683.0369 C728,798.7469 602.3459,867.8721 509.2859,903.8721" fill="none" id="Main-to-Plat" style="stroke:#181818;stroke-width:1;"/><polygon fill="#181818" points="503.69,906.0369,513.527,906.5203,508.3532,904.2329,510.6407,899.0592,503.69,906.0369" style="stroke:#181818;stroke-width:1;"/></g><!--link Main to Req--><g class="link" data-entity-1="ent0003" data-entity-2="ent0012" data-link-type="dependency" data-source-line="111" id="lnk35"><path codeLine="111" d="M680.02,190.5669 C712.83,239.9769 765,332.3569 765,420.1469 C765,420.1469 765,420.1469 765,816.9669 C765,885.9869 583.9987,976.4608 479.4687,1023.1308" fill="none" id="Main-to-Req" style="stroke:#181818;stroke-width:1;"/><polygon fill="#181818" points="473.99,1025.5769,483.8388,1025.5602,478.5556,1023.5384,480.5774,1018.2552,473.99,1025.5769" style="stroke:#181818;stroke-width:1;"/></g><!--link Main to Supp--><g class="link" data-entity-1="ent0003" data-entity-2="ent0013" data-link-type="dependency" data-source-line="112" id="lnk36"><path codeLine="112" d="M692.35,190.3569 C708.72,207.3169 727,228.5569 740,250.2369 C781.35,319.1669 802,339.7569 802,420.1469 C802,420.1469 802,420.1469 802,936.9369 C802,1086.4869 635.04,1022.3469 511,1105.8969 C492.84,1118.1269 478.2261,1129.1223 462.2561,1141.8223" fill="none" id="Main-to-Supp" style="stroke:#181818;stroke-width:1;"/><polygon fill="#181818" points="457.56,1145.5569,467.0938,1143.0858,461.4734,1142.4448,462.1145,1136.8244,457.56,1145.5569" style="stroke:#181818;stroke-width:1;"/></g><!--link Main to Tags--><g class="link" data-entity-1="ent0003" data-entity-2="ent0014" data-link-type="dependency" data-source-line="113" id="lnk37"><path codeLine="113" d="M708.75,190.5769 C730.05,206.8369 753.31,227.4669 770,250.2369 C818.19,315.9669 839,338.6369 839,420.1469 C839,420.1469 839,420.1469 839,1056.9069 C839,1213.0569 626.8167,1274.2283 507.9867,1296.5683" fill="none" id="Main-to-Tags" style="stroke:#181818;stroke-width:1;"/><polygon fill="#181818" points="502.09,1297.6769,511.6741,1299.9451,507.0039,1296.7531,510.196,1292.0829,502.09,1297.6769" style="stroke:#181818;stroke-width:1;"/></g><!--link Main to IO--><g class="link" data-entity-1="ent0003" data-entity-2="ent0025" data-link-type="dependency" data-source-line="114" id="lnk38"><path codeLine="114" d="M603.7,190.6969 C584.06,207.0469 562.77,227.7169 548,250.2369 C528.97,279.2369 548.55,300.7069 523,324.1769 C440.75,399.7169 354.72,302.0869 279,384.1769 C71.57,609.0469 125.1237,1025.4619 144.5737,1139.7919" fill="none" id="Main-to-IO" style="stroke:#181818;stroke-width:1;"/><polygon fill="#181818" points="145.58,1145.7069,148.0139,1136.1635,144.7414,1140.7777,140.1272,1137.5052,145.58,1145.7069" style="stroke:#181818;stroke-width:1;"/></g><!--link Req to Text--><g class="link" data-entity-1="ent0012" data-entity-2="ent0026" data-link-type="dependency" data-source-line="116" id="lnk39"><path codeLine="116" d="M343.55,1086.1469 C334.99,1091.9069 326.8,1098.4969 320,1105.8969 C286.76,1142.0269 303.5,1167.3869 273,1205.8569 C255.21,1228.3069 236.4014,1245.2455 214.1914,1261.9855" fill="none" id="Req-to-Text" style="stroke:#181818;stroke-width:1;stroke-dasharray:7,7;"/><polygon fill="#181818" points="209.4,1265.5969,218.9948,1263.3741,213.3929,1262.5874,214.1796,1256.9855,209.4,1265.5969" style="stroke:#181818;stroke-width:1;"/></g><!--link Supp to Text--><g class="link" data-entity-1="ent0013" data-entity-2="ent0026" data-link-type="dependency" data-source-line="117" id="lnk40"><path codeLine="117" d="M359.73,1206.3169 C322.96,1223.7169 281.144,1243.4818 240.164,1262.8618" fill="none" id="Supp-to-Text" style="stroke:#181818;stroke-width:1;stroke-dasharray:7,7;"/><polygon fill="#181818" points="234.74,1265.4269,244.5861,1265.1952,239.26,1263.2893,241.166,1257.9632,234.74,1265.4269" style="stroke:#181818;stroke-width:1;"/></g><!--link Media to Text--><g class="link" data-entity-1="ent0009" data-entity-2="ent0026" data-link-type="dependency" data-source-line="118" id="lnk41"><path codeLine="118" d="M352.48,726.3969 C334.52,743.0769 316.38,763.5569 305,785.9869 C262.22,870.2669 279.36,1121.3669 237,1205.8569 C225.99,1227.8269 213.1154,1244.2578 196.5454,1261.2778" fill="none" id="Media-to-Text" style="stroke:#181818;stroke-width:1;stroke-dasharray:7,7;"/><polygon fill="#181818" points="192.36,1265.5769,201.5042,1261.9185,195.8479,1261.9943,195.7721,1256.338,192.36,1265.5769" style="stroke:#181818;stroke-width:1;"/></g><?plantuml-src XLL1Rjim4Bph5KHwQL7OS0C3RIy56WSE0ZH8K0Uz58L0IMkR3IKgvCgfK-GnEUPSe1_mnxga94SYhIQ-n3EZsLtDaaQ14jWtaO5QyHpOAKVE5gKKo4PCvAM470hSFQPYzyUmtICYt0W2damKeIePAfOeH9MpJ6X8KQWYYWn9IgvvpXAUtgoqgefifgJIx6uj43gyMVDCtObYnPPScYwJIcxCPqGjaWhXF5N5Gjm3ctGa6Inv9N6k2dJSk-CEYNQmPshQeKfgYgzWWLiQtJRDYvM4o2_EVaUC_awy4LxDFzXFpIcTWMxmwVJzyMpgS5ktHayaFHuzH67vGVlv_7Ws2-rFvXydaycGVMjwP6nsHsHEodgCevoBOYpARP4SCMxO1NrjYhyjHGbI5C0sSBzxqjBcweYS6mGTPqkM0Ex-Ifiu4FLWVVV5a2SIJ5DjNyykKfm3yeoMQLnkNTKp0Yy8QofJYLG3HuWpCAaMfTsSsFcz7e_7RpoHi_JOXrxH33OWLKazbrKYXLdJVtLxRGUdiBcgaWFrsmTh-Q7olkLG4oieDCGfFR9IUklLFxFaZ6FGWNlA30_V-8bGqwykQOyhoiMh-uNWe6QhVS4oXqnmp-_2Oe5XHtbe1ieOe31hXVyPD5UR5uTiTi_hwOhGeAL6-fAXvBXKEZU-fJmGbISUyjHmMz5rQAzEt_Oht0QkeNp8s5HbgJHwdWj20zEUTCWF-Sfly9gWmEnP5pZj3_Re-rfa6HG_w4OlHf-Qy-OqpT7p5Us9g7tQu-6hxFuwXLjadtNRwEXwBttUReQZtOe4h6ogkxHzbh9ofCtCv-mxTwHx-JvhNs9mMrOefBiiEm485JkuVVldby_lNYgUnQdPn8OlGMu7CuHVs3Uv9gGJeGHUU3j6Wju1TByQSIwiBkqnFnM1bPRXdKUj1cEJhnkR9EvdPjGctIn97sqsfAziTwA7kXte8NNkFSX5tKUaRsGZxG4knnxYikiXvvTHP7TWF6v6T9dllzMBrtxz1m00?></g></svg>