<?plantuml 1.2026.2beta2?><svg xmlns="http://www.w3.org/2000/svg" xmlns:xlink="http://www.w3.org/1999/xlink" contentStyleType="text/css" data-diagram-type="CLASS" height="398px" preserveAspectRatio="none" style="width:2430px;height:398px;background:#FFFFFF;" version="1.1" viewBox="0 0 2430 398" width="2430px" zoomAndPan="magnify"><title>Videogame Data Split - OOP oszt&#225;lydiagram (&#225;ttekint&#337;)</title><defs/><g><g class="title" data-source-line="1"><text fill="#000000" font-family="sans-serif" font-size="14" font-weight="bold" lengthAdjust="spacing" textLength="437.9443" x="989.3627" y="22.9951">Videogame Data Split - OOP oszt&#225;lydiagram (&#225;ttekint&#337;)</text></g><!--class SplitPipeline--><g class="entity" data-qualified-name="SplitPipeline" data-source-line="7" id="ent0002"><rect fill="#F1F1F1" height="64.2969" rx="2.5" ry="2.5" style="stroke:#181818;stroke-width:0.5;" width="128.3408" x="1355.05" y="44.2969"/><ellipse cx="1374.6405" cy="60.2969" fill="#ADD1B2" rx="11" ry="11" style="stroke:#181818;stroke-width:1;"/><path d="M1377.6093,65.9375 Q1377.0312,66.2344 1376.3905,66.375 Q1375.7499,66.5313 1375.0468,66.5313 Q1372.5468,66.5313 1371.2187,64.8906 Q1369.9062,63.2344 1369.9062,60.1094 Q1369.9062,56.9844 1371.2187,55.3281 Q1372.5468,53.6719 1375.0468,53.6719 Q1375.7499,53.6719 1376.3905,53.8281 Q1377.0468,53.9844 1377.6093,54.2813 L1377.6093,57 Q1376.9843,56.4219 1376.3905,56.1563 Q1375.7968,55.875 1375.1718,55.875 Q1373.828,55.875 1373.1405,56.9531 Q1372.453,58.0156 1372.453,60.1094 Q1372.453,62.2031 1373.1405,63.2813 Q1373.828,64.3438 1375.1718,64.3438 Q1375.7968,64.3438 1376.3905,64.0781 Q1376.9843,63.7969 1377.6093,63.2188 L1377.6093,65.9375 Z " fill="#000000"/><text fill="#000000" font-family="sans-serif" font-size="14" lengthAdjust="spacing" textLength="86.1396" x="1389.6606" y="65.1436">SplitPipeline</text><line style="stroke:#181818;stroke-width:0.5;" x1="1356.05" x2="1482.3908" y1="76.2969" y2="76.2969"/><line style="stroke:#181818;stroke-width:0.5;" x1="1356.05" x2="1482.3908" y1="84.2969" y2="84.2969"/><text fill="#000000" font-family="sans-serif" font-size="14" lengthAdjust="spacing" textLength="116.3408" x="1361.05" y="101.292">+run(master_df)</text></g><!--class TableBuilder--><g class="entity" data-qualified-name="TableBuilder" data-source-line="11" id="ent0003"><rect fill="#F1F1F1" height="64.2969" rx="2.5" ry="2.5" style="stroke:#181818;stroke-width:0.5;" width="192.0449" x="203.2" y="185.5969"/><ellipse cx="250.9559" cy="201.5969" fill="#B4A7E5" rx="11" ry="11" style="stroke:#181818;stroke-width:1;"/><path d="M246.8777,197.3625 L246.8777,195.2063 L254.2684,195.2063 L254.2684,197.3625 L251.7996,197.3625 L251.7996,205.4406 L254.2684,205.4406 L254.2684,207.5969 L246.8777,207.5969 L246.8777,205.4406 L249.3465,205.4406 L249.3465,197.3625 L246.8777,197.3625 Z " fill="#000000"/><text fill="#000000" font-family="sans-serif" font-size="14" font-style="italic" lengthAdjust="spacing" textLength="88.0332" x="271.4559" y="206.4436">TableBuilder</text><line style="stroke:#181818;stroke-width:0.5;" x1="204.2" x2="394.2449" y1="217.5969" y2="217.5969"/><line style="stroke:#181818;stroke-width:0.5;" x1="204.2" x2="394.2449" y1="225.5969" y2="225.5969"/><text fill="#000000" font-family="sans-serif" font-size="14" lengthAdjust="spacing" textLength="180.0449" x="209.2" y="242.592">+create_table(master_df)</text></g><!--class DeveloperPublisherTableBuilder--><g class="entity" data-qualified-name="DeveloperPublisherTableBuilder" data-source-line="15" id="ent0004"><rect fill="#F1F1F1" height="80.5938" rx="2.5" ry="2.5" style="stroke:#181818;stroke-width:0.5;" width="276.4482" x="7" y="310.8969"/><ellipse cx="30.9525" cy="326.8969" fill="#ADD1B2" rx="11" ry="11" style="stroke:#181818;stroke-width:1;"/><path d="M33.9213,332.5375 Q33.3432,332.8344 32.7025,332.975 Q32.0619,333.1312 31.3588,333.1312 Q28.8588,333.1312 27.5307,331.4906 Q26.2182,329.8344 26.2182,326.7094 Q26.2182,323.5844 27.5307,321.9281 Q28.8588,320.2719 31.3588,320.2719 Q32.0619,320.2719 32.7025,320.4281 Q33.3588,320.5844 33.9213,320.8812 L33.9213,323.6 Q33.2963,323.0219 32.7025,322.7562 Q32.1088,322.475 31.4838,322.475 Q30.14,322.475 29.4525,323.5531 Q28.765,324.6156 28.765,326.7094 Q28.765,328.8031 29.4525,329.8812 Q30.14,330.9437 31.4838,330.9437 Q32.1088,330.9437 32.7025,330.6781 Q33.2963,330.3969 33.9213,329.8187 L33.9213,332.5375 Z " fill="#000000"/><text fill="#000000" font-family="sans-serif" font-size="14" lengthAdjust="spacing" textLength="224.5537" x="46.942" y="331.7436">DeveloperPublisherTableBuilder</text><line style="stroke:#181818;stroke-width:0.5;" x1="8" x2="282.4482" y1="342.8969" y2="342.8969"/><line style="stroke:#181818;stroke-width:0.5;" x1="8" x2="282.4482" y1="350.8969" y2="350.8969"/><text fill="#000000" font-family="sans-serif" font-size="14" lengthAdjust="spacing" textLength="264.4482" x="13" y="367.892">+create_developer_tables(master_df)</text><text fill="#000000" font-family="sans-serif" font-size="14" lengthAdjust="spacing" textLength="259.3008" x="13" y="384.1889">+create_publisher_tables(master_df)</text></g><!--class GenreCategoryTableBuilder--><g class="entity" data-qualified-name="GenreCategoryTableBuilder" data-source-line="20" id="ent0005"><rect fill="#F1F1F1" height="80.5938" rx="2.5" ry="2.5" style="stroke:#181818;stroke-width:0.5;" width="272.4287" x="318.01" y="310.8969"/><ellipse cx="353.5935" cy="326.8969" fill="#ADD1B2" rx="11" ry="11" style="stroke:#181818;stroke-width:1;"/><path d="M356.5623,332.5375 Q355.9842,332.8344 355.3435,332.975 Q354.7029,333.1312 353.9998,333.1312 Q351.4998,333.1312 350.1717,331.4906 Q348.8592,329.8344 348.8592,326.7094 Q348.8592,323.5844 350.1717,321.9281 Q351.4998,320.2719 353.9998,320.2719 Q354.7029,320.2719 355.3435,320.4281 Q355.9998,320.5844 356.5623,320.8812 L356.5623,323.6 Q355.9373,323.0219 355.3435,322.7562 Q354.7498,322.475 354.1248,322.475 Q352.781,322.475 352.0935,323.5531 Q351.406,324.6156 351.406,326.7094 Q351.406,328.8031 352.0935,329.8812 Q352.781,330.9437 354.1248,330.9437 Q354.7498,330.9437 355.3435,330.6781 Q355.9373,330.3969 356.5623,329.8187 L356.5623,332.5375 Z " fill="#000000"/><text fill="#000000" font-family="sans-serif" font-size="14" lengthAdjust="spacing" textLength="194.6875" x="372.1677" y="331.7436">GenreCategoryTableBuilder</text><line style="stroke:#181818;stroke-width:0.5;" x1="319.01" x2="589.4387" y1="342.8969" y2="342.8969"/><line style="stroke:#181818;stroke-width:0.5;" x1="319.01" x2="589.4387" y1="350.8969" y2="350.8969"/><text fill="#000000" font-family="sans-serif" font-size="14" lengthAdjust="spacing" textLength="235.0811" x="324.01" y="367.892">+create_genres_table(master_df)</text><text fill="#000000" font-family="sans-serif" font-size="14" lengthAdjust="spacing" textLength="260.4287" x="324.01" y="384.1889">+create_categories_table(master_df)</text></g><!--class GameMetadataTableBuilder--><g class="entity" data-qualified-name="GameMetadataTableBuilder" data-source-line="32" id="ent0009"><rect fill="#F1F1F1" height="48" rx="2.5" ry="2.5" style="stroke:#181818;stroke-width:0.5;" width="228.0068" x="430.22" y="193.7469"/><ellipse cx="445.22" cy="209.7469" fill="#ADD1B2" rx="11" ry="11" style="stroke:#181818;stroke-width:1;"/><path d="M448.1888,215.3875 Q447.6106,215.6844 446.97,215.825 Q446.3294,215.9813 445.6263,215.9813 Q443.1263,215.9813 441.7981,214.3406 Q440.4856,212.6844 440.4856,209.5594 Q440.4856,206.4344 441.7981,204.7781 Q443.1263,203.1219 445.6263,203.1219 Q446.3294,203.1219 446.97,203.2781 Q447.6263,203.4344 448.1888,203.7313 L448.1888,206.45 Q447.5638,205.8719 446.97,205.6063 Q446.3763,205.325 445.7513,205.325 Q444.4075,205.325 443.72,206.4031 Q443.0325,207.4656 443.0325,209.5594 Q443.0325,211.6531 443.72,212.7313 Q444.4075,213.7938 445.7513,213.7938 Q446.3763,213.7938 446.97,213.5281 Q447.5638,213.2469 448.1888,212.6688 L448.1888,215.3875 Z " fill="#000000"/><text fill="#000000" font-family="sans-serif" font-size="14" lengthAdjust="spacing" textLength="196.0068" x="459.22" y="214.5936">GameMetadataTableBuilder</text><line style="stroke:#181818;stroke-width:0.5;" x1="431.22" x2="657.2268" y1="225.7469" y2="225.7469"/><line style="stroke:#181818;stroke-width:0.5;" x1="431.22" x2="657.2268" y1="233.7469" y2="233.7469"/></g><!--class LanguageTableBuilder--><g class="entity" data-qualified-name="LanguageTableBuilder" data-source-line="33" id="ent0010"><rect fill="#F1F1F1" height="48" rx="2.5" ry="2.5" style="stroke:#181818;stroke-width:0.5;" width="189.124" x="693.66" y="193.7469"/><ellipse cx="708.66" cy="209.7469" fill="#ADD1B2" rx="11" ry="11" style="stroke:#181818;stroke-width:1;"/><path d="M711.6288,215.3875 Q711.0506,215.6844 710.41,215.825 Q709.7694,215.9813 709.0663,215.9813 Q706.5663,215.9813 705.2381,214.3406 Q703.9256,212.6844 703.9256,209.5594 Q703.9256,206.4344 705.2381,204.7781 Q706.5663,203.1219 709.0663,203.1219 Q709.7694,203.1219 710.41,203.2781 Q711.0663,203.4344 711.6288,203.7313 L711.6288,206.45 Q711.0038,205.8719 710.41,205.6063 Q709.8163,205.325 709.1913,205.325 Q707.8475,205.325 707.16,206.4031 Q706.4725,207.4656 706.4725,209.5594 Q706.4725,211.6531 707.16,212.7313 Q707.8475,213.7938 709.1913,213.7938 Q709.8163,213.7938 710.41,213.5281 Q711.0038,213.2469 711.6288,212.6688 L711.6288,215.3875 Z " fill="#000000"/><text fill="#000000" font-family="sans-serif" font-size="14" lengthAdjust="spacing" textLength="157.124" x="722.66" y="214.5936">LanguageTableBuilder</text><line style="stroke:#181818;stroke-width:0.5;" x1="694.66" x2="881.784" y1="225.7469" y2="225.7469"/><line style="stroke:#181818;stroke-width:0.5;" x1="694.66" x2="881.784" y1="233.7469" y2="233.7469"/></g><!--class MediaTableBuilder--><g class="entity" data-qualified-name="MediaTableBuilder" data-source-line="34" id="ent0011"><rect fill="#F1F1F1" height="48" rx="2.5" ry="2.5" style="stroke:#181818;stroke-width:0.5;" width="162.0811" x="918.18" y="193.7469"/><ellipse cx="933.18" cy="209.7469" fill="#ADD1B2" rx="11" ry="11" style="stroke:#181818;stroke-width:1;"/><path d="M936.1488,215.3875 Q935.5706,215.6844 934.93,215.825 Q934.2894,215.9813 933.5863,215.9813 Q931.0863,215.9813 929.7581,214.3406 Q928.4456,212.6844 928.4456,209.5594 Q928.4456,206.4344 929.7581,204.7781 Q931.0863,203.1219 933.5863,203.1219 Q934.2894,203.1219 934.93,203.2781 Q935.5863,203.4344 936.1488,203.7313 L936.1488,206.45 Q935.5238,205.8719 934.93,205.6063 Q934.3363,205.325 933.7113,205.325 Q932.3675,205.325 931.68,206.4031 Q930.9925,207.4656 930.9925,209.5594 Q930.9925,211.6531 931.68,212.7313 Q932.3675,213.7938 933.7113,213.7938 Q934.3363,213.7938 934.93,213.5281 Q935.5238,213.2469 936.1488,212.6688 L936.1488,215.3875 Z " fill="#000000"/><text fill="#000000" font-family="sans-serif" font-size="14" lengthAdjust="spacing" textLength="130.0811" x="947.18" y="214.5936">MediaTableBuilder</text><line style="stroke:#181818;stroke-width:0.5;" x1="919.18" x2="1079.2611" y1="225.7469" y2="225.7469"/><line style="stroke:#181818;stroke-width:0.5;" x1="919.18" x2="1079.2611" y1="233.7469" y2="233.7469"/></g><!--class PackageTableBuilder--><g class="entity" data-qualified-name="PackageTableBuilder" data-source-line="35" id="ent0012"><rect fill="#F1F1F1" height="48" rx="2.5" ry="2.5" style="stroke:#181818;stroke-width:0.5;" width="178.9385" x="1115.75" y="193.7469"/><ellipse cx="1130.75" cy="209.7469" fill="#ADD1B2" rx="11" ry="11" style="stroke:#181818;stroke-width:1;"/><path d="M1133.7188,215.3875 Q1133.1406,215.6844 1132.5,215.825 Q1131.8594,215.9813 1131.1563,215.9813 Q1128.6563,215.9813 1127.3281,214.3406 Q1126.0156,212.6844 1126.0156,209.5594 Q1126.0156,206.4344 1127.3281,204.7781 Q1128.6563,203.1219 1131.1563,203.1219 Q1131.8594,203.1219 1132.5,203.2781 Q1133.1563,203.4344 1133.7188,203.7313 L1133.7188,206.45 Q1133.0938,205.8719 1132.5,205.6063 Q1131.9063,205.325 1131.2813,205.325 Q1129.9375,205.325 1129.25,206.4031 Q1128.5625,207.4656 1128.5625,209.5594 Q1128.5625,211.6531 1129.25,212.7313 Q1129.9375,213.7938 1131.2813,213.7938 Q1131.9063,213.7938 1132.5,213.5281 Q1133.0938,213.2469 1133.7188,212.6688 L1133.7188,215.3875 Z " fill="#000000"/><text fill="#000000" font-family="sans-serif" font-size="14" lengthAdjust="spacing" textLength="146.9385" x="1144.75" y="214.5936">PackageTableBuilder</text><line style="stroke:#181818;stroke-width:0.5;" x1="1116.75" x2="1293.6885" y1="225.7469" y2="225.7469"/><line style="stroke:#181818;stroke-width:0.5;" x1="1116.75" x2="1293.6885" y1="233.7469" y2="233.7469"/></g><!--class PlatformTableBuilder--><g class="entity" data-qualified-name="PlatformTableBuilder" data-source-line="36" id="ent0013"><rect fill="#F1F1F1" height="48" rx="2.5" ry="2.5" style="stroke:#181818;stroke-width:0.5;" width="179.3213" x="1329.56" y="193.7469"/><ellipse cx="1344.56" cy="209.7469" fill="#ADD1B2" rx="11" ry="11" style="stroke:#181818;stroke-width:1;"/><path d="M1347.5288,215.3875 Q1346.9506,215.6844 1346.31,215.825 Q1345.6694,215.9813 1344.9663,215.9813 Q1342.4663,215.9813 1341.1381,214.3406 Q1339.8256,212.6844 1339.8256,209.5594 Q1339.8256,206.4344 1341.1381,204.7781 Q1342.4663,203.1219 1344.9663,203.1219 Q1345.6694,203.1219 1346.31,203.2781 Q1346.9663,203.4344 1347.5288,203.7313 L1347.5288,206.45 Q1346.9038,205.8719 1346.31,205.6063 Q1345.7163,205.325 1345.0913,205.325 Q1343.7475,205.325 1343.06,206.4031 Q1342.3725,207.4656 1342.3725,209.5594 Q1342.3725,211.6531 1343.06,212.7313 Q1343.7475,213.7938 1345.0913,213.7938 Q1345.7163,213.7938 1346.31,213.5281 Q1346.9038,213.2469 1347.5288,212.6688 L1347.5288,215.3875 Z " fill="#000000"/><text fill="#000000" font-family="sans-serif" font-size="14" lengthAdjust="spacing" textLength="147.3213" x="1358.56" y="214.5936">PlatformTableBuilder</text><line style="stroke:#181818;stroke-width:0.5;" x1="1330.56" x2="1507.8813" y1="225.7469" y2="225.7469"/><line style="stroke:#181818;stroke-width:0.5;" x1="1330.56" x2="1507.8813" y1="233.7469" y2="233.7469"/></g><!--class RequirementsTableBuilder--><g class="entity" data-qualified-name="RequirementsTableBuilder" data-source-line="37" id="ent0014"><rect fill="#F1F1F1" height="48" rx="2.5" ry="2.5" style="stroke:#181818;stroke-width:0.5;" width="218.2998" x="1544.07" y="193.7469"/><ellipse cx="1559.07" cy="209.7469" fill="#ADD1B2" rx="11" ry="11" style="stroke:#181818;stroke-width:1;"/><path d="M1562.0388,215.3875 Q1561.4606,215.6844 1560.82,215.825 Q1560.1794,215.9813 1559.4763,215.9813 Q1556.9763,215.9813 1555.6481,214.3406 Q1554.3356,212.6844 1554.3356,209.5594 Q1554.3356,206.4344 1555.6481,204.7781 Q1556.9763,203.1219 1559.4763,203.1219 Q1560.1794,203.1219 1560.82,203.2781 Q1561.4763,203.4344 1562.0388,203.7313 L1562.0388,206.45 Q1561.4138,205.8719 1560.82,205.6063 Q1560.2263,205.325 1559.6013,205.325 Q1558.2575,205.325 1557.57,206.4031 Q1556.8825,207.4656 1556.8825,209.5594 Q1556.8825,211.6531 1557.57,212.7313 Q1558.2575,213.7938 1559.6013,213.7938 Q1560.2263,213.7938 1560.82,213.5281 Q1561.4138,213.2469 1562.0388,212.6688 L1562.0388,215.3875 Z " fill="#000000"/><text fill="#000000" font-family="sans-serif" font-size="14" lengthAdjust="spacing" textLength="186.2998" x="1573.07" y="214.5936">RequirementsTableBuilder</text><line style="stroke:#181818;stroke-width:0.5;" x1="1545.07" x2="1761.3698" y1="225.7469" y2="225.7469"/><line style="stroke:#181818;stroke-width:0.5;" x1="1545.07" x2="1761.3698" y1="233.7469" y2="233.7469"/></g><!--class SupportTableBuilder--><g class="entity" data-qualified-name="SupportTableBuilder" data-source-line="38" id="ent0015"><rect fill="#F1F1F1" height="48" rx="2.5" ry="2.5" style="stroke:#181818;stroke-width:0.5;" width="175.377" x="1797.54" y="193.7469"/><ellipse cx="1812.54" cy="209.7469" fill="#ADD1B2" rx="11" ry="11" style="stroke:#181818;stroke-width:1;"/><path d="M1815.5088,215.3875 Q1814.9306,215.6844 1814.29,215.825 Q1813.6494,215.9813 1812.9463,215.9813 Q1810.4463,215.9813 1809.1181,214.3406 Q1807.8056,212.6844 1807.8056,209.5594 Q1807.8056,206.4344 1809.1181,204.7781 Q1810.4463,203.1219 1812.9463,203.1219 Q1813.6494,203.1219 1814.29,203.2781 Q1814.9463,203.4344 1815.5088,203.7313 L1815.5088,206.45 Q1814.8838,205.8719 1814.29,205.6063 Q1813.6963,205.325 1813.0713,205.325 Q1811.7275,205.325 1811.04,206.4031 Q1810.3525,207.4656 1810.3525,209.5594 Q1810.3525,211.6531 1811.04,212.7313 Q1811.7275,213.7938 1813.0713,213.7938 Q1813.6963,213.7938 1814.29,213.5281 Q1814.8838,213.2469 1815.5088,212.6688 L1815.5088,215.3875 Z " fill="#000000"/><text fill="#000000" font-family="sans-serif" font-size="14" lengthAdjust="spacing" textLength="143.377" x="1826.54" y="214.5936">SupportTableBuilder</text><line style="stroke:#181818;stroke-width:0.5;" x1="1798.54" x2="1971.917" y1="225.7469" y2="225.7469"/><line style="stroke:#181818;stroke-width:0.5;" x1="1798.54" x2="1971.917" y1="233.7469" y2="233.7469"/></g><!--class TagsTableBuilder--><g class="entity" data-qualified-name="TagsTableBuilder" data-source-line="39" id="ent0016"><rect fill="#F1F1F1" height="48" rx="2.5" ry="2.5" style="stroke:#181818;stroke-width:0.5;" width="153.3447" x="2007.55" y="193.7469"/><ellipse cx="2022.55" cy="209.7469" fill="#ADD1B2" rx="11" ry="11" style="stroke:#181818;stroke-width:1;"/><path d="M2025.5188,215.3875 Q2024.9406,215.6844 2024.3,215.825 Q2023.6594,215.9813 2022.9563,215.9813 Q2020.4563,215.9813 2019.1281,214.3406 Q2017.8156,212.6844 2017.8156,209.5594 Q2017.8156,206.4344 2019.1281,204.7781 Q2020.4563,203.1219 2022.9563,203.1219 Q2023.6594,203.1219 2024.3,203.2781 Q2024.9563,203.4344 2025.5188,203.7313 L2025.5188,206.45 Q2024.8938,205.8719 2024.3,205.6063 Q2023.7063,205.325 2023.0813,205.325 Q2021.7375,205.325 2021.05,206.4031 Q2020.3625,207.4656 2020.3625,209.5594 Q2020.3625,211.6531 2021.05,212.7313 Q2021.7375,213.7938 2023.0813,213.7938 Q2023.7063,213.7938 2024.3,213.5281 Q2024.8938,213.2469 2025.5188,212.6688 L2025.5188,215.3875 Z " fill="#000000"/><text fill="#000000" font-family="sans-serif" font-size="14" lengthAdjust="spacing" textLength="121.3447" x="2036.55" y="214.5936">TagsTableBuilder</text><line style="stroke:#181818;stroke-width:0.5;" x1="2008.55" x2="2159.8947" y1="225.7469" y2="225.7469"/><line style="stroke:#181818;stroke-width:0.5;" x1="2008.55" x2="2159.8947" y1="233.7469" y2="233.7469"/></g><!--class TextUtils--><g class="entity" data-qualified-name="TextUtils" data-source-line="41" id="ent0017"><rect fill="#F1F1F1" height="48" rx="2.5" ry="2.5" style="stroke:#181818;stroke-width:0.5;" width="93.749" x="2196.35" y="193.7469"/><ellipse cx="2211.35" cy="209.7469" fill="#ADD1B2" rx="11" ry="11" style="stroke:#181818;stroke-width:1;"/><path d="M2214.3188,215.3875 Q2213.7406,215.6844 2213.1,215.825 Q2212.4594,215.9813 2211.7563,215.9813 Q2209.2563,215.9813 2207.9281,214.3406 Q2206.6156,212.6844 2206.6156,209.5594 Q2206.6156,206.4344 2207.9281,204.7781 Q2209.2563,203.1219 2211.7563,203.1219 Q2212.4594,203.1219 2213.1,203.2781 Q2213.7563,203.4344 2214.3188,203.7313 L2214.3188,206.45 Q2213.6938,205.8719 2213.1,205.6063 Q2212.5063,205.325 2211.8813,205.325 Q2210.5375,205.325 2209.85,206.4031 Q2209.1625,207.4656 2209.1625,209.5594 Q2209.1625,211.6531 2209.85,212.7313 Q2210.5375,213.7938 2211.8813,213.7938 Q2212.5063,213.7938 2213.1,213.5281 Q2213.6938,213.2469 2214.3188,212.6688 L2214.3188,215.3875 Z " fill="#000000"/><text fill="#000000" font-family="sans-serif" font-size="14" lengthAdjust="spacing" textLength="61.749" x="2225.35" y="214.5936">TextUtils</text><line style="stroke:#181818;stroke-width:0.5;" x1="2197.35" x2="2289.099" y1="225.7469" y2="225.7469"/><line style="stroke:#181818;stroke-width:0.5;" x1="2197.35" x2="2289.099" y1="233.7469" y2="233.7469"/></g><!--class IOService--><g class="entity" data-qualified-name="IOService" data-source-line="42" id="ent0018"><rect fill="#F1F1F1" height="48" rx="2.5" ry="2.5" style="stroke:#181818;stroke-width:0.5;" width="98.8896" x="2324.78" y="193.7469"/><ellipse cx="2339.78" cy="209.7469" fill="#ADD1B2" rx="11" ry="11" style="stroke:#181818;stroke-width:1;"/><path d="M2342.7488,215.3875 Q2342.1706,215.6844 2341.53,215.825 Q2340.8894,215.9813 2340.1863,215.9813 Q2337.6863,215.9813 2336.3581,214.3406 Q2335.0456,212.6844 2335.0456,209.5594 Q2335.0456,206.4344 2336.3581,204.7781 Q2337.6863,203.1219 2340.1863,203.1219 Q2340.8894,203.1219 2341.53,203.2781 Q2342.1863,203.4344 2342.7488,203.7313 L2342.7488,206.45 Q2342.1238,205.8719 2341.53,205.6063 Q2340.9363,205.325 2340.3113,205.325 Q2338.9675,205.325 2338.28,206.4031 Q2337.5925,207.4656 2337.5925,209.5594 Q2337.5925,211.6531 2338.28,212.7313 Q2338.9675,213.7938 2340.3113,213.7938 Q2340.9363,213.7938 2341.53,213.5281 Q2342.1238,213.2469 2342.7488,212.6688 L2342.7488,215.3875 Z " fill="#000000"/><text fill="#000000" font-family="sans-serif" font-size="14" lengthAdjust="spacing" textLength="66.8896" x="2353.78" y="214.5936">IOService</text><line style="stroke:#181818;stroke-width:0.5;" x1="2325.78" x2="2422.6696" y1="225.7469" y2="225.7469"/><line style="stroke:#181818;stroke-width:0.5;" x1="2325.78" x2="2422.6696" y1="233.7469" y2="233.7469"/></g><!--reverse link TableBuilder to DeveloperPublisherTableBuilder--><g class="link" data-entity-1="ent0003" data-entity-2="ent0004" data-link-type="extension" data-source-line="25" id="lnk6"><path codeLine="25" d="M248.6497,261.9134 C227.4697,279.9934 214.36,291.1769 191.75,310.4769" fill="none" id="TableBuilder-backto-DeveloperPublisherTableBuilder" style="stroke:#181818;stroke-width:1;stroke-dasharray:7,7;"/><polygon fill="none" points="262.34,250.2269,244.7542,257.35,252.5452,266.4769,262.34,250.2269" style="stroke:#181818;stroke-width:1;"/></g><!--reverse link TableBuilder to GenreCategoryTableBuilder--><g class="link" data-entity-1="ent0003" data-entity-2="ent0005" data-link-type="extension" data-source-line="26" id="lnk7"><path codeLine="26" d="M350.0782,261.8688 C371.3982,279.9488 384.63,291.1769 407.4,310.4769" fill="none" id="TableBuilder-backto-GenreCategoryTableBuilder" style="stroke:#181818;stroke-width:1;stroke-dasharray:7,7;"/><polygon fill="none" points="336.35,250.2269,346.1976,266.4449,353.9589,257.2928,336.35,250.2269" style="stroke:#181818;stroke-width:1;"/></g><!--link SplitPipeline to TableBuilder--><g class="link" data-entity-1="ent0002" data-entity-2="ent0003" data-link-type="dependency" data-source-line="28" id="lnk8"><path codeLine="28" d="M1354.75,80.5769 C1194.2,89.1769 764.13,117.2469 412.22,185.5969 C406.73,186.6669 406.9595,186.5213 401.3095,187.8113" fill="none" id="SplitPipeline-to-TableBuilder" style="stroke:#181818;stroke-width:1;"/><polygon fill="#181818" points="395.46,189.1469,405.1246,191.0432,400.3346,188.0339,403.3438,183.2439,395.46,189.1469" style="stroke:#181818;stroke-width:1;"/><text fill="#000000" font-family="sans-serif" font-size="13" lengthAdjust="spacing" textLength="29.7832" x="688.22" y="151.6638">uses</text></g><!--link SplitPipeline to GameMetadataTableBuilder--><g class="link" data-entity-1="ent0002" data-entity-2="ent0009" data-link-type="dependency" data-source-line="44" id="lnk19"><path codeLine="44" d="M1354.81,84.9069 C1225.55,100.2869 925.61,138.1169 676.22,185.5969 C664.2,187.8869 657.4663,189.2218 645.0363,191.9918" fill="none" id="SplitPipeline-to-GameMetadataTableBuilder" style="stroke:#181818;stroke-width:1;stroke-dasharray:7,7;"/><polygon fill="#181818" points="639.18,193.2969,648.8346,195.2435,644.0603,192.2093,647.0945,187.435,639.18,193.2969" style="stroke:#181818;stroke-width:1;"/></g><!--link SplitPipeline to LanguageTableBuilder--><g class="link" data-entity-1="ent0002" data-entity-2="ent0010" data-link-type="dependency" data-source-line="45" id="lnk20"><path codeLine="45" d="M1354.59,89.4969 C1256.12,108.1769 1062.78,146.0969 900.22,185.5969 C890.42,187.9769 885.9666,189.0677 875.8266,191.7777" fill="none" id="SplitPipeline-to-LanguageTableBuilder" style="stroke:#181818;stroke-width:1;stroke-dasharray:7,7;"/><polygon fill="#181818" points="870.03,193.3269,879.7576,194.8675,874.8605,192.0359,877.692,187.1387,870.03,193.3269" style="stroke:#181818;stroke-width:1;"/></g><!--link SplitPipeline to MediaTableBuilder--><g class="link" data-entity-1="ent0002" data-entity-2="ent0011" data-link-type="dependency" data-source-line="46" id="lnk21"><path codeLine="46" d="M1354.98,98.7569 C1278,124.2869 1155.1448,165.0277 1075.4748,191.4577" fill="none" id="SplitPipeline-to-MediaTableBuilder" style="stroke:#181818;stroke-width:1;stroke-dasharray:7,7;"/><polygon fill="#181818" points="1069.78,193.3469,1079.5817,194.3096,1074.5257,191.7725,1077.0627,186.7165,1069.78,193.3469" style="stroke:#181818;stroke-width:1;"/></g><!--link SplitPipeline to PackageTableBuilder--><g class="link" data-entity-1="ent0002" data-entity-2="ent0012" data-link-type="dependency" data-source-line="47" id="lnk22"><path codeLine="47" d="M1370.66,109.0569 C1331.33,134.6669 1281.8086,166.8938 1246.2886,190.0138" fill="none" id="SplitPipeline-to-PackageTableBuilder" style="stroke:#181818;stroke-width:1;stroke-dasharray:7,7;"/><polygon fill="#181818" points="1241.26,193.2869,1250.985,191.7296,1245.4505,190.5593,1246.6208,185.0248,1241.26,193.2869" style="stroke:#181818;stroke-width:1;"/></g><!--link SplitPipeline to PlatformTableBuilder--><g class="link" data-entity-1="ent0002" data-entity-2="ent0013" data-link-type="dependency" data-source-line="48" id="lnk23"><path codeLine="48" d="M1419.22,109.0569 C1419.22,134.7469 1419.22,164.3869 1419.22,187.5069" fill="none" id="SplitPipeline-to-PlatformTableBuilder" style="stroke:#181818;stroke-width:1;stroke-dasharray:7,7;"/><polygon fill="#181818" points="1419.22,193.5069,1423.22,184.5069,1419.22,188.5069,1415.22,184.5069,1419.22,193.5069" style="stroke:#181818;stroke-width:1;"/></g><!--link SplitPipeline to RequirementsTableBuilder--><g class="link" data-entity-1="ent0002" data-entity-2="ent0014" data-link-type="dependency" data-source-line="49" id="lnk24"><path codeLine="49" d="M1472.32,109.0569 C1515.34,134.6669 1569.8243,167.0979 1608.6643,190.2179" fill="none" id="SplitPipeline-to-RequirementsTableBuilder" style="stroke:#181818;stroke-width:1;stroke-dasharray:7,7;"/><polygon fill="#181818" points="1613.82,193.2869,1608.1324,185.2462,1609.5236,190.7294,1604.0404,192.1205,1613.82,193.2869" style="stroke:#181818;stroke-width:1;"/></g><!--link SplitPipeline to SupportTableBuilder--><g class="link" data-entity-1="ent0002" data-entity-2="ent0015" data-link-type="dependency" data-source-line="50" id="lnk25"><path codeLine="50" d="M1483.53,96.6669 C1567.92,121.8969 1710.2013,164.4287 1801.0713,191.5887" fill="none" id="SplitPipeline-to-SupportTableBuilder" style="stroke:#181818;stroke-width:1;stroke-dasharray:7,7;"/><polygon fill="#181818" points="1806.82,193.3069,1799.3424,186.8971,1802.0294,191.875,1797.0514,194.562,1806.82,193.3069" style="stroke:#181818;stroke-width:1;"/></g><!--link SplitPipeline to TagsTableBuilder--><g class="link" data-entity-1="ent0002" data-entity-2="ent0016" data-link-type="dependency" data-source-line="51" id="lnk26"><path codeLine="51" d="M1483.64,86.7869 C1590.04,102.8569 1808.81,138.5769 1990.22,185.5969 C1998.96,187.8569 2002.3377,188.7347 2011.2977,191.5047" fill="none" id="SplitPipeline-to-TagsTableBuilder" style="stroke:#181818;stroke-width:1;stroke-dasharray:7,7;"/><polygon fill="#181818" points="2017.03,193.2769,2009.613,186.7971,2012.2531,191.8001,2007.2501,194.4402,2017.03,193.2769" style="stroke:#181818;stroke-width:1;"/></g><!--link SplitPipeline to TextUtils--><g class="link" data-entity-1="ent0002" data-entity-2="ent0017" data-link-type="dependency" data-source-line="52" id="lnk27"><path codeLine="52" d="M1483.87,80.0269 C1616.68,86.7669 1928.71,109.9969 2178.22,185.5969 C2185.05,187.6669 2186.5536,187.9737 2193.3236,190.9037" fill="none" id="SplitPipeline-to-TextUtils" style="stroke:#181818;stroke-width:1;stroke-dasharray:7,7;"/><polygon fill="#181818" points="2198.83,193.2869,2192.1591,186.0412,2194.2413,191.3009,2188.9816,193.3831,2198.83,193.2869" style="stroke:#181818;stroke-width:1;"/></g><!--link SplitPipeline to IOService--><g class="link" data-entity-1="ent0002" data-entity-2="ent0018" data-link-type="dependency" data-source-line="53" id="lnk28"><path codeLine="53" d="M1483.68,81.8369 C1598.38,90.0469 1845.3,109.5869 2052.22,138.5969 C2166.35,154.5969 2197.43,150.5769 2307.22,185.5969 C2313.95,187.7369 2315.3479,188.0502 2322.0779,190.9102" fill="none" id="SplitPipeline-to-IOService" style="stroke:#181818;stroke-width:1;stroke-dasharray:7,7;"/><polygon fill="#181818" points="2327.6,193.2569,2320.8814,186.0555,2322.9983,191.3013,2317.7525,193.4182,2327.6,193.2569" style="stroke:#181818;stroke-width:1;"/></g><?plantuml-src XPBDJkim48NtVehP0KAjM2D0ugSWH52YEY1TDcYQJ8E5yuCzGVpSks39yZu2prBnNgI45e8To2hn-UOSvzYiM1ESgvJA37E20sG4MMd5C80mZA2q3pnxqVUfminW3gkp5sQwLWM__byJmZPl5Sw5HAErkyn6JMgcuwGif7eWs11Y1RRR1yQpPtaHZEAHX51UnBEdu4zuib25UBTeqoDLaLO5mQC0M3TriPgZPJANwNHD_1EYoISpnOGWnecclLhfb4nB9uQGwPBdmhUnDk60RacN5PcedcXbhyZqcgGBjBMpN_q-gMhXuw6MgKTK6DflyAmqzxs1sPooxkO_YQIrK3wg2UiuR_qT3d_vNSz0xqw5w1xEOB3JxNyJQalswv7lozqJE1m5CXo7GVp3iHyrr--K6DFc1dOoMpd08gin8uzqIitbzAn7c5px9oADF2rDxf76T5ChGpaLR3sohAkgDEnHOiow0ujrkkCpLjf-V1-7aiojIkXxcSFXJdy9BkejnCNSSbp6LvI7yfNcOhq5kgYlJ9ToYlKWouvTRTdt6m00?></g></svg>