<?plantuml 1.2026.2beta3?><svg xmlns="http://www.w3.org/2000/svg" xmlns:xlink="http://www.w3.org/1999/xlink" contentStyleType="text/css" data-diagram-type="CLASS" height="398px" preserveAspectRatio="none" style="width:2388px;height:398px;background:#FFFFFF;" version="1.1" viewBox="0 0 2388 398" width="2388px" zoomAndPan="magnify"><title>Videogame Data Split - OOP oszt&#225;lydiagram (&#225;ttekint&#337;)</title><defs/><g><g class="title" data-source-line="1"><text fill="#000000" font-family="sans-serif" font-size="14" font-weight="bold" lengthAdjust="spacing" textLength="437.9443" x="968.3227" y="22.9951">Videogame Data Split - OOP oszt&#225;lydiagram (&#225;ttekint&#337;)</text></g><!--class Service--><g class="entity" data-qualified-name="Service" data-source-line="7" id="ent0002"><rect fill="#F1F1F1" height="48" rx="2.5" ry="2.5" style="stroke:#181818;stroke-width:0.5;" width="83.7412" x="14.57" y="52.4469"/><ellipse cx="29.57" cy="68.4469" fill="#A9DCDF" rx="11" ry="11" style="stroke:#181818;stroke-width:1;"/><path d="M29.6794,63.7906 L28.5231,68.8687 L30.8513,68.8687 L29.6794,63.7906 Z M28.195,61.5562 L31.1794,61.5562 L34.5388,73.9469 L32.0856,73.9469 L31.32,70.8844 L28.0388,70.8844 L27.2888,73.9469 L24.8513,73.9469 L28.195,61.5562 Z " fill="#000000"/><text fill="#000000" font-family="sans-serif" font-size="14" font-style="italic" lengthAdjust="spacing" textLength="51.7412" x="43.57" y="73.2936">Service</text><line style="stroke:#181818;stroke-width:0.5;" x1="15.57" x2="97.3112" y1="84.4469" y2="84.4469"/><line style="stroke:#181818;stroke-width:0.5;" x1="15.57" x2="97.3112" y1="92.4469" y2="92.4469"/></g><!--class AbstractTableBuilder--><g class="entity" data-qualified-name="AbstractTableBuilder" data-source-line="8" id="ent0003"><rect fill="#F1F1F1" height="48" rx="2.5" ry="2.5" style="stroke:#181818;stroke-width:0.5;" width="178.8018" x="1247.04" y="52.4469"/><ellipse cx="1262.04" cy="68.4469" fill="#A9DCDF" rx="11" ry="11" style="stroke:#181818;stroke-width:1;"/><path d="M1262.1494,63.7906 L1260.9931,68.8687 L1263.3213,68.8687 L1262.1494,63.7906 Z M1260.665,61.5562 L1263.6494,61.5562 L1267.0088,73.9469 L1264.5556,73.9469 L1263.79,70.8844 L1260.5088,70.8844 L1259.7588,73.9469 L1257.3213,73.9469 L1260.665,61.5562 Z " fill="#000000"/><text fill="#000000" font-family="sans-serif" font-size="14" font-style="italic" lengthAdjust="spacing" textLength="146.8018" x="1276.04" y="73.2936">AbstractTableBuilder</text><line style="stroke:#181818;stroke-width:0.5;" x1="1248.04" x2="1424.8418" y1="84.4469" y2="84.4469"/><line style="stroke:#181818;stroke-width:0.5;" x1="1248.04" x2="1424.8418" y1="92.4469" y2="92.4469"/></g><!--class SplitPipeline--><g class="entity" data-qualified-name="SplitPipeline" data-source-line="12" id="ent0004"><rect fill="#F1F1F1" height="64.2969" rx="2.5" ry="2.5" style="stroke:#181818;stroke-width:0.5;" width="128.3408" x="133.27" y="44.2969"/><ellipse cx="152.8605" cy="60.2969" fill="#ADD1B2" rx="11" ry="11" style="stroke:#181818;stroke-width:1;"/><path d="M155.8293,65.9375 Q155.2512,66.2344 154.6105,66.375 Q153.9699,66.5313 153.2668,66.5313 Q150.7668,66.5313 149.4387,64.8906 Q148.1262,63.2344 148.1262,60.1094 Q148.1262,56.9844 149.4387,55.3281 Q150.7668,53.6719 153.2668,53.6719 Q153.9699,53.6719 154.6105,53.8281 Q155.2668,53.9844 155.8293,54.2813 L155.8293,57 Q155.2043,56.4219 154.6105,56.1563 Q154.0168,55.875 153.3918,55.875 Q152.048,55.875 151.3605,56.9531 Q150.673,58.0156 150.673,60.1094 Q150.673,62.2031 151.3605,63.2813 Q152.048,64.3438 153.3918,64.3438 Q154.0168,64.3438 154.6105,64.0781 Q155.2043,63.7969 155.8293,63.2188 L155.8293,65.9375 Z " fill="#000000"/><text fill="#000000" font-family="sans-serif" font-size="14" lengthAdjust="spacing" textLength="86.1396" x="167.8806" y="65.1436">SplitPipeline</text><line style="stroke:#181818;stroke-width:0.5;" x1="134.27" x2="260.6108" y1="76.2969" y2="76.2969"/><line style="stroke:#181818;stroke-width:0.5;" x1="134.27" x2="260.6108" y1="84.2969" y2="84.2969"/><text fill="#000000" font-family="sans-serif" font-size="14" lengthAdjust="spacing" textLength="116.3408" x="139.27" y="101.292">+run(master_df)</text></g><!--class TableBuilder--><g class="entity" data-qualified-name="TableBuilder" data-source-line="18" id="ent0005"><rect fill="#F1F1F1" height="64.2969" rx="2.5" ry="2.5" style="stroke:#181818;stroke-width:0.5;" width="192.0449" x="352.42" y="185.5969"/><ellipse cx="400.1759" cy="201.5969" fill="#B4A7E5" rx="11" ry="11" style="stroke:#181818;stroke-width:1;"/><path d="M396.0977,197.3625 L396.0977,195.2063 L403.4884,195.2063 L403.4884,197.3625 L401.0196,197.3625 L401.0196,205.4406 L403.4884,205.4406 L403.4884,207.5969 L396.0977,207.5969 L396.0977,205.4406 L398.5665,205.4406 L398.5665,197.3625 L396.0977,197.3625 Z " fill="#000000"/><text fill="#000000" font-family="sans-serif" font-size="14" font-style="italic" lengthAdjust="spacing" textLength="88.0332" x="420.6759" y="206.4436">TableBuilder</text><line style="stroke:#181818;stroke-width:0.5;" x1="353.42" x2="543.4649" y1="217.5969" y2="217.5969"/><line style="stroke:#181818;stroke-width:0.5;" x1="353.42" x2="543.4649" y1="225.5969" y2="225.5969"/><text fill="#000000" font-family="sans-serif" font-size="14" lengthAdjust="spacing" textLength="180.0449" x="358.42" y="242.592">+create_table(master_df)</text></g><!--class DeveloperPublisherTableBuilder--><g class="entity" data-qualified-name="DeveloperPublisherTableBuilder" data-source-line="26" id="ent0007"><rect fill="#F1F1F1" height="80.5938" rx="2.5" ry="2.5" style="stroke:#181818;stroke-width:0.5;" width="276.4482" x="1252.22" y="310.8969"/><ellipse cx="1276.1725" cy="326.8969" fill="#ADD1B2" rx="11" ry="11" style="stroke:#181818;stroke-width:1;"/><path d="M1279.1413,332.5375 Q1278.5632,332.8344 1277.9225,332.975 Q1277.2819,333.1312 1276.5788,333.1312 Q1274.0788,333.1312 1272.7507,331.4906 Q1271.4382,329.8344 1271.4382,326.7094 Q1271.4382,323.5844 1272.7507,321.9281 Q1274.0788,320.2719 1276.5788,320.2719 Q1277.2819,320.2719 1277.9225,320.4281 Q1278.5788,320.5844 1279.1413,320.8812 L1279.1413,323.6 Q1278.5163,323.0219 1277.9225,322.7562 Q1277.3288,322.475 1276.7038,322.475 Q1275.36,322.475 1274.6725,323.5531 Q1273.985,324.6156 1273.985,326.7094 Q1273.985,328.8031 1274.6725,329.8812 Q1275.36,330.9437 1276.7038,330.9437 Q1277.3288,330.9437 1277.9225,330.6781 Q1278.5163,330.3969 1279.1413,329.8187 L1279.1413,332.5375 Z " fill="#000000"/><text fill="#000000" font-family="sans-serif" font-size="14" lengthAdjust="spacing" textLength="224.5537" x="1292.162" y="331.7436">DeveloperPublisherTableBuilder</text><line style="stroke:#181818;stroke-width:0.5;" x1="1253.22" x2="1527.6682" y1="342.8969" y2="342.8969"/><line style="stroke:#181818;stroke-width:0.5;" x1="1253.22" x2="1527.6682" y1="350.8969" y2="350.8969"/><text fill="#000000" font-family="sans-serif" font-size="14" lengthAdjust="spacing" textLength="264.4482" x="1258.22" y="367.892">+create_developer_tables(master_df)</text><text fill="#000000" font-family="sans-serif" font-size="14" lengthAdjust="spacing" textLength="259.3008" x="1258.22" y="384.1889">+create_publisher_tables(master_df)</text></g><!--class GenreCategoryTableBuilder--><g class="entity" data-qualified-name="GenreCategoryTableBuilder" data-source-line="31" id="ent0008"><rect fill="#F1F1F1" height="80.5938" rx="2.5" ry="2.5" style="stroke:#181818;stroke-width:0.5;" width="272.4287" x="224.23" y="310.8969"/><ellipse cx="259.8135" cy="326.8969" fill="#ADD1B2" rx="11" ry="11" style="stroke:#181818;stroke-width:1;"/><path d="M262.7823,332.5375 Q262.2042,332.8344 261.5635,332.975 Q260.9229,333.1312 260.2198,333.1312 Q257.7198,333.1312 256.3917,331.4906 Q255.0792,329.8344 255.0792,326.7094 Q255.0792,323.5844 256.3917,321.9281 Q257.7198,320.2719 260.2198,320.2719 Q260.9229,320.2719 261.5635,320.4281 Q262.2198,320.5844 262.7823,320.8812 L262.7823,323.6 Q262.1573,323.0219 261.5635,322.7562 Q260.9698,322.475 260.3448,322.475 Q259.001,322.475 258.3135,323.5531 Q257.626,324.6156 257.626,326.7094 Q257.626,328.8031 258.3135,329.8812 Q259.001,330.9437 260.3448,330.9437 Q260.9698,330.9437 261.5635,330.6781 Q262.1573,330.3969 262.7823,329.8187 L262.7823,332.5375 Z " fill="#000000"/><text fill="#000000" font-family="sans-serif" font-size="14" lengthAdjust="spacing" textLength="194.6875" x="278.3877" y="331.7436">GenreCategoryTableBuilder</text><line style="stroke:#181818;stroke-width:0.5;" x1="225.23" x2="495.6587" y1="342.8969" y2="342.8969"/><line style="stroke:#181818;stroke-width:0.5;" x1="225.23" x2="495.6587" y1="350.8969" y2="350.8969"/><text fill="#000000" font-family="sans-serif" font-size="14" lengthAdjust="spacing" textLength="235.0811" x="230.23" y="367.892">+create_genres_table(master_df)</text><text fill="#000000" font-family="sans-serif" font-size="14" lengthAdjust="spacing" textLength="260.4287" x="230.23" y="384.1889">+create_categories_table(master_df)</text></g><!--class GameMetadataTableBuilder--><g class="entity" data-qualified-name="GameMetadataTableBuilder" data-source-line="44" id="ent0012"><rect fill="#F1F1F1" height="48" rx="2.5" ry="2.5" style="stroke:#181818;stroke-width:0.5;" width="228.0068" x="978.44" y="193.7469"/><ellipse cx="993.44" cy="209.7469" fill="#ADD1B2" rx="11" ry="11" style="stroke:#181818;stroke-width:1;"/><path d="M996.4088,215.3875 Q995.8306,215.6844 995.19,215.825 Q994.5494,215.9813 993.8463,215.9813 Q991.3463,215.9813 990.0181,214.3406 Q988.7056,212.6844 988.7056,209.5594 Q988.7056,206.4344 990.0181,204.7781 Q991.3463,203.1219 993.8463,203.1219 Q994.5494,203.1219 995.19,203.2781 Q995.8463,203.4344 996.4088,203.7313 L996.4088,206.45 Q995.7838,205.8719 995.19,205.6063 Q994.5963,205.325 993.9713,205.325 Q992.6275,205.325 991.94,206.4031 Q991.2525,207.4656 991.2525,209.5594 Q991.2525,211.6531 991.94,212.7313 Q992.6275,213.7938 993.9713,213.7938 Q994.5963,213.7938 995.19,213.5281 Q995.7838,213.2469 996.4088,212.6688 L996.4088,215.3875 Z " fill="#000000"/><text fill="#000000" font-family="sans-serif" font-size="14" lengthAdjust="spacing" textLength="196.0068" x="1007.44" y="214.5936">GameMetadataTableBuilder</text><line style="stroke:#181818;stroke-width:0.5;" x1="979.44" x2="1205.4468" y1="225.7469" y2="225.7469"/><line style="stroke:#181818;stroke-width:0.5;" x1="979.44" x2="1205.4468" y1="233.7469" y2="233.7469"/></g><!--class LanguageTableBuilder--><g class="entity" data-qualified-name="LanguageTableBuilder" data-source-line="45" id="ent0013"><rect fill="#F1F1F1" height="48" rx="2.5" ry="2.5" style="stroke:#181818;stroke-width:0.5;" width="189.124" x="1241.88" y="193.7469"/><ellipse cx="1256.88" cy="209.7469" fill="#ADD1B2" rx="11" ry="11" style="stroke:#181818;stroke-width:1;"/><path d="M1259.8488,215.3875 Q1259.2706,215.6844 1258.63,215.825 Q1257.9894,215.9813 1257.2863,215.9813 Q1254.7863,215.9813 1253.4581,214.3406 Q1252.1456,212.6844 1252.1456,209.5594 Q1252.1456,206.4344 1253.4581,204.7781 Q1254.7863,203.1219 1257.2863,203.1219 Q1257.9894,203.1219 1258.63,203.2781 Q1259.2863,203.4344 1259.8488,203.7313 L1259.8488,206.45 Q1259.2238,205.8719 1258.63,205.6063 Q1258.0363,205.325 1257.4113,205.325 Q1256.0675,205.325 1255.38,206.4031 Q1254.6925,207.4656 1254.6925,209.5594 Q1254.6925,211.6531 1255.38,212.7313 Q1256.0675,213.7938 1257.4113,213.7938 Q1258.0363,213.7938 1258.63,213.5281 Q1259.2238,213.2469 1259.8488,212.6688 L1259.8488,215.3875 Z " fill="#000000"/><text fill="#000000" font-family="sans-serif" font-size="14" lengthAdjust="spacing" textLength="157.124" x="1270.88" y="214.5936">LanguageTableBuilder</text><line style="stroke:#181818;stroke-width:0.5;" x1="1242.88" x2="1430.004" y1="225.7469" y2="225.7469"/><line style="stroke:#181818;stroke-width:0.5;" x1="1242.88" x2="1430.004" y1="233.7469" y2="233.7469"/></g><!--class MediaTableBuilder--><g class="entity" data-qualified-name="MediaTableBuilder" data-source-line="46" id="ent0014"><rect fill="#F1F1F1" height="48" rx="2.5" ry="2.5" style="stroke:#181818;stroke-width:0.5;" width="162.0811" x="1466.4" y="193.7469"/><ellipse cx="1481.4" cy="209.7469" fill="#ADD1B2" rx="11" ry="11" style="stroke:#181818;stroke-width:1;"/><path d="M1484.3688,215.3875 Q1483.7906,215.6844 1483.15,215.825 Q1482.5094,215.9813 1481.8063,215.9813 Q1479.3063,215.9813 1477.9781,214.3406 Q1476.6656,212.6844 1476.6656,209.5594 Q1476.6656,206.4344 1477.9781,204.7781 Q1479.3063,203.1219 1481.8063,203.1219 Q1482.5094,203.1219 1483.15,203.2781 Q1483.8063,203.4344 1484.3688,203.7313 L1484.3688,206.45 Q1483.7438,205.8719 1483.15,205.6063 Q1482.5563,205.325 1481.9313,205.325 Q1480.5875,205.325 1479.9,206.4031 Q1479.2125,207.4656 1479.2125,209.5594 Q1479.2125,211.6531 1479.9,212.7313 Q1480.5875,213.7938 1481.9313,213.7938 Q1482.5563,213.7938 1483.15,213.5281 Q1483.7438,213.2469 1484.3688,212.6688 L1484.3688,215.3875 Z " fill="#000000"/><text fill="#000000" font-family="sans-serif" font-size="14" lengthAdjust="spacing" textLength="130.0811" x="1495.4" y="214.5936">MediaTableBuilder</text><line style="stroke:#181818;stroke-width:0.5;" x1="1467.4" x2="1627.4811" y1="225.7469" y2="225.7469"/><line style="stroke:#181818;stroke-width:0.5;" x1="1467.4" x2="1627.4811" y1="233.7469" y2="233.7469"/></g><!--class PackageTableBuilder--><g class="entity" data-qualified-name="PackageTableBuilder" data-source-line="47" id="ent0015"><rect fill="#F1F1F1" height="48" rx="2.5" ry="2.5" style="stroke:#181818;stroke-width:0.5;" width="178.9385" x="1663.98" y="193.7469"/><ellipse cx="1678.98" cy="209.7469" fill="#ADD1B2" rx="11" ry="11" style="stroke:#181818;stroke-width:1;"/><path d="M1681.9488,215.3875 Q1681.3706,215.6844 1680.73,215.825 Q1680.0894,215.9813 1679.3863,215.9813 Q1676.8863,215.9813 1675.5581,214.3406 Q1674.2456,212.6844 1674.2456,209.5594 Q1674.2456,206.4344 1675.5581,204.7781 Q1676.8863,203.1219 1679.3863,203.1219 Q1680.0894,203.1219 1680.73,203.2781 Q1681.3863,203.4344 1681.9488,203.7313 L1681.9488,206.45 Q1681.3238,205.8719 1680.73,205.6063 Q1680.1363,205.325 1679.5113,205.325 Q1678.1675,205.325 1677.48,206.4031 Q1676.7925,207.4656 1676.7925,209.5594 Q1676.7925,211.6531 1677.48,212.7313 Q1678.1675,213.7938 1679.5113,213.7938 Q1680.1363,213.7938 1680.73,213.5281 Q1681.3238,213.2469 1681.9488,212.6688 L1681.9488,215.3875 Z " fill="#000000"/><text fill="#000000" font-family="sans-serif" font-size="14" lengthAdjust="spacing" textLength="146.9385" x="1692.98" y="214.5936">PackageTableBuilder</text><line style="stroke:#181818;stroke-width:0.5;" x1="1664.98" x2="1841.9185" y1="225.7469" y2="225.7469"/><line style="stroke:#181818;stroke-width:0.5;" x1="1664.98" x2="1841.9185" y1="233.7469" y2="233.7469"/></g><!--class PlatformTableBuilder--><g class="entity" data-qualified-name="PlatformTableBuilder" data-source-line="48" id="ent0016"><rect fill="#F1F1F1" height="48" rx="2.5" ry="2.5" style="stroke:#181818;stroke-width:0.5;" width="179.3213" x="1877.78" y="193.7469"/><ellipse cx="1892.78" cy="209.7469" fill="#ADD1B2" rx="11" ry="11" style="stroke:#181818;stroke-width:1;"/><path d="M1895.7488,215.3875 Q1895.1706,215.6844 1894.53,215.825 Q1893.8894,215.9813 1893.1863,215.9813 Q1890.6863,215.9813 1889.3581,214.3406 Q1888.0456,212.6844 1888.0456,209.5594 Q1888.0456,206.4344 1889.3581,204.7781 Q1890.6863,203.1219 1893.1863,203.1219 Q1893.8894,203.1219 1894.53,203.2781 Q1895.1863,203.4344 1895.7488,203.7313 L1895.7488,206.45 Q1895.1238,205.8719 1894.53,205.6063 Q1893.9363,205.325 1893.3113,205.325 Q1891.9675,205.325 1891.28,206.4031 Q1890.5925,207.4656 1890.5925,209.5594 Q1890.5925,211.6531 1891.28,212.7313 Q1891.9675,213.7938 1893.3113,213.7938 Q1893.9363,213.7938 1894.53,213.5281 Q1895.1238,213.2469 1895.7488,212.6688 L1895.7488,215.3875 Z " fill="#000000"/><text fill="#000000" font-family="sans-serif" font-size="14" lengthAdjust="spacing" textLength="147.3213" x="1906.78" y="214.5936">PlatformTableBuilder</text><line style="stroke:#181818;stroke-width:0.5;" x1="1878.78" x2="2056.1013" y1="225.7469" y2="225.7469"/><line style="stroke:#181818;stroke-width:0.5;" x1="1878.78" x2="2056.1013" y1="233.7469" y2="233.7469"/></g><!--class RequirementsTableBuilder--><g class="entity" data-qualified-name="RequirementsTableBuilder" data-source-line="49" id="ent0017"><rect fill="#F1F1F1" height="48" rx="2.5" ry="2.5" style="stroke:#181818;stroke-width:0.5;" width="218.2998" x="2163.29" y="193.7469"/><ellipse cx="2178.29" cy="209.7469" fill="#ADD1B2" rx="11" ry="11" style="stroke:#181818;stroke-width:1;"/><path d="M2181.2588,215.3875 Q2180.6806,215.6844 2180.04,215.825 Q2179.3994,215.9813 2178.6963,215.9813 Q2176.1963,215.9813 2174.8681,214.3406 Q2173.5556,212.6844 2173.5556,209.5594 Q2173.5556,206.4344 2174.8681,204.7781 Q2176.1963,203.1219 2178.6963,203.1219 Q2179.3994,203.1219 2180.04,203.2781 Q2180.6963,203.4344 2181.2588,203.7313 L2181.2588,206.45 Q2180.6338,205.8719 2180.04,205.6063 Q2179.4463,205.325 2178.8213,205.325 Q2177.4775,205.325 2176.79,206.4031 Q2176.1025,207.4656 2176.1025,209.5594 Q2176.1025,211.6531 2176.79,212.7313 Q2177.4775,213.7938 2178.8213,213.7938 Q2179.4463,213.7938 2180.04,213.5281 Q2180.6338,213.2469 2181.2588,212.6688 L2181.2588,215.3875 Z " fill="#000000"/><text fill="#000000" font-family="sans-serif" font-size="14" lengthAdjust="spacing" textLength="186.2998" x="2192.29" y="214.5936">RequirementsTableBuilder</text><line style="stroke:#181818;stroke-width:0.5;" x1="2164.29" x2="2380.5898" y1="225.7469" y2="225.7469"/><line style="stroke:#181818;stroke-width:0.5;" x1="2164.29" x2="2380.5898" y1="233.7469" y2="233.7469"/></g><!--class SupportTableBuilder--><g class="entity" data-qualified-name="SupportTableBuilder" data-source-line="50" id="ent0018"><rect fill="#F1F1F1" height="48" rx="2.5" ry="2.5" style="stroke:#181818;stroke-width:0.5;" width="175.377" x="579.76" y="193.7469"/><ellipse cx="594.76" cy="209.7469" fill="#ADD1B2" rx="11" ry="11" style="stroke:#181818;stroke-width:1;"/><path d="M597.7288,215.3875 Q597.1506,215.6844 596.51,215.825 Q595.8694,215.9813 595.1663,215.9813 Q592.6663,215.9813 591.3381,214.3406 Q590.0256,212.6844 590.0256,209.5594 Q590.0256,206.4344 591.3381,204.7781 Q592.6663,203.1219 595.1663,203.1219 Q595.8694,203.1219 596.51,203.2781 Q597.1663,203.4344 597.7288,203.7313 L597.7288,206.45 Q597.1038,205.8719 596.51,205.6063 Q595.9163,205.325 595.2913,205.325 Q593.9475,205.325 593.26,206.4031 Q592.5725,207.4656 592.5725,209.5594 Q592.5725,211.6531 593.26,212.7313 Q593.9475,213.7938 595.2913,213.7938 Q595.9163,213.7938 596.51,213.5281 Q597.1038,213.2469 597.7288,212.6688 L597.7288,215.3875 Z " fill="#000000"/><text fill="#000000" font-family="sans-serif" font-size="14" lengthAdjust="spacing" textLength="143.377" x="608.76" y="214.5936">SupportTableBuilder</text><line style="stroke:#181818;stroke-width:0.5;" x1="580.76" x2="754.137" y1="225.7469" y2="225.7469"/><line style="stroke:#181818;stroke-width:0.5;" x1="580.76" x2="754.137" y1="233.7469" y2="233.7469"/></g><!--class TagsTableBuilder--><g class="entity" data-qualified-name="TagsTableBuilder" data-source-line="51" id="ent0019"><rect fill="#F1F1F1" height="48" rx="2.5" ry="2.5" style="stroke:#181818;stroke-width:0.5;" width="153.3447" x="789.77" y="193.7469"/><ellipse cx="804.77" cy="209.7469" fill="#ADD1B2" rx="11" ry="11" style="stroke:#181818;stroke-width:1;"/><path d="M807.7388,215.3875 Q807.1606,215.6844 806.52,215.825 Q805.8794,215.9813 805.1763,215.9813 Q802.6763,215.9813 801.3481,214.3406 Q800.0356,212.6844 800.0356,209.5594 Q800.0356,206.4344 801.3481,204.7781 Q802.6763,203.1219 805.1763,203.1219 Q805.8794,203.1219 806.52,203.2781 Q807.1763,203.4344 807.7388,203.7313 L807.7388,206.45 Q807.1138,205.8719 806.52,205.6063 Q805.9263,205.325 805.3013,205.325 Q803.9575,205.325 803.27,206.4031 Q802.5825,207.4656 802.5825,209.5594 Q802.5825,211.6531 803.27,212.7313 Q803.9575,213.7938 805.3013,213.7938 Q805.9263,213.7938 806.52,213.5281 Q807.1138,213.2469 807.7388,212.6688 L807.7388,215.3875 Z " fill="#000000"/><text fill="#000000" font-family="sans-serif" font-size="14" lengthAdjust="spacing" textLength="121.3447" x="818.77" y="214.5936">TagsTableBuilder</text><line style="stroke:#181818;stroke-width:0.5;" x1="790.77" x2="942.1147" y1="225.7469" y2="225.7469"/><line style="stroke:#181818;stroke-width:0.5;" x1="790.77" x2="942.1147" y1="233.7469" y2="233.7469"/></g><!--class TextUtils--><g class="entity" data-qualified-name="TextUtils" data-source-line="66" id="ent0030"><rect fill="#F1F1F1" height="48" rx="2.5" ry="2.5" style="stroke:#181818;stroke-width:0.5;" width="93.749" x="140.57" y="193.7469"/><ellipse cx="155.57" cy="209.7469" fill="#ADD1B2" rx="11" ry="11" style="stroke:#181818;stroke-width:1;"/><path d="M158.5388,215.3875 Q157.9606,215.6844 157.32,215.825 Q156.6794,215.9813 155.9763,215.9813 Q153.4763,215.9813 152.1481,214.3406 Q150.8356,212.6844 150.8356,209.5594 Q150.8356,206.4344 152.1481,204.7781 Q153.4763,203.1219 155.9763,203.1219 Q156.6794,203.1219 157.32,203.2781 Q157.9763,203.4344 158.5388,203.7313 L158.5388,206.45 Q157.9138,205.8719 157.32,205.6063 Q156.7263,205.325 156.1013,205.325 Q154.7575,205.325 154.07,206.4031 Q153.3825,207.4656 153.3825,209.5594 Q153.3825,211.6531 154.07,212.7313 Q154.7575,213.7938 156.1013,213.7938 Q156.7263,213.7938 157.32,213.5281 Q157.9138,213.2469 158.5388,212.6688 L158.5388,215.3875 Z " fill="#000000"/><text fill="#000000" font-family="sans-serif" font-size="14" lengthAdjust="spacing" textLength="61.749" x="169.57" y="214.5936">TextUtils</text><line style="stroke:#181818;stroke-width:0.5;" x1="141.57" x2="233.319" y1="225.7469" y2="225.7469"/><line style="stroke:#181818;stroke-width:0.5;" x1="141.57" x2="233.319" y1="233.7469" y2="233.7469"/></g><!--class IOService--><g class="entity" data-qualified-name="IOService" data-source-line="67" id="ent0031"><rect fill="#F1F1F1" height="48" rx="2.5" ry="2.5" style="stroke:#181818;stroke-width:0.5;" width="98.8896" x="7" y="193.7469"/><ellipse cx="22" cy="209.7469" fill="#ADD1B2" rx="11" ry="11" style="stroke:#181818;stroke-width:1;"/><path d="M24.9688,215.3875 Q24.3906,215.6844 23.75,215.825 Q23.1094,215.9813 22.4063,215.9813 Q19.9063,215.9813 18.5781,214.3406 Q17.2656,212.6844 17.2656,209.5594 Q17.2656,206.4344 18.5781,204.7781 Q19.9063,203.1219 22.4063,203.1219 Q23.1094,203.1219 23.75,203.2781 Q24.4063,203.4344 24.9688,203.7313 L24.9688,206.45 Q24.3438,205.8719 23.75,205.6063 Q23.1563,205.325 22.5313,205.325 Q21.1875,205.325 20.5,206.4031 Q19.8125,207.4656 19.8125,209.5594 Q19.8125,211.6531 20.5,212.7313 Q21.1875,213.7938 22.5313,213.7938 Q23.1563,213.7938 23.75,213.5281 Q24.3438,213.2469 24.9688,212.6688 L24.9688,215.3875 Z " fill="#000000"/><text fill="#000000" font-family="sans-serif" font-size="14" lengthAdjust="spacing" textLength="66.8896" x="36" y="214.5936">IOService</text><line style="stroke:#181818;stroke-width:0.5;" x1="8" x2="104.8896" y1="225.7469" y2="225.7469"/><line style="stroke:#181818;stroke-width:0.5;" x1="8" x2="104.8896" y1="233.7469" y2="233.7469"/></g><!--reverse link AbstractTableBuilder to TableBuilder--><g class="link" data-entity-1="ent0003" data-entity-2="ent0005" data-link-type="extension" data-source-line="22" id="lnk6"><path codeLine="22" d="M1228.8157,88.0706 C1083.9357,103.0706 807.81,135.1469 562.44,185.5969 C556.72,186.7769 550.85,188.0769 544.95,189.4569" fill="none" id="AbstractTableBuilder-backto-TableBuilder" style="stroke:#181818;stroke-width:1;"/><polygon fill="none" points="1246.72,86.2169,1228.1978,82.1025,1229.4336,94.0387,1246.72,86.2169" style="stroke:#181818;stroke-width:1;"/></g><!--reverse link TableBuilder to DeveloperPublisherTableBuilder--><g class="link" data-entity-1="ent0005" data-entity-2="ent0007" data-link-type="extension" data-source-line="36" id="lnk9"><path codeLine="36" d="M562.4765,250.1718 C802.6165,297.2618 1086.51,325.6069 1251.76,339.6269" fill="none" id="TableBuilder-backto-DeveloperPublisherTableBuilder" style="stroke:#181818;stroke-width:1;stroke-dasharray:7,7;"/><polygon fill="none" points="544.93,246.1569,561.1382,256.0206,563.8148,244.3229,544.93,246.1569" style="stroke:#181818;stroke-width:1;"/></g><!--reverse link TableBuilder to GenreCategoryTableBuilder--><g class="link" data-entity-1="ent0005" data-entity-2="ent0008" data-link-type="extension" data-source-line="37" id="lnk10"><path codeLine="37" d="M417.353,265.1821 C405.243,283.2621 399.95,291.1769 387.03,310.4769" fill="none" id="TableBuilder-backto-GenreCategoryTableBuilder" style="stroke:#181818;stroke-width:1;stroke-dasharray:7,7;"/><polygon fill="none" points="427.37,250.2269,412.3679,261.8431,422.338,268.5211,427.37,250.2269" style="stroke:#181818;stroke-width:1;"/></g><!--link SplitPipeline to TableBuilder--><g class="link" data-entity-1="ent0004" data-entity-2="ent0005" data-link-type="dependency" data-source-line="40" id="lnk11"><path codeLine="40" d="M254.4,109.0569 C295.48,131.8569 345.4435,159.5858 386.4635,182.3458" fill="none" id="SplitPipeline-to-TableBuilder" style="stroke:#181818;stroke-width:1;"/><polygon fill="#181818" points="391.71,185.2569,385.7809,177.3927,387.3379,182.831,381.8995,184.388,391.71,185.2569" style="stroke:#181818;stroke-width:1;"/><text fill="#000000" font-family="sans-serif" font-size="13" lengthAdjust="spacing" textLength="29.7832" x="339.44" y="151.6638">uses</text><text fill="#000000" font-family="sans-serif" font-size="13" lengthAdjust="spacing" textLength="23.0356" x="355.2802" y="174.4641">1..*</text></g><!--reverse link AbstractTableBuilder to DeveloperPublisherTableBuilder--><g class="link" data-entity-1="ent0003" data-entity-2="ent0007" data-link-type="extension" data-source-line="53" id="lnk20"><path codeLine="53" d="M1444.0699,76.7235 C1621.9399,77.2835 1991.58,89.6969 2074.44,185.5969 C2093.13,207.2169 2093.13,228.2669 2074.44,249.8969 C2005.39,329.8069 1707.99,347.2469 1528.86,350.3369" fill="none" id="AbstractTableBuilder-backto-DeveloperPublisherTableBuilder" style="stroke:#181818;stroke-width:1;"/><polygon fill="none" points="1426.07,76.6669,1444.051,82.7235,1444.0888,70.7236,1426.07,76.6669" style="stroke:#181818;stroke-width:1;"/></g><!--reverse link AbstractTableBuilder to GenreCategoryTableBuilder--><g class="link" data-entity-1="ent0003" data-entity-2="ent0008" data-link-type="extension" data-source-line="54" id="lnk21"><path codeLine="54" d="M1228.552,81.0452 C993.832,89.6352 394.46,117.8669 334.44,185.5969 C304.32,219.5869 320.93,273.7969 338.27,310.6369" fill="none" id="AbstractTableBuilder-backto-GenreCategoryTableBuilder" style="stroke:#181818;stroke-width:1;"/><polygon fill="none" points="1246.54,80.3869,1228.3326,75.0492,1228.7715,87.0412,1246.54,80.3869" style="stroke:#181818;stroke-width:1;"/></g><!--reverse link AbstractTableBuilder to GameMetadataTableBuilder--><g class="link" data-entity-1="ent0003" data-entity-2="ent0012" data-link-type="extension" data-source-line="55" id="lnk22"><path codeLine="55" d="M1279.6993,109.8433 C1234.6093,135.5933 1178.32,167.7169 1133.32,193.4069" fill="none" id="AbstractTableBuilder-backto-GameMetadataTableBuilder" style="stroke:#181818;stroke-width:1;"/><polygon fill="none" points="1295.33,100.9169,1276.7238,104.633,1282.6747,115.0535,1295.33,100.9169" style="stroke:#181818;stroke-width:1;"/></g><!--reverse link AbstractTableBuilder to LanguageTableBuilder--><g class="link" data-entity-1="ent0003" data-entity-2="ent0013" data-link-type="extension" data-source-line="56" id="lnk23"><path codeLine="56" d="M1336.44,118.7669 C1336.44,144.4769 1336.44,167.6069 1336.44,193.3569" fill="none" id="AbstractTableBuilder-backto-LanguageTableBuilder" style="stroke:#181818;stroke-width:1;"/><polygon fill="none" points="1336.44,100.7669,1330.44,118.7669,1342.44,118.7669,1336.44,100.7669" style="stroke:#181818;stroke-width:1;"/></g><!--reverse link AbstractTableBuilder to MediaTableBuilder--><g class="link" data-entity-1="ent0003" data-entity-2="ent0014" data-link-type="extension" data-source-line="57" id="lnk24"><path codeLine="57" d="M1386.7824,110.6828 C1425.7324,136.3928 1473.02,167.6069 1512.01,193.3569" fill="none" id="AbstractTableBuilder-backto-MediaTableBuilder" style="stroke:#181818;stroke-width:1;"/><polygon fill="none" points="1371.76,100.7669,1383.4771,115.6903,1390.0878,105.6754,1371.76,100.7669" style="stroke:#181818;stroke-width:1;"/></g><!--reverse link AbstractTableBuilder to PackageTableBuilder--><g class="link" data-entity-1="ent0003" data-entity-2="ent0015" data-link-type="extension" data-source-line="58" id="lnk25"><path codeLine="58" d="M1423.7823,106.621 C1500.7323,132.331 1606.32,167.5969 1683.24,193.2969" fill="none" id="AbstractTableBuilder-backto-PackageTableBuilder" style="stroke:#181818;stroke-width:1;"/><polygon fill="none" points="1406.71,100.9169,1421.8809,112.3117,1425.6837,100.9302,1406.71,100.9169" style="stroke:#181818;stroke-width:1;"/></g><!--reverse link AbstractTableBuilder to PlatformTableBuilder--><g class="link" data-entity-1="ent0003" data-entity-2="ent0016" data-link-type="extension" data-source-line="59" id="lnk26"><path codeLine="59" d="M1443.6358,96.9623 C1548.3458,116.4623 1708.99,147.9869 1860.44,185.5969 C1869.93,187.9469 1879.83,190.5869 1889.62,193.3069" fill="none" id="AbstractTableBuilder-backto-PlatformTableBuilder" style="stroke:#181818;stroke-width:1;"/><polygon fill="none" points="1425.94,93.6669,1442.5373,102.8609,1444.7342,91.0637,1425.94,93.6669" style="stroke:#181818;stroke-width:1;"/></g><!--reverse link AbstractTableBuilder to RequirementsTableBuilder--><g class="link" data-entity-1="ent0003" data-entity-2="ent0017" data-link-type="extension" data-source-line="60" id="lnk27"><path codeLine="60" d="M1444.1742,79.7843 C1624.3442,84.3643 2005.99,98.3969 2136.44,138.5969 C2175.09,150.5069 2214.66,174.8969 2241.08,193.2769" fill="none" id="AbstractTableBuilder-backto-RequirementsTableBuilder" style="stroke:#181818;stroke-width:1;"/><polygon fill="none" points="1426.18,79.3269,1444.0217,85.7824,1444.3267,73.7862,1426.18,79.3269" style="stroke:#181818;stroke-width:1;"/></g><!--reverse link AbstractTableBuilder to SupportTableBuilder--><g class="link" data-entity-1="ent0003" data-entity-2="ent0018" data-link-type="extension" data-source-line="61" id="lnk28"><path codeLine="61" d="M1229.2031,94.7452 C1117.4831,113.2952 938.57,145.1369 772.44,185.5969 C762.93,187.9169 752.99,190.5569 743.19,193.3069" fill="none" id="AbstractTableBuilder-backto-SupportTableBuilder" style="stroke:#181818;stroke-width:1;"/><polygon fill="none" points="1246.96,91.7969,1228.2203,88.8263,1230.1859,100.6642,1246.96,91.7969" style="stroke:#181818;stroke-width:1;"/></g><!--reverse link AbstractTableBuilder to TagsTableBuilder--><g class="link" data-entity-1="ent0003" data-entity-2="ent0019" data-link-type="extension" data-source-line="62" id="lnk29"><path codeLine="62" d="M1234.0708,105.6893 C1157.6808,126.9793 1059.89,154.8369 960.44,185.5969 C952.56,188.0369 944.33,190.6569 936.16,193.2969" fill="none" id="AbstractTableBuilder-backto-TagsTableBuilder" style="stroke:#181818;stroke-width:1;"/><polygon fill="none" points="1251.41,100.8569,1232.46,99.9096,1235.6816,111.4691,1251.41,100.8569" style="stroke:#181818;stroke-width:1;"/></g><!--reverse link Service to TextUtils--><g class="link" data-entity-1="ent0002" data-entity-2="ent0030" data-link-type="extension" data-source-line="69" id="lnk32"><path codeLine="69" d="M90.7018,113.879 C114.8818,139.589 141.24,167.6069 165.45,193.3569" fill="none" id="Service-backto-TextUtils" style="stroke:#181818;stroke-width:1;"/><polygon fill="none" points="78.37,100.7669,86.3311,117.9896,95.0725,109.7684,78.37,100.7669" style="stroke:#181818;stroke-width:1;"/></g><!--reverse link Service to IOService--><g class="link" data-entity-1="ent0002" data-entity-2="ent0031" data-link-type="extension" data-source-line="70" id="lnk33"><path codeLine="70" d="M56.44,118.7669 C56.44,144.4769 56.44,167.6069 56.44,193.3569" fill="none" id="Service-backto-IOService" style="stroke:#181818;stroke-width:1;"/><polygon fill="none" points="56.44,100.7669,50.44,118.7669,62.44,118.7669,56.44,100.7669" style="stroke:#181818;stroke-width:1;"/></g><!--link SplitPipeline to TextUtils--><g class="link" data-entity-1="ent0004" data-entity-2="ent0030" data-link-type="dependency" data-source-line="74" id="lnk34"><path codeLine="74" d="M195.18,109.0569 C193.33,134.7469 191.1997,164.4023 189.5397,187.5223" fill="none" id="SplitPipeline-to-TextUtils" style="stroke:#181818;stroke-width:1;stroke-dasharray:7,7;"/><polygon fill="#181818" points="189.11,193.5069,193.7443,184.8164,189.4681,188.5197,185.7648,184.2435,189.11,193.5069" style="stroke:#181818;stroke-width:1;"/></g><!--link SplitPipeline to IOService--><g class="link" data-entity-1="ent0004" data-entity-2="ent0031" data-link-type="dependency" data-source-line="75" id="lnk35"><path codeLine="75" d="M165.45,109.0569 C139.45,134.7469 107.6381,166.1698 84.2381,189.2898" fill="none" id="SplitPipeline-to-IOService" style="stroke:#181818;stroke-width:1;stroke-dasharray:7,7;"/><polygon fill="#181818" points="79.97,193.5069,89.1835,190.0267,83.5267,189.9927,83.5608,184.3359,79.97,193.5069" style="stroke:#181818;stroke-width:1;"/></g><?plantuml-src XLLDRvj04BtpAqQvD6c5srwhDX8uD48GWrXYgRv42vwGLJ3GtILgtEQGOs-DAkMUFv5JRwlyhsBPZi5P74wmy-RDnvjX9PCvmfXDiSpe3E68IWgaofa44u8WX5BCfNh8hwUCPfpEO5yzI8cNh91FTmU68PgtYYuCQKw5iAJaBAabkcbP43P7-60OR-3ByW5FtK_KFO6dFoGWarZT-jy23zu3cJYH4pRMIDrxQxHXq4H8JbEvv0Q2_8gbk7rihJvZckHerooV8cy73TtGyTsHi-5TqIsg35c5EIiGVXe0xtXTxC-eaCZFfkS7nasR9hPitm7xrFMFd0Wikya_ihoXg_vkY9kk83-dAK8xcILtof5AF9CBmrOGNGNm-PTfGbzDNZ3o8lKxxcPbBhgttvoJYUsCm7FjO1IFhOFjoe_m2lEoGXxMISx41VBUTAThw39nqSvyWwhMF1hKpJhgCHOSXmqyA_brRy1iWH8lsxH1f4iAfaCrmRQQE1YyKgx6eJVJXGGKglNCIFMO972f_kNgiKZKu_pfhgEOAO49kA1YNZGhT46bqPqvqpo4lO-3mTkzxhnyWbgWw0nVC5Qtjktgz1uIouElZa-2AF0rQXytUts2aawRrUuKipJxjCXgcg76T8BDrclEGvfUwZt2dChpaiyqfWY_rupZ30ifD6PILrN9fSOIqwphi6DVNf6wtx5VyXq-VOtjTz4skn_-Ke1-h4wK7MYTKFtmNl7wNNI2xlhHROky6NxYH6Dtw43hojWQyHX_o5F9Sh7wTeFrNM6iNbPHdd6TunQyzOkrmY49V2i6w_aACKUMludTNUR1uB3D_yBs7EG_?></g></svg>