<svg xmlns="http://www.w3.org/2000/svg" xmlns:xlink="http://www.w3.org/1999/xlink" contentStyleType="text/css" data-diagram-type="DESCRIPTION" height="677.6px" preserveAspectRatio="none" style="width:1196px;height:677px;background:#FFFFFF;" version="1.1" viewBox="0 0 1196 677" width="1196px" zoomAndPan="magnify"><title>Merge folyamat - bet&#246;lt&#233;s &#233;s egyes&#237;t&#233;s l&#233;p&#233;sei</title><defs/><g><g class="title" data-source-line="22"><text fill="#000000" font-family="sans-serif" font-size="11.2" font-weight="bold" lengthAdjust="spacing" textLength="295.9305" x="444.4348" y="18.3961">Merge folyamat - bet&#246;lt&#233;s &#233;s egyes&#237;t&#233;s l&#233;p&#233;sei</text></g><!--cluster A--><g class="cluster" data-entity="A" data-source-line="28" data-uid="ent0002" id="cluster_A"><path d="M6.8,73.8695 L99.032,73.8695 A3,3 0 0 1 101.032,75.8695 L106.632,104.7445 L249.2,104.7445 A2,2 0 0 1 251.2,106.7445 L251.2,670.5175 A2,2 0 0 1 249.2,672.5175 L6.8,672.5175 A2,2 0 0 1 4.8,670.5175 L4.8,75.8695 A2,2 0 0 1 6.8,73.8695" fill="none" style="stroke:#000000;stroke-width:1.2;"/><line style="stroke:#000000;stroke-width:1.2;" x1="4.8" x2="106.632" y1="104.7445" y2="104.7445"/><text fill="#000000" font-family="sans-serif" font-size="11.2" font-weight="bold" lengthAdjust="spacing" textLength="53.1836" x="27.1242" y="85.8656">Forr&#225;s A</text><text fill="#000000" font-family="sans-serif" font-size="11.2" font-weight="bold" lengthAdjust="spacing" textLength="91.432" x="8" y="98.9031">(Steam CSV-k)</text></g><!--cluster B--><g class="cluster" data-entity="B" data-source-line="42" data-uid="ent0016" id="cluster_B"><path d="M523.6,86.6695 L577.4523,86.6695 A3,3 0 0 1 579.4523,88.6695 L585.0523,104.507 L669.2,104.507 A2,2 0 0 1 671.2,106.507 L671.2,175.3015 A2,2 0 0 1 669.2,177.3015 L523.6,177.3015 A2,2 0 0 1 521.6,175.3015 L521.6,88.6695 A2,2 0 0 1 523.6,86.6695" fill="none" style="stroke:#000000;stroke-width:1.2;"/><line style="stroke:#000000;stroke-width:1.2;" x1="521.6" x2="585.0523" y1="104.507" y2="104.507"/><text fill="#000000" font-family="sans-serif" font-size="11.2" font-weight="bold" lengthAdjust="spacing" textLength="53.0523" x="524.8" y="98.6656">Forr&#225;s B</text></g><!--cluster C--><g class="cluster" data-entity="C" data-source-line="51" data-uid="ent0020" id="cluster_C"><path d="M927.6,73.8695 L1046.5797,73.8695 A3,3 0 0 1 1048.5797,75.8695 L1054.1797,104.7445 L1188.4,104.7445 A2,2 0 0 1 1190.4,106.7445 L1190.4,484.4455 A2,2 0 0 1 1188.4,486.4455 L927.6,486.4455 A2,2 0 0 1 925.6,484.4455 L925.6,75.8695 A2,2 0 0 1 927.6,73.8695" fill="none" style="stroke:#000000;stroke-width:1.2;"/><line style="stroke:#000000;stroke-width:1.2;" x1="925.6" x2="1054.1797" y1="104.7445" y2="104.7445"/><text fill="#000000" font-family="sans-serif" font-size="11.2" font-weight="bold" lengthAdjust="spacing" textLength="52.7352" x="961.5223" y="85.8656">Forr&#225;s C</text><text fill="#000000" font-family="sans-serif" font-size="11.2" font-weight="bold" lengthAdjust="spacing" textLength="118.1797" x="928.8" y="98.9031">(2024-2025 CSV-k)</text></g><!--entity steam.csv--><g class="entity" data-entity="steam.csv" data-source-line="29" data-uid="ent0003" id="entity_steam.csv"><rect fill="#F1F1F1" height="37.0375" rx="2" ry="2" style="stroke:#181818;stroke-width:0.4;" width="89.0719" x="80.264" y="121.0695"/><rect fill="#F1F1F1" height="8" style="stroke:#181818;stroke-width:0.4;" width="12" x="153.3359" y="125.0695"/><rect fill="#F1F1F1" height="1.6" style="stroke:#181818;stroke-width:0.4;" width="3.2" x="151.7359" y="126.6695"/><rect fill="#F1F1F1" height="1.6" style="stroke:#181818;stroke-width:0.4;" width="3.2" x="151.7359" y="129.8695"/><text fill="#000000" font-family="sans-serif" font-size="11.2" lengthAdjust="spacing" textLength="57.0719" x="92.264" y="147.4656">steam.csv</text></g><!--entity steam_description_data.csv--><g class="entity" data-entity="steam_description_data.csv" data-source-line="29" data-uid="ent0004" id="entity_steam_description_data.csv"><rect fill="#F1F1F1" height="37.0375" rx="2" ry="2" style="stroke:#181818;stroke-width:0.4;" width="187.7719" x="30.912" y="223.8215"/><rect fill="#F1F1F1" height="8" style="stroke:#181818;stroke-width:0.4;" width="12" x="202.6839" y="227.8215"/><rect fill="#F1F1F1" height="1.6" style="stroke:#181818;stroke-width:0.4;" width="3.2" x="201.0839" y="229.4215"/><rect fill="#F1F1F1" height="1.6" style="stroke:#181818;stroke-width:0.4;" width="3.2" x="201.0839" y="232.6215"/><text fill="#000000" font-family="sans-serif" font-size="11.2" lengthAdjust="spacing" textLength="155.7719" x="42.912" y="250.2176">steam_description_data.csv</text></g><!--entity steam_media_data.csv--><g class="entity" data-entity="steam_media_data.csv" data-source-line="30" data-uid="ent0006" id="entity_steam_media_data.csv"><rect fill="#F1F1F1" height="37.0375" rx="2" ry="2" style="stroke:#181818;stroke-width:0.4;" width="160.3844" x="44.608" y="334.6775"/><rect fill="#F1F1F1" height="8" style="stroke:#181818;stroke-width:0.4;" width="12" x="188.9924" y="338.6775"/><rect fill="#F1F1F1" height="1.6" style="stroke:#181818;stroke-width:0.4;" width="3.2" x="187.3924" y="340.2775"/><rect fill="#F1F1F1" height="1.6" style="stroke:#181818;stroke-width:0.4;" width="3.2" x="187.3924" y="343.4775"/><text fill="#000000" font-family="sans-serif" font-size="11.2" lengthAdjust="spacing" textLength="128.3844" x="56.608" y="361.0736">steam_media_data.csv</text></g><!--entity steam_support_info.csv--><g class="entity" data-entity="steam_support_info.csv" data-source-line="31" data-uid="ent0008" id="entity_steam_support_info.csv"><rect fill="#F1F1F1" height="37.0375" rx="2" ry="2" style="stroke:#181818;stroke-width:0.4;" width="164.2781" x="42.664" y="430.2055"/><rect fill="#F1F1F1" height="8" style="stroke:#181818;stroke-width:0.4;" width="12" x="190.9421" y="434.2055"/><rect fill="#F1F1F1" height="1.6" style="stroke:#181818;stroke-width:0.4;" width="3.2" x="189.3421" y="435.8055"/><rect fill="#F1F1F1" height="1.6" style="stroke:#181818;stroke-width:0.4;" width="3.2" x="189.3421" y="439.0055"/><text fill="#000000" font-family="sans-serif" font-size="11.2" lengthAdjust="spacing" textLength="132.2781" x="54.664" y="456.6016">steam_support_info.csv</text></g><!--entity steamspy_tag_data.csv--><g class="entity" data-entity="steamspy_tag_data.csv" data-source-line="32" data-uid="ent0010" id="entity_steamspy_tag_data.csv"><rect fill="#F1F1F1" height="37.0375" rx="2" ry="2" style="stroke:#181818;stroke-width:0.4;" width="163.4359" x="43.08" y="530.4455"/><rect fill="#F1F1F1" height="8" style="stroke:#181818;stroke-width:0.4;" width="12" x="190.5159" y="534.4455"/><rect fill="#F1F1F1" height="1.6" style="stroke:#181818;stroke-width:0.4;" width="3.2" x="188.9159" y="536.0455"/><rect fill="#F1F1F1" height="1.6" style="stroke:#181818;stroke-width:0.4;" width="3.2" x="188.9159" y="539.2455"/><text fill="#000000" font-family="sans-serif" font-size="11.2" lengthAdjust="spacing" textLength="131.4359" x="55.08" y="556.8416">steamspy_tag_data.csv</text></g><!--entity steam_requirements_data.csv--><g class="entity" data-entity="steam_requirements_data.csv" data-source-line="33" data-uid="ent0012" id="entity_steam_requirements_data.csv"><rect fill="#F1F1F1" height="37.0375" rx="2" ry="2" style="stroke:#181818;stroke-width:0.4;" width="200.9352" x="24.336" y="616.2775"/><rect fill="#F1F1F1" height="8" style="stroke:#181818;stroke-width:0.4;" width="12" x="209.2712" y="620.2775"/><rect fill="#F1F1F1" height="1.6" style="stroke:#181818;stroke-width:0.4;" width="3.2" x="207.6712" y="621.8775"/><rect fill="#F1F1F1" height="1.6" style="stroke:#181818;stroke-width:0.4;" width="3.2" x="207.6712" y="625.0775"/><text fill="#000000" font-family="sans-serif" font-size="11.2" lengthAdjust="spacing" textLength="168.9352" x="36.336" y="642.6736">steam_requirements_data.csv</text></g><!--entity B_json--><g class="entity" data-entity="B_json" data-source-line="43" data-uid="ent0017" id="entity_B_json"><polygon fill="#FFFFFF" points="540.768,129.0695,548.768,121.0695,636.8344,121.0695,636.8344,150.107,628.8344,158.107,540.768,158.107,540.768,129.0695" style="stroke:#4472C4;stroke-width:0.4;"/><line style="stroke:#4472C4;stroke-width:0.4;" x1="628.8344" x2="636.8344" y1="129.0695" y2="121.0695"/><line style="stroke:#4472C4;stroke-width:0.4;" x1="540.768" x2="628.8344" y1="129.0695" y2="129.0695"/><line style="stroke:#4472C4;stroke-width:0.4;" x1="628.8344" x2="628.8344" y1="129.0695" y2="158.107"/><text fill="#000000" font-family="sans-serif" font-size="11.2" lengthAdjust="spacing" textLength="64.0664" x="552.768" y="147.4656">games.json</text></g><!--entity games_march2025_cleaned.csv--><g class="entity" data-entity="games_march2025_cleaned.csv" data-source-line="52" data-uid="ent0021" id="entity_games_march2025_cleaned.csv"><rect fill="#F1F1F1" height="37.0375" rx="2" ry="2" style="stroke:#181818;stroke-width:0.4;" width="211.2492" x="959.976" y="121.0695"/><rect fill="#F1F1F1" height="8" style="stroke:#181818;stroke-width:0.4;" width="12" x="1155.2252" y="125.0695"/><rect fill="#F1F1F1" height="1.6" style="stroke:#181818;stroke-width:0.4;" width="3.2" x="1153.6252" y="126.6695"/><rect fill="#F1F1F1" height="1.6" style="stroke:#181818;stroke-width:0.4;" width="3.2" x="1153.6252" y="129.8695"/><text fill="#000000" font-family="sans-serif" font-size="11.2" lengthAdjust="spacing" textLength="179.2492" x="971.976" y="147.4656">games_march2025_cleaned.csv</text></g><!--entity games_march2025_full.csv--><g class="entity" data-entity="games_march2025_full.csv" data-source-line="52" data-uid="ent0022" id="entity_games_march2025_full.csv"><rect fill="#F1F1F1" height="37.0375" rx="2" ry="2" style="stroke:#181818;stroke-width:0.4;" width="184.3922" x="973.4" y="223.8215"/><rect fill="#F1F1F1" height="8" style="stroke:#181818;stroke-width:0.4;" width="12" x="1141.7922" y="227.8215"/><rect fill="#F1F1F1" height="1.6" style="stroke:#181818;stroke-width:0.4;" width="3.2" x="1140.1922" y="229.4215"/><rect fill="#F1F1F1" height="1.6" style="stroke:#181818;stroke-width:0.4;" width="3.2" x="1140.1922" y="232.6215"/><text fill="#000000" font-family="sans-serif" font-size="11.2" lengthAdjust="spacing" textLength="152.3922" x="985.4" y="250.2176">games_march2025_full.csv</text></g><!--entity games_may2024_cleaned.csv--><g class="entity" data-entity="games_may2024_cleaned.csv" data-source-line="53" data-uid="ent0024" id="entity_games_may2024_cleaned.csv"><rect fill="#F1F1F1" height="37.0375" rx="2" ry="2" style="stroke:#181818;stroke-width:0.4;" width="200.0164" x="965.592" y="334.6775"/><rect fill="#F1F1F1" height="8" style="stroke:#181818;stroke-width:0.4;" width="12" x="1149.6084" y="338.6775"/><rect fill="#F1F1F1" height="1.6" style="stroke:#181818;stroke-width:0.4;" width="3.2" x="1148.0084" y="340.2775"/><rect fill="#F1F1F1" height="1.6" style="stroke:#181818;stroke-width:0.4;" width="3.2" x="1148.0084" y="343.4775"/><text fill="#000000" font-family="sans-serif" font-size="11.2" lengthAdjust="spacing" textLength="168.0164" x="977.592" y="361.0736">games_may2024_cleaned.csv</text></g><!--entity games_may2024_full.csv--><g class="entity" data-entity="games_may2024_full.csv" data-source-line="54" data-uid="ent0026" id="entity_games_may2024_full.csv"><rect fill="#F1F1F1" height="37.0375" rx="2" ry="2" style="stroke:#181818;stroke-width:0.4;" width="173.1594" x="979.024" y="430.2055"/><rect fill="#F1F1F1" height="8" style="stroke:#181818;stroke-width:0.4;" width="12" x="1136.1834" y="434.2055"/><rect fill="#F1F1F1" height="1.6" style="stroke:#181818;stroke-width:0.4;" width="3.2" x="1134.5834" y="435.8055"/><rect fill="#F1F1F1" height="1.6" style="stroke:#181818;stroke-width:0.4;" width="3.2" x="1134.5834" y="439.0055"/><text fill="#000000" font-family="sans-serif" font-size="11.2" lengthAdjust="spacing" textLength="141.1594" x="991.024" y="456.6016">games_may2024_full.csv</text></g><!--entity A_merged--><g class="entity" data-entity="A_merged" data-source-line="36" data-uid="ent0014" id="entity_A_merged"><rect fill="#FCE4D6" height="42.075" rx="2" ry="2" style="stroke:#C00000;stroke-width:0.4;" width="185.1047" x="270.648" y="221.3015"/><text fill="#C00000" font-family="sans-serif" font-size="11.2" lengthAdjust="spacing" textLength="78.9578" x="278.648" y="239.6976">A_merged.csv</text><text fill="#C00000" font-family="sans-serif" font-size="11.2" lengthAdjust="spacing" textLength="169.1047" x="278.648" y="252.7351">(bels&#337; merge - load_source_a)</text></g><!--entity B_full--><g class="entity" data-entity="B_full" data-source-line="45" data-uid="ent0018" id="entity_B_full"><rect fill="#FCE4D6" height="42.075" rx="2" ry="2" style="stroke:#C00000;stroke-width:0.4;" width="210.3102" x="483.648" y="221.3015"/><text fill="#C00000" font-family="sans-serif" font-size="11.2" lengthAdjust="spacing" textLength="52.7297" x="491.648" y="239.6976">B_full.csv</text><text fill="#C00000" font-family="sans-serif" font-size="11.2" lengthAdjust="spacing" textLength="194.3102" x="491.648" y="252.7351">(JSON feldolgoz&#225;s - load_source_b)</text></g><!--entity C_combined--><g class="entity" data-entity="C_combined" data-source-line="57" data-uid="ent0028" id="entity_C_combined"><rect fill="#FCE4D6" height="42.075" rx="2" ry="2" style="stroke:#C00000;stroke-width:0.4;" width="184.3992" x="722.2" y="221.3015"/><text fill="#C00000" font-family="sans-serif" font-size="11.2" lengthAdjust="spacing" textLength="90.8414" x="730.2" y="239.6976">C_combined.csv</text><text fill="#C00000" font-family="sans-serif" font-size="11.2" lengthAdjust="spacing" textLength="168.3992" x="730.2" y="252.7351">(bels&#337; merge - load_source_c)</text></g><!--entity D--><g class="entity" data-entity="D" data-source-line="66" data-uid="ent0032" id="entity_D"><rect fill="#FCE4D6" height="55.1125" rx="2" ry="2" style="stroke:#C00000;stroke-width:0.4;" width="150.4219" x="513.592" y="325.6375"/><text fill="#C00000" font-family="sans-serif" font-size="11.2" lengthAdjust="spacing" textLength="8.6242" x="521.592" y="344.0336">D</text><text fill="#C00000" font-family="sans-serif" font-size="11.2" lengthAdjust="spacing" textLength="119.5305" x="521.592" y="357.0711">(merged_master.csv)</text><text fill="#C00000" font-family="sans-serif" font-size="11.2" lengthAdjust="spacing" textLength="134.4219" x="521.592" y="370.1086">Egys&#233;ges rel&#225;ci&#243;s s&#233;ma</text></g><g class="entity" data-entity="GMN33" data-source-line="69" data-uid="ent0034" id="entity_GMN33"><path d="M691.76,324.9815 L691.76,349.9895 L664.216,353.1895 L691.76,356.3895 L691.76,381.4065 A0,0 0 0 0 691.76,381.4065 L801.0428,381.4065 A0,0 0 0 0 801.0428,381.4065 L801.0428,332.9815 L793.0428,324.9815 L691.76,324.9815 A0,0 0 0 0 691.76,324.9815" fill="#FEFFDD" style="stroke:#181818;stroke-width:0.4;"/><path d="M793.0428,324.9815 L793.0428,332.9815 L801.0428,332.9815 L793.0428,324.9815" fill="#FEFFDD" style="stroke:#181818;stroke-width:0.4;"/><text fill="#000000" font-family="sans-serif" font-size="10.4" lengthAdjust="spacing" textLength="83.1086" x="696.56" y="338.635">Forr&#225;s-priorit&#225;s:</text><text fill="#000000" font-family="sans-serif" font-size="10.4" lengthAdjust="spacing" textLength="77.9645" x="699.8659" y="350.7413">C &#8594; els&#337;dleges</text><text fill="#000000" font-family="sans-serif" font-size="10.4" lengthAdjust="spacing" textLength="84.9926" x="699.8659" y="362.8475">B &#8594; m&#225;sodlagos</text><text fill="#000000" font-family="sans-serif" font-size="10.4" lengthAdjust="spacing" textLength="89.177" x="699.8659" y="374.9538">A &#8594; hi&#225;nykit&#246;lt&#233;s</text></g><!--link steam.csv to steam_description_data.csv--><!--link steam_description_data.csv to steam_media_data.csv--><!--link steam_media_data.csv to steam_support_info.csv--><!--link steam_support_info.csv to steamspy_tag_data.csv--><!--link steamspy_tag_data.csv to steam_requirements_data.csv--><!--link A to A_merged--><g class="link" data-entity-1="A" data-entity-2="A_merged" data-source-line="37" data-uid="lnk15" id="link_A_A_merged"><path d="M251.3772,146.0056 C251.4559,146.0728 251.5352,146.1406 251.6151,146.2089 C252.8941,147.3015 254.3308,148.529 255.9061,149.8749 C262.2073,155.2583 270.7245,162.535 280.221,170.6485 C299.214,186.8755 318.4748,203.3313 335.4068,217.7993" fill="none" id="A-to-A_merged" style="stroke:#C00000;stroke-width:1.6;"/><polygon fill="#C00000" points="339.056,220.9175,335.6609,213.8074,336.015,218.319,331.5034,218.673,339.056,220.9175" style="stroke:#C00000;stroke-width:1.6;"/></g><!--link B_json to B_full--><g class="link" data-entity-1="B_json" data-entity-2="B_full" data-source-line="46" data-uid="lnk19" id="link_B_json_B_full"><path d="M588.8,158.4695 C588.8,176.0855 588.8,198.0215 588.8,216.3815" fill="none" id="B_json-to-B_full" style="stroke:#C00000;stroke-width:1.6;"/><polygon fill="#C00000" points="588.8,221.1815,592,213.9815,588.8,217.1815,585.6,213.9815,588.8,221.1815" style="stroke:#C00000;stroke-width:1.6;"/></g><!--link games_march2025_cleaned.csv to games_march2025_full.csv--><!--link games_march2025_full.csv to games_may2024_cleaned.csv--><!--link games_may2024_cleaned.csv to games_may2024_full.csv--><!--link C to C_combined--><g class="link" data-entity-1="C" data-entity-2="C_combined" data-source-line="58" data-uid="lnk29" id="link_C_C_combined"><path d="M925.4663,146.0056 C925.3881,146.0728 925.3093,146.1406 925.2299,146.2089 C923.9596,147.3015 922.5325,148.529 920.9679,149.8749 C914.7093,155.2583 906.2495,162.535 896.817,170.6485 C877.952,186.8755 858.835,203.3194 842.015,217.7874" fill="none" id="C-to-C_combined" style="stroke:#C00000;stroke-width:1.6;"/><polygon fill="#C00000" points="838.376,220.9175,845.9212,218.6483,841.4085,218.3091,841.7477,213.7963,838.376,220.9175" style="stroke:#C00000;stroke-width:1.6;"/></g><!--link A to B--><!--link B to C--><!--link C_combined to D--><g class="link" data-entity-1="C_combined" data-entity-2="D" data-source-line="76" data-uid="lnk36" id="link_C_combined_D"><path d="M771.968,263.6935 C735.976,281.1255 688.3843,304.1698 649.0083,323.2338" fill="none" id="C_combined-to-D" style="stroke:#C00000;stroke-width:1.6;"/><polygon fill="#C00000" points="644.688,325.3255,652.5629,325.0682,648.2882,323.5824,649.774,319.3078,644.688,325.3255" style="stroke:#C00000;stroke-width:1.6;"/><text fill="#C00000" font-family="sans-serif" font-size="10.4" lengthAdjust="spacing" textLength="40.9348" x="722.4" y="297.835">1. l&#233;p&#233;s</text></g><!--link B_full to D--><g class="link" data-entity-1="B_full" data-entity-2="D" data-source-line="77" data-uid="lnk37" id="link_B_full_D"><path d="M588.8,263.6935 C588.8,281.1255 588.8,301.4615 588.8,320.5255" fill="none" id="B_full-to-D" style="stroke:#C00000;stroke-width:1.6;"/><polygon fill="#C00000" points="588.8,325.3255,592,318.1255,588.8,321.3255,585.6,318.1255,588.8,325.3255" style="stroke:#C00000;stroke-width:1.6;"/><text fill="#C00000" font-family="sans-serif" font-size="10.4" lengthAdjust="spacing" textLength="40.9348" x="589.6" y="297.835">2. l&#233;p&#233;s</text></g><!--link A_merged to D--><g class="link" data-entity-1="A_merged" data-entity-2="D" data-source-line="78" data-uid="lnk38" id="link_A_merged_D"><path d="M405.632,263.6935 C441.624,281.1255 489.2157,304.1698 528.5917,323.2338" fill="none" id="A_merged-to-D" style="stroke:#C00000;stroke-width:1.6;"/><polygon fill="#C00000" points="532.912,325.3255,527.826,319.3078,529.3118,323.5824,525.0371,325.0682,532.912,325.3255" style="stroke:#C00000;stroke-width:1.6;"/><text fill="#C00000" font-family="sans-serif" font-size="10.4" lengthAdjust="spacing" textLength="40.9348" x="476.8" y="297.835">3. l&#233;p&#233;s</text></g><!--SRC=[bLNBRXCn5DtxAwomW4fCL49ug1ALCXEoG08MHMNHLYFFs9cOUEp1TgYcY2txyWTTTi4AYHMxKN-4B-7QCqacBwMCbDSvznxVOzyR2pQss2giUJQnc7BDKikLH5OL3awKjIfluIObWk73xak4p9JBWcYIuuIaqqohcQIH4ahZomcthCMxP28pIFoAC3pXMlo3KVIwFtnUSqfJfXiyEdIFnqTAsbNqMsi5gUWkyO- -c0tfVlz5B-glIOS2abU4YTRgib6-Jr4E_J3XwLGoOt0Fj93b5fo_PJfZUAn4IN9YSO0JPglVmbQt1hiNoqfcgf_-jwXk2_Xa7A67-DNk1zW1I6fTtHXG1BqamT79QLkCxP50K1Bi2kwC6ft1kNnqOXbu1wLWUj311C1c2ywCOxgf-NA1WxC9fvJ92wekPT1GCMKcrRnmpH9JOecFRULk3zWXbZFAoNQPDMg7W9aLXT8svdAiDYGsoEqYfYXZIxAjPMnmE-hGxFCCPYXdqfgM47J7SZOw0p05JK8T1uUGC67khh77u7I58ZGsQgPJ5fFcL9e4DC11SBpykRThmbRNl3bv_svFmdgBX7xriEa9FtkTZEJCT3yP9MioTb_1OCjV68zdGZJktB9up0HL8bDNTIbjYyb1e-DoK2tdNJR8Ne_HjiduJwCH5DexxFK3U7lMdeTeFW_UTfmJdKvSJ9mAHcHzX9kzi1uytuwBxLeBUgTGwOfRMNDLQPFV8xMiQBKrepXLUSBbVPepRRPeaO8YVt0jm3Nil0v_ymGuHE465kq_vTFgDbiKiYUwvMS85kfX0UimejhPEZYNhxFIW28pS6U9wYRbrI-30Sc9zpH4I2hBcjjIZG6ehm7VBa6XkTBSmjSZZqER_Ft-0_kjeeA1R0s77iuXJb51CjN00mzFU7KZoocVtmw8IOhTgcupHjMVBBkxzbgFyHJk2QPbUNUT42Z0maeQejcLIrjkDmxyMH_Z8Jx2JxhpwmNLaxJ2zfRi_DzaXN-wuFy1]--></g></svg>