<svg xmlns="http://www.w3.org/2000/svg" xmlns:xlink="http://www.w3.org/1999/xlink" contentStyleType="text/css" data-diagram-type="ACTIVITY" height="1175px" preserveAspectRatio="none" style="width:619px;height:1175px;background:#FFFFFF;" version="1.1" viewBox="0 0 619 1175" width="619px" zoomAndPan="magnify"><title>Steam Dataset Merge Process</title><defs/><g><g class="title" data-source-line="1"><text fill="#000000" font-family="Arial" font-size="14" font-weight="bold" lengthAdjust="spacing" textLength="237.7471" x="189.3599" y="32.9951">Steam Dataset Merge Process</text></g><ellipse cx="309.7334" cy="57.2969" fill="#222222" rx="10" ry="10" style="stroke:#222222;stroke-width:1;"/><rect fill="none" height="190.2031" style="stroke:#000000;stroke-width:1.5;" width="204.5547" x="207.4561" y="77.2969"/><path d="M279.875,77.2969 L279.875,86.5938 L269.875,96.5938 L207.4561,96.5938" fill="none" style="stroke:#000000;stroke-width:1.5;"/><text fill="#000000" font-family="Arial" font-size="14" lengthAdjust="spacing" textLength="62.4189" x="210.4561" y="91.292">Source A</text><rect fill="#F1F1F1" height="33.9688" rx="12.5" ry="12.5" style="stroke:#181818;stroke-width:0.5;" width="143.8438" x="237.8115" y="113.5938"/><text fill="#000000" font-family="Arial" font-size="12" lengthAdjust="spacing" textLength="123.8438" x="247.8115" y="134.7324">load_source_a() -&gt; a</text><rect fill="#F1F1F1" height="33.9688" rx="12.5" ry="12.5" style="stroke:#181818;stroke-width:0.5;" width="184.5547" x="217.4561" y="167.5625"/><text fill="#000000" font-family="Arial" font-size="12" lengthAdjust="spacing" textLength="164.5547" x="227.4561" y="188.7012">Clean &amp; normalize columns</text><rect fill="#F1F1F1" height="33.9688" rx="12.5" ry="12.5" style="stroke:#181818;stroke-width:0.5;" width="91.9414" x="263.7627" y="221.5313"/><text fill="#000000" font-family="Arial" font-size="12" lengthAdjust="spacing" textLength="71.9414" x="273.7627" y="242.6699">Merge CSVs</text><rect fill="none" height="190.2031" style="stroke:#000000;stroke-width:1.5;" width="237.2734" x="191.0967" y="277.5"/><path d="M263.543,277.5 L263.543,286.7969 L253.543,296.7969 L191.0967,296.7969" fill="none" style="stroke:#000000;stroke-width:1.5;"/><text fill="#000000" font-family="Arial" font-size="14" lengthAdjust="spacing" textLength="62.4463" x="194.0967" y="291.4951">Source B</text><rect fill="#F1F1F1" height="33.9688" rx="12.5" ry="12.5" style="stroke:#181818;stroke-width:0.5;" width="190.4023" x="214.5322" y="313.7969"/><text fill="#000000" font-family="Arial" font-size="12" lengthAdjust="spacing" textLength="170.4023" x="224.5322" y="334.9355">load_source_b(B_PATH) -&gt; b</text><rect fill="#F1F1F1" height="33.9688" rx="12.5" ry="12.5" style="stroke:#181818;stroke-width:0.5;" width="136.168" x="241.6494" y="367.7656"/><text fill="#000000" font-family="Arial" font-size="12" lengthAdjust="spacing" textLength="116.168" x="251.6494" y="388.9043">JSON to DataFrame</text><rect fill="#F1F1F1" height="33.9688" rx="12.5" ry="12.5" style="stroke:#181818;stroke-width:0.5;" width="217.2734" x="201.0967" y="421.7344"/><text fill="#000000" font-family="Arial" font-size="12" lengthAdjust="spacing" textLength="197.2734" x="211.0967" y="442.873">Convert numeric &amp; bool columns</text><rect fill="none" height="190.2031" style="stroke:#000000;stroke-width:1.5;" width="204.5547" x="207.4561" y="477.7031"/><path d="M280.0732,477.7031 L280.0732,487 L270.0732,497 L207.4561,497" fill="none" style="stroke:#000000;stroke-width:1.5;"/><text fill="#000000" font-family="Arial" font-size="14" lengthAdjust="spacing" textLength="62.6172" x="210.4561" y="491.6982">Source C</text><rect fill="#F1F1F1" height="33.9688" rx="12.5" ry="12.5" style="stroke:#181818;stroke-width:0.5;" width="142.332" x="238.5674" y="514"/><text fill="#000000" font-family="Arial" font-size="12" lengthAdjust="spacing" textLength="122.332" x="248.5674" y="535.1387">load_source_c() -&gt; c</text><rect fill="#F1F1F1" height="33.9688" rx="12.5" ry="12.5" style="stroke:#181818;stroke-width:0.5;" width="184.5547" x="217.4561" y="567.9688"/><text fill="#000000" font-family="Arial" font-size="12" lengthAdjust="spacing" textLength="164.5547" x="227.4561" y="589.1074">Clean &amp; normalize columns</text><rect fill="#F1F1F1" height="33.9688" rx="12.5" ry="12.5" style="stroke:#181818;stroke-width:0.5;" width="130.6836" x="244.3916" y="621.9375"/><text fill="#000000" font-family="Arial" font-size="12" lengthAdjust="spacing" textLength="110.6836" x="254.3916" y="643.0762">Concatenate CSVs</text><rect fill="none" height="352.1094" style="stroke:#000000;stroke-width:1.5;" width="597.4668" x="11" y="677.9063"/><path d="M111.5693,677.9063 L111.5693,687.2031 L101.5693,697.2031 L11,697.2031" fill="none" style="stroke:#000000;stroke-width:1.5;"/><text fill="#000000" font-family="Arial" font-size="14" lengthAdjust="spacing" textLength="90.5693" x="14" y="691.9014">Intermediate</text><rect fill="#F1F1F1" height="33.9688" rx="12.5" ry="12.5" style="stroke:#181818;stroke-width:0.5;" width="187.1914" x="216.1377" y="714.2031"/><text fill="#000000" font-family="Arial" font-size="12" lengthAdjust="spacing" textLength="167.1914" x="226.1377" y="735.3418">merge_sources(a, b, c) -&gt; d</text><rect fill="#F1F1F1" height="33.9688" rx="12.5" ry="12.5" style="stroke:#181818;stroke-width:0.5;" width="181.0273" x="219.2197" y="768.1719"/><text fill="#000000" font-family="Arial" font-size="12" lengthAdjust="spacing" textLength="161.0273" x="229.2197" y="789.3105">analyze_name_matches(d)</text><rect fill="#F1F1F1" height="33.9688" rx="12.5" ry="12.5" style="stroke:#181818;stroke-width:0.5;" width="577.4668" x="21" y="822.1406"/><text fill="#000000" font-family="Arial" font-size="12" lengthAdjust="spacing" textLength="557.4668" x="31" y="843.2793">analyze_multi_source_attribute(d, attr) [for genre, category, language, developer, publisher]</text><rect fill="#F1F1F1" height="33.9688" rx="12.5" ry="12.5" style="stroke:#181818;stroke-width:0.5;" width="226.959" x="196.2539" y="876.1094"/><text fill="#000000" font-family="Arial" font-size="12" lengthAdjust="spacing" textLength="206.959" x="206.2539" y="897.248">Generate release year Gantt chart</text><rect fill="#F1F1F1" height="33.9688" rx="12.5" ry="12.5" style="stroke:#181818;stroke-width:0.5;" width="167.498" x="225.9844" y="930.0781"/><text fill="#000000" font-family="Arial" font-size="12" lengthAdjust="spacing" textLength="147.498" x="235.9844" y="951.2168">Check duplicated appids</text><rect fill="#F1F1F1" height="33.9688" rx="12.5" ry="12.5" style="stroke:#181818;stroke-width:0.5;" width="179.082" x="220.1924" y="984.0469"/><text fill="#000000" font-family="Arial" font-size="12" lengthAdjust="spacing" textLength="159.082" x="230.1924" y="1005.1855">finalize_dataset(d) -&gt; final</text><rect fill="none" height="82.2656" style="stroke:#000000;stroke-width:1.5;" width="148.8848" x="235.291" y="1040.0156"/><path d="M293.9219,1040.0156 L293.9219,1049.3125 L283.9219,1059.3125 L235.291,1059.3125" fill="none" style="stroke:#000000;stroke-width:1.5;"/><text fill="#000000" font-family="Arial" font-size="14" lengthAdjust="spacing" textLength="48.6309" x="238.291" y="1054.0107">Output</text><rect fill="#F1F1F1" height="33.9688" rx="12.5" ry="12.5" style="stroke:#181818;stroke-width:0.5;" width="128.8848" x="245.291" y="1076.3125"/><text fill="#000000" font-family="Arial" font-size="12" lengthAdjust="spacing" textLength="108.8848" x="255.291" y="1097.4512">save_output(final)</text><ellipse cx="309.7334" cy="1153.2813" fill="none" rx="11" ry="11" style="stroke:#222222;stroke-width:1;"/><ellipse cx="309.7334" cy="1153.2813" fill="#222222" rx="6" ry="6" style="stroke:#222222;stroke-width:1;"/><line style="stroke:#181818;stroke-width:1;" x1="309.7334" x2="309.7334" y1="147.5625" y2="167.5625"/><polygon fill="#181818" points="305.7334,157.5625,309.7334,167.5625,313.7334,157.5625,309.7334,161.5625" style="stroke:#181818;stroke-width:1;"/><line style="stroke:#181818;stroke-width:1;" x1="309.7334" x2="309.7334" y1="201.5313" y2="221.5313"/><polygon fill="#181818" points="305.7334,211.5313,309.7334,221.5313,313.7334,211.5313,309.7334,215.5313" style="stroke:#181818;stroke-width:1;"/><line style="stroke:#181818;stroke-width:1;" x1="309.7334" x2="309.7334" y1="67.2969" y2="113.5938"/><polygon fill="#181818" points="305.7334,103.5938,309.7334,113.5938,313.7334,103.5938,309.7334,107.5938" style="stroke:#181818;stroke-width:1;"/><line style="stroke:#181818;stroke-width:1;" x1="309.7334" x2="309.7334" y1="347.7656" y2="367.7656"/><polygon fill="#181818" points="305.7334,357.7656,309.7334,367.7656,313.7334,357.7656,309.7334,361.7656" style="stroke:#181818;stroke-width:1;"/><line style="stroke:#181818;stroke-width:1;" x1="309.7334" x2="309.7334" y1="401.7344" y2="421.7344"/><polygon fill="#181818" points="305.7334,411.7344,309.7334,421.7344,313.7334,411.7344,309.7334,415.7344" style="stroke:#181818;stroke-width:1;"/><line style="stroke:#181818;stroke-width:1;" x1="309.7334" x2="309.7334" y1="255.5" y2="313.7969"/><polygon fill="#181818" points="305.7334,303.7969,309.7334,313.7969,313.7334,303.7969,309.7334,307.7969" style="stroke:#181818;stroke-width:1;"/><line style="stroke:#181818;stroke-width:1;" x1="309.7334" x2="309.7334" y1="547.9688" y2="567.9688"/><polygon fill="#181818" points="305.7334,557.9688,309.7334,567.9688,313.7334,557.9688,309.7334,561.9688" style="stroke:#181818;stroke-width:1;"/><line style="stroke:#181818;stroke-width:1;" x1="309.7334" x2="309.7334" y1="601.9375" y2="621.9375"/><polygon fill="#181818" points="305.7334,611.9375,309.7334,621.9375,313.7334,611.9375,309.7334,615.9375" style="stroke:#181818;stroke-width:1;"/><line style="stroke:#181818;stroke-width:1;" x1="309.7334" x2="309.7334" y1="455.7031" y2="514"/><polygon fill="#181818" points="305.7334,504,309.7334,514,313.7334,504,309.7334,508" style="stroke:#181818;stroke-width:1;"/><line style="stroke:#181818;stroke-width:1;" x1="309.7334" x2="309.7334" y1="748.1719" y2="768.1719"/><polygon fill="#181818" points="305.7334,758.1719,309.7334,768.1719,313.7334,758.1719,309.7334,762.1719" style="stroke:#181818;stroke-width:1;"/><line style="stroke:#181818;stroke-width:1;" x1="309.7334" x2="309.7334" y1="802.1406" y2="822.1406"/><polygon fill="#181818" points="305.7334,812.1406,309.7334,822.1406,313.7334,812.1406,309.7334,816.1406" style="stroke:#181818;stroke-width:1;"/><line style="stroke:#181818;stroke-width:1;" x1="309.7334" x2="309.7334" y1="856.1094" y2="876.1094"/><polygon fill="#181818" points="305.7334,866.1094,309.7334,876.1094,313.7334,866.1094,309.7334,870.1094" style="stroke:#181818;stroke-width:1;"/><line style="stroke:#181818;stroke-width:1;" x1="309.7334" x2="309.7334" y1="910.0781" y2="930.0781"/><polygon fill="#181818" points="305.7334,920.0781,309.7334,930.0781,313.7334,920.0781,309.7334,924.0781" style="stroke:#181818;stroke-width:1;"/><line style="stroke:#181818;stroke-width:1;" x1="309.7334" x2="309.7334" y1="964.0469" y2="984.0469"/><polygon fill="#181818" points="305.7334,974.0469,309.7334,984.0469,313.7334,974.0469,309.7334,978.0469" style="stroke:#181818;stroke-width:1;"/><line style="stroke:#181818;stroke-width:1;" x1="309.7334" x2="309.7334" y1="655.9063" y2="714.2031"/><polygon fill="#181818" points="305.7334,704.2031,309.7334,714.2031,313.7334,704.2031,309.7334,708.2031" style="stroke:#181818;stroke-width:1;"/><line style="stroke:#181818;stroke-width:1;" x1="309.7334" x2="309.7334" y1="1018.0156" y2="1076.3125"/><polygon fill="#181818" points="305.7334,1066.3125,309.7334,1076.3125,313.7334,1066.3125,309.7334,1070.3125" style="stroke:#181818;stroke-width:1;"/><line style="stroke:#181818;stroke-width:1;" x1="309.7334" x2="309.7334" y1="1110.2813" y2="1142.2813"/><polygon fill="#181818" points="305.7334,1132.2813,309.7334,1142.2813,313.7334,1132.2813,309.7334,1136.2813" style="stroke:#181818;stroke-width:1;"/><!--SRC=[ZPDlYzim3CRVvrE8Up5IwBx0xYYq7TTjR7S77OCnZg3OQcBgs46MEthZllkSF-rA2Tm2VX59iNxF8qMCM8Aj43Rm4GK32NmZhWYUs2iA8GjxurhabDUqmsZbtZjvm8PWoGPjTb60Iip1o17-P92U5QfznJuwlVRMyztTraTMj5Z0LrFLihAHfki-Eo5kI1kKS_LFijR_dgv_ZD96ELLkcCXbhmbCa2NB4fiOCTx1pG00onkuW1bWFrYFkWXziC1y1kyNWBT3Qcq97Rm3vxb1Qru8bBUnSM7C3uQjjpzIu7MguUgjXcM-AfwMtp_rRSlnsY_RnmSGty_bFlbB9npl3iG2BZR4HYMmqdlxZsaIOVqMWXeqg__Kd21K6ezBPrBvvGoxrbSp7G6QphcH8EGuXt8EgkVGOnzqQ8ylLBYalsXGL9qAzUmgswIzDEVfYR0fer2kvz2zpE3NpZDKv9ZI_OcWydoSWqLNHQnIJDE1h6-9vz36qffG4p-FFJRaY3kPJCcJG70aPDYW4m5L9yKdHsfIUz2njQPheG7RrkYJNplZUXiBFVnbIKCdimzVUpViS-VQURD7lm8UgF1zCEy_dTqEc-xRlm00]--></g></svg>